<?xml version="1.0" encoding="UTF-8" standalone="no"?>
<svg width="33px" height="36px" viewBox="0 0 33 36" version="1.1" xmlns="http://www.w3.org/2000/svg" xmlns:xlink="http://www.w3.org/1999/xlink">
    <!-- Generator: Sketch 47.1 (45422) - http://www.bohemiancoding.com/sketch -->
    <title>Bronze</title>
    <desc>Created with Sketch.</desc>
    <defs>
        <path d="M17.9889624,0.852747621 L28.8934856,7.14694001 L28.8934856,7.14694001 C29.8080009,7.67480673 30.3713897,8.65050565 30.3713897,9.70643247 L30.3713897,22.2935675 L30.3713897,22.2935675 C30.3713897,23.3494943 29.8080009,24.3251933 28.8934856,24.85306 L17.9889624,31.1472524 L17.9889624,31.1472524 C17.0747372,31.6749517 15.9484619,31.6749517 15.0342366,31.1472524 L4.12971338,24.85306 L4.12971338,24.85306 C3.21519812,24.3251933 2.65180931,23.3494943 2.65180931,22.2935675 L2.65180931,9.70643247 L2.65180931,9.70643247 C2.65180931,8.65050565 3.21519812,7.67480673 4.12971338,7.14694001 L15.0342366,0.852747621 L15.0342366,0.852747621 C15.9484619,0.325048298 17.0747372,0.325048298 17.9889624,0.852747621 Z" id="path-1"></path>
        <filter x="-12.6%" y="-8.0%" width="125.3%" height="122.5%" filterUnits="objectBoundingBox" id="filter-2">
            <feMorphology radius="0.5" operator="dilate" in="SourceAlpha" result="shadowSpreadOuter1"></feMorphology>
            <feOffset dx="0" dy="1" in="shadowSpreadOuter1" result="shadowOffsetOuter1"></feOffset>
            <feGaussianBlur stdDeviation="0.5" in="shadowOffsetOuter1" result="shadowBlurOuter1"></feGaussianBlur>
            <feComposite in="shadowBlurOuter1" in2="SourceAlpha" operator="out" result="shadowBlurOuter1"></feComposite>
            <feColorMatrix values="0 0 0 0 0   0 0 0 0 0   0 0 0 0 0  0 0 0 0.1 0" type="matrix" in="shadowBlurOuter1"></feColorMatrix>
        </filter>
        <path d="M1.43663112,0 L5.6870381,0 L5.6870381,1.11022302e-16 C6.23904379,9.62050214e-18 6.68653282,0.447489028 6.68653282,0.999494719 L6.68653282,8.08695652 L4.31849918,9.87284254 L4.31849918,8.08695652 L1.43663112,8.08695652 L1.43663112,8.08695652 C0.739432348,8.08695652 0.174241068,7.52176524 0.174241068,6.82456647 C0.174241068,6.55060327 0.26336468,6.28407563 0.4281582,6.06521739 L1.64866892,4.44428697 L1.64866892,4.44428697 C1.82736969,4.20695885 1.82736969,3.87999767 1.64866892,3.64266955 L0.4281582,2.02173913 L0.4281582,2.02173913 C0.00878128659,1.46477491 0.120317834,0.673294045 0.677282051,0.253917132 C0.896140293,0.0891236119 1.16266793,4.94415433e-16 1.43663112,4.4408921e-16 Z" id="path-3"></path>
        <path d="M1.43663112,0 L5.6870381,0 L5.6870381,1.11022302e-16 C6.23904379,9.62050214e-18 6.68653282,0.447489028 6.68653282,0.999494719 L6.68653282,8.08695652 L4.31849918,9.87284254 L4.31849918,8.08695652 L1.43663112,8.08695652 L1.43663112,8.08695652 C0.739432348,8.08695652 0.174241068,7.52176524 0.174241068,6.82456647 C0.174241068,6.55060327 0.26336468,6.28407563 0.4281582,6.06521739 L1.64866892,4.44428697 L1.64866892,4.44428697 C1.82736969,4.20695885 1.82736969,3.87999767 1.64866892,3.64266955 L0.4281582,2.02173913 L0.4281582,2.02173913 C0.00878128659,1.46477491 0.120317834,0.673294045 0.677282051,0.253917132 C0.896140293,0.0891236119 1.16266793,4.94415433e-16 1.43663112,4.4408921e-16 Z" id="path-4"></path>
        <path d="M1.43663112,0 L5.6870381,0 L5.6870381,1.11022302e-16 C6.23904379,9.62050214e-18 6.68653282,0.447489028 6.68653282,0.999494719 L6.68653282,8.08695652 L4.31849918,9.87284254 L4.31849918,8.08695652 L1.43663112,8.08695652 L1.43663112,8.08695652 C0.739432348,8.08695652 0.174241068,7.52176524 0.174241068,6.82456647 C0.174241068,6.55060327 0.26336468,6.28407563 0.4281582,6.06521739 L1.64866892,4.44428697 L1.64866892,4.44428697 C1.82736969,4.20695885 1.82736969,3.87999767 1.64866892,3.64266955 L0.4281582,2.02173913 L0.4281582,2.02173913 C0.00878128659,1.46477491 0.120317834,0.673294045 0.677282051,0.253917132 C0.896140293,0.0891236119 1.16266793,4.94415433e-16 1.43663112,4.4408921e-16 Z" id="path-6"></path>
        <path d="M1.43663112,0 L5.6870381,0 L5.6870381,1.11022302e-16 C6.23904379,9.62050214e-18 6.68653282,0.447489028 6.68653282,0.999494719 L6.68653282,8.08695652 L4.31849918,9.87284254 L4.31849918,8.08695652 L1.43663112,8.08695652 L1.43663112,8.08695652 C0.739432348,8.08695652 0.174241068,7.52176524 0.174241068,6.82456647 C0.174241068,6.55060327 0.26336468,6.28407563 0.4281582,6.06521739 L1.64866892,4.44428697 L1.64866892,4.44428697 C1.82736969,4.20695885 1.82736969,3.87999767 1.64866892,3.64266955 L0.4281582,2.02173913 L0.4281582,2.02173913 C0.00878128659,1.46477491 0.120317834,0.673294045 0.677282051,0.253917132 C0.896140293,0.0891236119 1.16266793,4.94415433e-16 1.43663112,4.4408921e-16 Z" id="path-7"></path>
    </defs>
    <g id="Profile" stroke="none" stroke-width="1" fill="none" fill-rule="evenodd">
        <g id="3A-My-Profile-History" transform="translate(-188.000000, -739.000000)">
            <g id="Bronze" transform="translate(188.000000, 740.000000)">
                <g id="Polygon">
                    <use fill="black" fill-opacity="1" filter="url(#filter-2)" xlink:href="#path-1"></use>
                    <use fill="#FFFFFF" fill-rule="evenodd" xlink:href="#path-1"></use>
                    <path stroke="#E3B98F" stroke-width="0.985088985" d="M17.7427353,1.2793297 C16.9808809,0.839580262 16.0423181,0.839580262 15.2804638,1.2793297 L4.37594053,7.57352208 C3.61384448,8.01341102 3.14435381,8.82649346 3.14435381,9.70643247 L3.14435381,22.2935675 C3.14435381,23.1735065 3.61384448,23.986589 4.37594053,24.4264779 L15.2804638,30.7206703 C16.0423181,31.1604197 16.9808809,31.1604197 17.7427353,30.7206703 L28.6472585,24.4264779 C29.4093545,23.986589 29.8788452,23.1735065 29.8788452,22.2935675 L29.8788452,9.70643247 C29.8788452,8.82649346 29.4093545,8.01341102 28.6472585,7.57352208 L17.7427353,1.2793297 Z"></path>
                </g>
                <path d="M17.810437,3.79234872 L26.6609459,8.90094487 L26.6609459,8.90094487 C27.4069034,9.33151851 27.8664519,10.1273827 27.8664519,10.9886877 L27.8664519,21.2048606 L27.8664519,21.2048606 C27.8664519,22.0661657 27.4069034,22.8620299 26.6609459,23.2926035 L17.810437,28.4011997 L17.810437,28.4011997 C17.0647161,28.8316368 16.1460288,28.8316368 15.4003078,28.4011997 L6.54979893,23.2926035 L6.54979893,23.2926035 C5.80384138,22.8620299 5.34429287,22.0661657 5.34429287,21.2048606 L5.34429287,10.9886877 L5.34429287,10.9886877 C5.34429287,10.1273827 5.80384138,9.33151851 6.54979893,8.90094487 L15.4003078,3.79234872 L15.4003078,3.79234872 C16.1460288,3.36191163 17.0647161,3.36191163 17.810437,3.79234872 Z" id="Polygon" stroke="#E3B98F" stroke-width="0.803523564"></path>
                <path d="M18.9103591,16.196319 C18.8560877,17.2709404 17.9334736,18.103772 16.8480452,18.103772 C15.7626168,18.103772 14.8400027,17.2709404 14.7585955,16.196319 L14.432967,11.8709677 L19.2359876,11.8709677 L18.9103591,16.196319 Z" id="Path" fill="#FFFFFF"></path>
                <g id="Group-2-Copy" transform="translate(25.536996, 10.838710)">
                    <g id="Rectangle-2-Copy-3">
                        <use fill="#FFFFFF" fill-rule="evenodd" xlink:href="#path-3"></use>
                        <path stroke="#E3B98F" stroke-width="0.985088985" d="M4.81104367,8.88446975 L6.19398833,7.8415025 L6.19398833,0.999494719 C6.19398833,0.71951384 5.96701898,0.492544493 5.6870381,0.492544493 L1.43663112,0.492544493 C1.26955966,0.492544493 1.10702264,0.546894903 0.973555934,0.647391227 C0.633901459,0.903140593 0.565882929,1.38581077 0.821632295,1.72546525 L2.04214302,3.34639567 C2.35293765,3.75915442 2.35293765,4.3278021 2.04214302,4.74056085 L0.821632295,6.36149127 C0.72113597,6.49495798 0.66678556,6.657495 0.66678556,6.82456647 C0.66678556,7.24974043 1.01145716,7.59441203 1.43663112,7.59441203 L4.81104367,7.59441203 L4.81104367,8.88446975 Z"></path>
                    </g>
                    <g id="Group-18" transform="translate(0.000000, 0.000000)">
                        <mask id="mask-5" fill="white">
                            <use xlink:href="#path-4"></use>
                        </mask>
                        <g id="Rectangle-2-Copy-5"></g>
                        <path d="M-0.00757020757,5.6767767 L0.169249657,5.5 L7.10234705,12.4314047 L6.92552718,12.6081814 L-0.00757020757,5.6767767 Z M-0.00757020757,6.6767767 L0.169249657,6.5 L7.10234705,13.4314047 L6.92552718,13.6081814 L-0.00757020757,6.6767767 Z M-0.00757020757,4.6767767 L0.169249657,4.5 L7.10234705,11.4314047 L6.92552718,11.6081814 L-0.00757020757,4.6767767 Z M-0.00757020757,3.6767767 L0.169249657,3.5 L7.10234705,10.4314047 L6.92552718,10.6081814 L-0.00757020757,3.6767767 Z M-0.00757020757,2.6767767 L0.169249657,2.5 L7.10234705,9.43140474 L6.92552718,9.60818143 L-0.00757020757,2.6767767 Z M-0.00757020757,1.6767767 L0.169249657,1.5 L7.10234705,8.43140474 L6.92552718,8.60818143 L-0.00757020757,1.6767767 Z M-0.00757020757,0.676776695 L0.169249657,0.5 L7.10234705,7.43140474 L6.92552718,7.60818143 L-0.00757020757,0.676776695 Z M-0.00757020757,-0.323223305 L0.169249657,-0.5 L7.10234705,6.43140474 L6.92552718,6.60818143 L-0.00757020757,-0.323223305 Z M-0.00757020757,-1.3232233 L0.169249657,-1.5 L7.10234705,5.43140474 L6.92552718,5.60818143 L-0.00757020757,-1.3232233 Z M-0.00757020757,-2.3232233 L0.169249657,-2.5 L7.10234705,4.43140474 L6.92552718,4.60818143 L-0.00757020757,-2.3232233 Z M-0.00757020757,-3.3232233 L0.169249657,-3.5 L7.10234705,3.43140474 L6.92552718,3.60818143 L-0.00757020757,-3.3232233 Z M-0.00757020757,-4.3232233 L0.169249657,-4.5 L7.10234705,2.43140474 L6.92552718,2.60818143 L-0.00757020757,-4.3232233 Z M-0.00757020757,-5.3232233 L0.169249657,-5.5 L7.10234705,1.43140474 L6.92552718,1.60818143 L-0.00757020757,-5.3232233 Z" id="Combined-Shape" fill="#E3B98F" fill-rule="nonzero" mask="url(#mask-5)"></path>
                    </g>
                </g>
                <g id="Group-2-Copy" transform="translate(3.720513, 15.838710) scale(-1, 1) translate(-3.720513, -15.838710) translate(0.220513, 10.838710)">
                    <g id="Rectangle-2-Copy-3">
                        <use fill="#FFFFFF" fill-rule="evenodd" xlink:href="#path-6"></use>
                        <path stroke="#E3B98F" stroke-width="0.985088985" d="M4.81104367,8.88446975 L6.19398833,7.8415025 L6.19398833,0.999494719 C6.19398833,0.71951384 5.96701898,0.492544493 5.6870381,0.492544493 L1.43663112,0.492544493 C1.26955966,0.492544493 1.10702264,0.546894903 0.973555934,0.647391227 C0.633901459,0.903140593 0.565882929,1.38581077 0.821632295,1.72546525 L2.04214302,3.34639567 C2.35293765,3.75915442 2.35293765,4.3278021 2.04214302,4.74056085 L0.821632295,6.36149127 C0.72113597,6.49495798 0.66678556,6.657495 0.66678556,6.82456647 C0.66678556,7.24974043 1.01145716,7.59441203 1.43663112,7.59441203 L4.81104367,7.59441203 L4.81104367,8.88446975 Z"></path>
                    </g>
                    <g id="Group-18">
                        <mask id="mask-8" fill="white">
                            <use xlink:href="#path-7"></use>
                        </mask>
                        <g id="Rectangle-2-Copy-5"></g>
                        <path d="M-0.00757020757,5.6767767 L0.169249657,5.5 L7.10234705,12.4314047 L6.92552718,12.6081814 L-0.00757020757,5.6767767 Z M-0.00757020757,6.6767767 L0.169249657,6.5 L7.10234705,13.4314047 L6.92552718,13.6081814 L-0.00757020757,6.6767767 Z M-0.00757020757,4.6767767 L0.169249657,4.5 L7.10234705,11.4314047 L6.92552718,11.6081814 L-0.00757020757,4.6767767 Z M-0.00757020757,3.6767767 L0.169249657,3.5 L7.10234705,10.4314047 L6.92552718,10.6081814 L-0.00757020757,3.6767767 Z M-0.00757020757,2.6767767 L0.169249657,2.5 L7.10234705,9.43140474 L6.92552718,9.60818143 L-0.00757020757,2.6767767 Z M-0.00757020757,1.6767767 L0.169249657,1.5 L7.10234705,8.43140474 L6.92552718,8.60818143 L-0.00757020757,1.6767767 Z M-0.00757020757,0.676776695 L0.169249657,0.5 L7.10234705,7.43140474 L6.92552718,7.60818143 L-0.00757020757,0.676776695 Z M-0.00757020757,-0.323223305 L0.169249657,-0.5 L7.10234705,6.43140474 L6.92552718,6.60818143 L-0.00757020757,-0.323223305 Z M-0.00757020757,-1.3232233 L0.169249657,-1.5 L7.10234705,5.43140474 L6.92552718,5.60818143 L-0.00757020757,-1.3232233 Z M-0.00757020757,-2.3232233 L0.169249657,-2.5 L7.10234705,4.43140474 L6.92552718,4.60818143 L-0.00757020757,-2.3232233 Z M-0.00757020757,-3.3232233 L0.169249657,-3.5 L7.10234705,3.43140474 L6.92552718,3.60818143 L-0.00757020757,-3.3232233 Z M-0.00757020757,-4.3232233 L0.169249657,-4.5 L7.10234705,2.43140474 L6.92552718,2.60818143 L-0.00757020757,-4.3232233 Z M-0.00757020757,-5.3232233 L0.169249657,-5.5 L7.10234705,1.43140474 L6.92552718,1.60818143 L-0.00757020757,-5.3232233 Z" id="Combined-Shape" fill="#E3B98F" fill-rule="nonzero" mask="url(#mask-8)"></path>
                    </g>
                </g>
                <path d="M20.890855,9.60099152 L20.6409843,9.60903085 L20.6490387,9.35916063 C20.9121943,9.3676433 21.1586384,9.44217366 21.3723638,9.56672718 C21.6029018,9.70107864 21.7953711,9.89363291 21.929682,10.1242785 C22.0542583,10.3382074 22.1288011,10.5849062 22.1372799,10.8483269 L21.8874093,10.8563696 L21.8954616,10.6064993 C21.9125182,10.6069574 21.9125182,10.6069574 21.929682,10.6070498 C21.9468465,10.6069575 21.9468465,10.6069575 21.9639035,10.6064993 L21.9719546,10.8563697 L21.722084,10.848327 C21.7305628,10.5849063 21.8051056,10.3382074 21.929682,10.1242785 C22.0639928,9.89363291 22.2564621,9.70107864 22.4870001,9.56672718 C22.7007255,9.44217368 22.9471695,9.36764332 23.2103251,9.35916064 L23.2183796,9.60903085 L22.9685089,9.6009903 C22.968967,9.5839124 22.968967,9.5839124 22.9690592,9.56672718 C22.968967,9.54954122 22.968967,9.54954122 22.968509,9.53246284 L23.2183797,9.5244235 L23.2103252,9.77429372 C22.9471696,9.76581106 22.7007255,9.6912807 22.4870001,9.56672718 C22.2564621,9.43237571 22.0639928,9.23982144 21.929682,9.00917588 C21.8051056,8.79524696 21.7305628,8.54854818 21.722084,8.28512744 L21.9719546,8.27708479 L21.9639023,8.52695507 C21.9468457,8.52649691 21.9468457,8.52649691 21.929682,8.5264046 C21.9125174,8.5264969 21.9125174,8.5264969 21.8954604,8.52695501 L21.8874093,8.27708468 L22.1372799,8.28512731 C22.1288011,8.5485481 22.0542583,8.79524692 21.929682,9.00917588 C21.7953711,9.23982144 21.6029018,9.43237571 21.3723638,9.56672718 C21.1586384,9.69128068 20.9121944,9.76581103 20.6490388,9.77429372 L20.6409844,9.5244235 L20.890855,9.53246406 C20.890397,9.54954196 20.890397,9.54954196 20.8903047,9.56672718 C20.8903969,9.58391313 20.8903969,9.58391313 20.890855,9.60099152 Z" id="glow" stroke="#E3B98F" stroke-width="0.5" opacity="0.466709422" transform="translate(21.929682, 9.566727) rotate(-315.000000) translate(-21.929682, -9.566727) "></path>
                <path d="M8.75970696,19.6129032 C8.75970696,19.6015787 8.75988913,19.5902968 8.76025071,19.5790603 C9.3030521,19.5615634 9.73990658,19.1243886 9.75739065,18.5811892 C9.76861887,18.5808274 9.77989251,18.5806452 9.79120879,18.5806452 C9.80252499,18.5806452 9.81379863,18.5808275 9.82502694,18.5811893 C9.84251104,19.1243886 10.2793656,19.5615634 10.822167,19.5790603 C10.8225285,19.5902967 10.8227106,19.6015786 10.8227106,19.6129032 C10.8227106,19.6242277 10.8225284,19.6355096 10.8221669,19.6467462 C10.2793655,19.6642431 9.842511,20.1014179 9.82502694,20.6446172 C9.81379871,20.644979 9.80252507,20.6451613 9.79120879,20.6451613 C9.77989259,20.6451613 9.76861895,20.644979 9.75739064,20.6446171 C9.73990654,20.1014178 9.30305202,19.664243 8.76025063,19.6467462 C8.75988911,19.6355097 8.75970696,19.6242278 8.75970696,19.6129032 Z" id="glow" fill="#E3B98F" opacity="0.223414179"></path>
                <path d="M14.1686028,24.8220245 L13.9190386,24.8367783 L13.9339641,24.5872242 C14.1505436,24.6001776 14.3525928,24.6668828 14.5269803,24.7741935 C14.6984732,24.879723 14.8432152,25.0245212 14.9487179,25.1960857 C15.0560544,25.370632 15.1227758,25.5728831 15.1357314,25.7896732 L14.8861766,25.8045868 L14.9011015,25.5550327 C14.924762,25.5562123 14.924762,25.5562123 14.9487179,25.5564516 C14.9726739,25.5562123 14.9726739,25.5562123 14.9963344,25.5550327 L15.0112593,25.8045868 L14.7617045,25.7896732 C14.7746601,25.5728831 14.8413815,25.370632 14.9487179,25.1960857 C15.0542207,25.0245212 15.1989627,24.879723 15.3704556,24.7741935 C15.5448431,24.6668828 15.7468923,24.6001776 15.9634718,24.5872242 L15.9783973,24.8367783 L15.7288331,24.8220245 C15.7299859,24.7986314 15.7299859,24.7986314 15.7302198,24.7749498 L15.7302198,24.7734373 C15.7299859,24.7497557 15.7299859,24.7497557 15.7288331,24.7263626 L15.9783973,24.7116088 L15.9634718,24.9611629 C15.7468923,24.9482095 15.5448431,24.8815043 15.3704556,24.7741935 C15.1989627,24.6686641 15.0542207,24.5238659 14.9487179,24.3523014 C14.8413815,24.1777551 14.7746601,23.975504 14.7617045,23.7587139 L15.0112593,23.7438003 L14.9963344,23.9933544 C14.9726739,23.9921748 14.9726739,23.9921748 14.9487179,23.9919355 C14.924762,23.9921748 14.924762,23.9921748 14.9011015,23.9933544 L14.8861766,23.7438003 L15.1357314,23.7587139 C15.1227758,23.975504 15.0560544,24.1777551 14.9487179,24.3523014 C14.8432152,24.5238659 14.6984732,24.6686641 14.5269803,24.7741935 C14.3525928,24.8815043 14.1505436,24.9482095 13.9339641,24.9611629 L13.9190386,24.7116088 L14.1686028,24.7263626 C14.16745,24.7497557 14.16745,24.7497557 14.1672161,24.7734373 L14.1672161,24.7749498 C14.16745,24.7986314 14.16745,24.7986314 14.1686028,24.8220245 Z" id="glow" stroke="#E3B98F" stroke-width="0.5"></path>
                <path d="M15.7158556,7.2736374 L15.4662913,7.28839118 L15.4812169,7.03883712 C15.6977964,7.05179052 15.8998455,7.11849573 16.0742331,7.22580645 C16.245726,7.33133595 16.3904679,7.47613414 16.4959707,7.64769858 C16.6033072,7.8222449 16.6700286,8.02449598 16.6829841,8.24128606 L16.4334294,8.25619969 L16.4483542,8.00664559 C16.4720148,8.00782521 16.4720148,8.00782521 16.4959707,8.00806452 C16.5199266,8.00782521 16.5199266,8.00782521 16.5435872,8.00664559 L16.558512,8.25619969 L16.3089573,8.24128606 C16.3219128,8.02449598 16.3886342,7.8222449 16.4959707,7.64769858 C16.6014734,7.47613414 16.7462154,7.33133595 16.9177083,7.22580645 C17.0920958,7.11849573 17.294145,7.05179052 17.5107245,7.03883712 L17.5256501,7.28839118 L17.2760858,7.2736374 C17.2772387,7.25024431 17.2772387,7.25024431 17.2774725,7.22656268 L17.2774725,7.22505022 C17.2772387,7.20136859 17.2772387,7.20136859 17.2760858,7.1779755 L17.5256501,7.16322172 L17.5107245,7.41277578 C17.294145,7.39982238 17.0920958,7.33311717 16.9177083,7.22580645 C16.7462154,7.12027696 16.6014734,6.97547876 16.4959707,6.80391433 C16.3886342,6.629368 16.3219128,6.42711692 16.3089573,6.21032685 L16.558512,6.19541322 L16.5435872,6.44496732 C16.5199266,6.4437877 16.5199266,6.4437877 16.4959707,6.44354839 C16.4720148,6.4437877 16.4720148,6.4437877 16.4483542,6.44496732 L16.4334294,6.19541322 L16.6829841,6.21032685 C16.6700286,6.42711692 16.6033072,6.629368 16.4959707,6.80391433 C16.3904679,6.97547876 16.245726,7.12027696 16.0742331,7.22580645 C15.8998455,7.33311717 15.6977964,7.39982238 15.4812169,7.41277578 L15.4662913,7.16322172 L15.7158556,7.1779755 C15.7147027,7.20136859 15.7147027,7.20136859 15.7144689,7.22505022 L15.7144689,7.22656268 C15.7147027,7.25024431 15.7147027,7.25024431 15.7158556,7.2736374 Z" id="glow-copy" stroke="#E3B98F" stroke-width="0.5" opacity="0.584130131"></path>
                <ellipse id="glow" fill="#E3B98F" opacity="0.278568097" cx="8.75970696" cy="11.8709677" rx="1" ry="1"></ellipse>
                <ellipse id="glow" fill="#E3B98F" opacity="0.323285914" cx="24.7479853" cy="13.4193548" rx="1" ry="1"></ellipse>
                <ellipse id="glow" fill="#E3B98F" cx="21.9113553" cy="24" rx="1" ry="1"></ellipse>
                <g id="Group-9-Copy-3" transform="translate(10.306960, 9.806452)">
                    <path d="M2.12372433,4.91752874 L2.95257403,4.91752874 L3.0060482,5.67420304 C3.11299655,7.13350346 4.20921712,8.29553899 5.59954565,8.53875573 L5.59954565,10.8898509 L4.26269129,10.8898509 C3.96858334,10.8898509 3.72794955,11.1330676 3.72794955,11.4303325 C3.72794955,11.7275974 3.96858334,11.9708141 4.26269129,11.9708141 L8.00588348,11.9708141 C8.29999144,11.9708141 8.54062523,11.7275974 8.54062523,11.4303325 C8.54062523,11.1330676 8.29999144,10.8898509 8.00588348,10.8898509 L6.66902913,10.8898509 L6.66902913,8.53875573 C8.05935766,8.29553899 9.15557823,7.10647938 9.26252658,5.67420304 L9.31600075,4.91752874 L10.1448505,4.91752874 C11.2143339,4.91752874 12.0966578,4.02573404 12.0966578,2.94477076 C12.0966578,1.86380749 11.2143339,0.972012781 10.1448505,0.972012781 L9.61010871,0.972012781 L9.6368458,0.728796043 C9.6368458,0.566651552 9.58337162,0.431531142 9.50316036,0.323434814 C9.39621201,0.215338486 9.26252658,0.161290323 9.10210406,0.161290323 L3.16647072,0.161290323 C3.0060482,0.161290323 2.87236277,0.215338486 2.76541442,0.323434814 C2.65846607,0.431531142 2.6049919,0.593675634 2.63172898,0.728796043 L2.65846607,0.972012781 L2.12372433,0.972012781 C1.05424085,0.972012781 0.171916972,1.86380749 0.171916972,2.94477076 C0.171916972,4.02573404 1.02750376,4.91752874 2.12372433,4.91752874 Z M10.0413234,2.12954429 C10.5300423,2.12954429 10.937308,2.5395972 10.937308,3.03166069 C10.937308,3.52372419 10.5300423,3.9337771 10.0413234,3.9337771 L9.281094,3.9337771 L9.41684925,2.12954429 L10.0413234,2.12954429 L10.0413234,2.12954429 Z M2.06163,2.12954429 L2.68610413,2.12954429 L2.82185938,3.9337771 L2.06163,3.9337771 C1.57291111,3.9337771 1.16564537,3.52372419 1.16564537,3.03166069 C1.16564537,2.5395972 1.54576006,2.12954429 2.06163,2.12954429 Z" id="Shape-Copy-4" fill="#E3B98F" fill-rule="nonzero"></path>
                    <path d="M8.15016377,5.58664764 C8.09589235,6.66126906 7.17327822,7.49410066 6.08784983,7.49410066 C5.00242145,7.49410066 4.07980732,6.66126906 3.99840019,5.58664764 L3.67277167,1.26129643 L8.47579229,1.26129643 L8.15016377,5.58664764 Z" id="Path" fill="#FFFFFF"></path>
                </g>
            </g>
        </g>
    </g>
</svg>