<?xml version="1.0" encoding="UTF-8" standalone="no"?>
<svg width="32px" height="36px" viewBox="0 0 32 36" version="1.1" xmlns="http://www.w3.org/2000/svg" xmlns:xlink="http://www.w3.org/1999/xlink">
    <!-- Generator: Sketch 47.1 (45422) - http://www.bohemiancoding.com/sketch -->
    <title>Silver</title>
    <desc>Created with Sketch.</desc>
    <defs>
        <path d="M17.4805598,0.852337646 L28.3865039,7.14735013 L28.3865039,7.14735013 C29.3005795,7.67496308 29.8636974,8.65019291 29.8636974,9.70561207 L29.8636974,22.2943879 L29.8636974,22.2943879 C29.8636974,23.3498071 29.3005795,24.3250369 28.3865039,24.8526499 L17.4805598,31.1476624 L17.4805598,31.1476624 C16.5667741,31.675108 15.4410403,31.675108 14.5272546,31.1476624 L3.62131054,24.8526499 L3.62131054,24.8526499 C2.70723495,24.3250369 2.14411701,23.3498071 2.14411701,22.2943879 L2.14411701,9.70561207 L2.14411701,9.70561207 C2.14411701,8.65019291 2.70723495,7.67496308 3.62131054,7.14735013 L14.5272546,0.852337646 L14.5272546,0.852337646 C15.4410403,0.324892025 16.5667741,0.324892025 17.4805598,0.852337646 Z" id="path-1"></path>
        <filter x="-12.6%" y="-8.0%" width="125.3%" height="122.5%" filterUnits="objectBoundingBox" id="filter-2">
            <feMorphology radius="0.5" operator="dilate" in="SourceAlpha" result="shadowSpreadOuter1"></feMorphology>
            <feOffset dx="0" dy="1" in="shadowSpreadOuter1" result="shadowOffsetOuter1"></feOffset>
            <feGaussianBlur stdDeviation="0.5" in="shadowOffsetOuter1" result="shadowBlurOuter1"></feGaussianBlur>
            <feComposite in="shadowBlurOuter1" in2="SourceAlpha" operator="out" result="shadowBlurOuter1"></feComposite>
            <feColorMatrix values="0 0 0 0 0   0 0 0 0 0   0 0 0 0 0  0 0 0 0.1 0" type="matrix" in="shadowBlurOuter1"></feColorMatrix>
        </filter>
        <path d="M1.43638692,0 L5.68727443,0 L5.68727443,-1.11022302e-16 C6.23901473,-2.12375352e-16 6.68628862,0.447273889 6.68628862,0.999014192 L6.68628862,8.08695652 L4.31825498,9.87284254 L4.31825498,8.08695652 L1.43638692,8.08695652 L1.43638692,8.08695652 C0.739188147,8.08695652 0.173996867,7.52176524 0.173996867,6.82456647 C0.173996867,6.55060327 0.263120479,6.28407563 0.427914,6.06521739 L1.64856981,4.44409427 L1.64856981,4.44409427 C1.82718467,4.20688025 1.82718467,3.88007627 1.64856981,3.64286225 L0.427914,2.02173913 L0.427914,2.02173913 C0.00853708634,1.46477491 0.120073634,0.673294045 0.67703785,0.253917132 C0.895896092,0.0891236119 1.16242373,-3.93762987e-16 1.43638692,-4.4408921e-16 Z" id="path-3"></path>
        <path d="M1.43638692,0 L5.68727443,0 L5.68727443,-1.11022302e-16 C6.23901473,-2.12375352e-16 6.68628862,0.447273889 6.68628862,0.999014192 L6.68628862,8.08695652 L4.31825498,9.87284254 L4.31825498,8.08695652 L1.43638692,8.08695652 L1.43638692,8.08695652 C0.739188147,8.08695652 0.173996867,7.52176524 0.173996867,6.82456647 C0.173996867,6.55060327 0.263120479,6.28407563 0.427914,6.06521739 L1.64856981,4.44409427 L1.64856981,4.44409427 C1.82718467,4.20688025 1.82718467,3.88007627 1.64856981,3.64286225 L0.427914,2.02173913 L0.427914,2.02173913 C0.00853708634,1.46477491 0.120073634,0.673294045 0.67703785,0.253917132 C0.895896092,0.0891236119 1.16242373,-3.93762987e-16 1.43638692,-4.4408921e-16 Z" id="path-4"></path>
        <path d="M1.43638692,0 L5.68727443,0 L5.68727443,0 C6.23901473,-1.01353049e-16 6.68628862,0.447273889 6.68628862,0.999014192 L6.68628862,8.08695652 L4.31825498,9.87284254 L4.31825498,8.08695652 L1.43638692,8.08695652 L1.43638692,8.08695652 C0.739188147,8.08695652 0.173996867,7.52176524 0.173996867,6.82456647 C0.173996867,6.55060327 0.263120479,6.28407563 0.427914,6.06521739 L1.64856981,4.44409427 L1.64856981,4.44409427 C1.82718467,4.20688025 1.82718467,3.88007627 1.64856981,3.64286225 L0.427914,2.02173913 L0.427914,2.02173913 C0.00853708634,1.46477491 0.120073634,0.673294045 0.67703785,0.253917132 C0.895896092,0.0891236119 1.16242373,2.72370828e-16 1.43638692,2.22044605e-16 Z" id="path-6"></path>
        <path d="M1.43638692,0 L5.68727443,0 L5.68727443,0 C6.23901473,-1.01353049e-16 6.68628862,0.447273889 6.68628862,0.999014192 L6.68628862,8.08695652 L4.31825498,9.87284254 L4.31825498,8.08695652 L1.43638692,8.08695652 L1.43638692,8.08695652 C0.739188147,8.08695652 0.173996867,7.52176524 0.173996867,6.82456647 C0.173996867,6.55060327 0.263120479,6.28407563 0.427914,6.06521739 L1.64856981,4.44409427 L1.64856981,4.44409427 C1.82718467,4.20688025 1.82718467,3.88007627 1.64856981,3.64286225 L0.427914,2.02173913 L0.427914,2.02173913 C0.00853708634,1.46477491 0.120073634,0.673294045 0.67703785,0.253917132 C0.895896092,0.0891236119 1.16242373,2.72370828e-16 1.43638692,2.22044605e-16 Z" id="path-7"></path>
    </defs>
    <g id="Profile" stroke="none" stroke-width="1" fill="none" fill-rule="evenodd">
        <g id="3A-My-Profile-History" transform="translate(-127.000000, -739.000000)">
            <g id="Silver" transform="translate(127.000000, 740.000000)">
                <g id="Polygon-Copy-7">
                    <use fill="black" fill-opacity="1" filter="url(#filter-2)" xlink:href="#path-1"></use>
                    <use fill="#FFFFFF" fill-rule="evenodd" xlink:href="#path-1"></use>
                    <path stroke="#C6CCD0" stroke-width="0.984615385" d="M17.2344511,1.27871464 C16.472963,0.839176618 15.5348514,0.839176618 14.7733634,1.27871464 L3.86741931,7.57372712 C3.10568965,8.01340458 2.6364247,8.8260961 2.6364247,9.70561207 L2.6364247,22.2943879 C2.6364247,23.1739039 3.10568965,23.9865954 3.86741931,24.4262729 L14.7733634,30.7212854 C15.5348514,31.1608234 16.472963,31.1608234 17.2344511,30.7212854 L28.1403951,24.4262729 C28.9021248,23.9865954 29.3713897,23.1739039 29.3713897,22.2943879 L29.3713897,9.70561207 C29.3713897,8.8260961 28.9021248,8.01340458 28.1403951,7.57372712 L17.2344511,1.27871464 Z"></path>
                </g>
                <path d="M17.2552789,3.74285917 L26.1069467,8.85212425 L26.1069467,8.85212425 C26.8525456,9.28249089 27.3118732,10.0779725 27.3118732,10.9388634 L27.3118732,21.1563747 L27.3118732,21.1563747 C27.3118732,22.0172656 26.8525456,22.8127472 26.1069467,23.2431138 L17.2552789,28.3523789 L17.2552789,28.3523789 C16.5099165,28.7826091 15.5916708,28.7826091 14.8463084,28.3523789 L5.99464061,23.2431138 L5.99464061,23.2431138 C5.24904169,22.8127472 4.78971411,22.0172656 4.78971411,21.1563747 L4.78971411,10.9388634 L4.78971411,10.9388634 C4.78971411,10.0779725 5.24904169,9.28249089 5.99464061,8.85212425 L14.8463084,3.74285917 L14.8463084,3.74285917 C15.5916708,3.31262901 16.5099165,3.31262901 17.2552789,3.74285917 Z" id="Polygon-Copy-8" stroke="#C6CCD0" stroke-width="0.803137255"></path>
                <g id="Group-2-Copy-6" transform="translate(24.888889, 11.682540)">
                    <g id="Rectangle-2-Copy-3">
                        <use fill="#FFFFFF" fill-rule="evenodd" xlink:href="#path-3"></use>
                        <path stroke="#C6CCD0" stroke-width="0.984615385" d="M4.81056267,8.88494493 L6.19398093,7.84162051 L6.19398093,0.999014192 C6.19398093,0.71916792 5.9671207,0.492307692 5.68727443,0.492307692 L1.43638692,0.492307692 C1.26926407,0.492307692 1.10667706,0.54667482 0.973169294,0.647202057 C0.633410344,0.90303009 0.565370891,1.38584874 0.821198924,1.72560769 L2.04185474,3.34673081 C2.35249995,3.75929111 2.35249995,4.32766541 2.04185474,4.74022571 L0.821198924,6.36134884 C0.720671688,6.4948566 0.66630456,6.65744361 0.66630456,6.82456647 C0.66630456,7.24987121 1.01108218,7.59464883 1.43638692,7.59464883 L4.81056267,7.59464883 L4.81056267,8.88494493 Z"></path>
                    </g>
                    <g id="Group-18">
                        <mask id="mask-5" fill="white">
                            <use xlink:href="#path-4"></use>
                        </mask>
                        <g id="Rectangle-2-Copy-5"></g>
                        <path d="M-0.00781440781,5.6767767 L0.169005456,5.5 L7.10210285,12.4314047 L6.92528298,12.6081814 L-0.00781440781,5.6767767 Z M-0.00781440781,6.6767767 L0.169005456,6.5 L7.10210285,13.4314047 L6.92528298,13.6081814 L-0.00781440781,6.6767767 Z M-0.00781440781,4.6767767 L0.169005456,4.5 L7.10210285,11.4314047 L6.92528298,11.6081814 L-0.00781440781,4.6767767 Z M-0.00781440781,3.6767767 L0.169005456,3.5 L7.10210285,10.4314047 L6.92528298,10.6081814 L-0.00781440781,3.6767767 Z M-0.00781440781,2.6767767 L0.169005456,2.5 L7.10210285,9.43140474 L6.92528298,9.60818143 L-0.00781440781,2.6767767 Z M-0.00781440781,1.6767767 L0.169005456,1.5 L7.10210285,8.43140474 L6.92528298,8.60818143 L-0.00781440781,1.6767767 Z M-0.00781440781,0.676776695 L0.169005456,0.5 L7.10210285,7.43140474 L6.92528298,7.60818143 L-0.00781440781,0.676776695 Z M-0.00781440781,-0.323223305 L0.169005456,-0.5 L7.10210285,6.43140474 L6.92528298,6.60818143 L-0.00781440781,-0.323223305 Z M-0.00781440781,-1.3232233 L0.169005456,-1.5 L7.10210285,5.43140474 L6.92528298,5.60818143 L-0.00781440781,-1.3232233 Z M-0.00781440781,-2.3232233 L0.169005456,-2.5 L7.10210285,4.43140474 L6.92528298,4.60818143 L-0.00781440781,-2.3232233 Z M-0.00781440781,-3.3232233 L0.169005456,-3.5 L7.10210285,3.43140474 L6.92528298,3.60818143 L-0.00781440781,-3.3232233 Z M-0.00781440781,-4.3232233 L0.169005456,-4.5 L7.10210285,2.43140474 L6.92528298,2.60818143 L-0.00781440781,-4.3232233 Z M-0.00781440781,-5.3232233 L0.169005456,-5.5 L7.10210285,1.43140474 L6.92528298,1.60818143 L-0.00781440781,-5.3232233 Z" id="Combined-Shape" fill="#C6CCD0" fill-rule="nonzero" mask="url(#mask-5)"></path>
                    </g>
                </g>
                <g id="Group-2-Copy-7" transform="translate(4.001832, 16.682540) scale(-1, 1) translate(-4.001832, -16.682540) translate(0.501832, 11.682540)">
                    <g id="Rectangle-2-Copy-3">
                        <use fill="#FFFFFF" fill-rule="evenodd" xlink:href="#path-6"></use>
                        <path stroke="#C6CCD0" stroke-width="0.984615385" d="M4.81056267,8.88494493 L6.19398093,7.84162051 L6.19398093,0.999014192 C6.19398093,0.71916792 5.9671207,0.492307692 5.68727443,0.492307692 L1.43638692,0.492307692 C1.26926407,0.492307692 1.10667706,0.54667482 0.973169294,0.647202057 C0.633410344,0.90303009 0.565370891,1.38584874 0.821198924,1.72560769 L2.04185474,3.34673081 C2.35249995,3.75929111 2.35249995,4.32766541 2.04185474,4.74022571 L0.821198924,6.36134884 C0.720671688,6.4948566 0.66630456,6.65744361 0.66630456,6.82456647 C0.66630456,7.24987121 1.01108218,7.59464883 1.43638692,7.59464883 L4.81056267,7.59464883 L4.81056267,8.88494493 Z"></path>
                    </g>
                    <g id="Group-18">
                        <mask id="mask-8" fill="white">
                            <use xlink:href="#path-7"></use>
                        </mask>
                        <g id="Rectangle-2-Copy-5"></g>
                        <path d="M-0.00781440781,5.6767767 L0.169005456,5.5 L7.10210285,12.4314047 L6.92528298,12.6081814 L-0.00781440781,5.6767767 Z M-0.00781440781,6.6767767 L0.169005456,6.5 L7.10210285,13.4314047 L6.92528298,13.6081814 L-0.00781440781,6.6767767 Z M-0.00781440781,4.6767767 L0.169005456,4.5 L7.10210285,11.4314047 L6.92528298,11.6081814 L-0.00781440781,4.6767767 Z M-0.00781440781,3.6767767 L0.169005456,3.5 L7.10210285,10.4314047 L6.92528298,10.6081814 L-0.00781440781,3.6767767 Z M-0.00781440781,2.6767767 L0.169005456,2.5 L7.10210285,9.43140474 L6.92528298,9.60818143 L-0.00781440781,2.6767767 Z M-0.00781440781,1.6767767 L0.169005456,1.5 L7.10210285,8.43140474 L6.92528298,8.60818143 L-0.00781440781,1.6767767 Z M-0.00781440781,0.676776695 L0.169005456,0.5 L7.10210285,7.43140474 L6.92528298,7.60818143 L-0.00781440781,0.676776695 Z M-0.00781440781,-0.323223305 L0.169005456,-0.5 L7.10210285,6.43140474 L6.92528298,6.60818143 L-0.00781440781,-0.323223305 Z M-0.00781440781,-1.3232233 L0.169005456,-1.5 L7.10210285,5.43140474 L6.92528298,5.60818143 L-0.00781440781,-1.3232233 Z M-0.00781440781,-2.3232233 L0.169005456,-2.5 L7.10210285,4.43140474 L6.92528298,4.60818143 L-0.00781440781,-2.3232233 Z M-0.00781440781,-3.3232233 L0.169005456,-3.5 L7.10210285,3.43140474 L6.92528298,3.60818143 L-0.00781440781,-3.3232233 Z M-0.00781440781,-4.3232233 L0.169005456,-4.5 L7.10210285,2.43140474 L6.92528298,2.60818143 L-0.00781440781,-4.3232233 Z M-0.00781440781,-5.3232233 L0.169005456,-5.5 L7.10210285,1.43140474 L6.92528298,1.60818143 L-0.00781440781,-5.3232233 Z" id="Combined-Shape" fill="#C6CCD0" fill-rule="nonzero" mask="url(#mask-8)"></path>
                    </g>
                </g>
                <path d="M20.5860491,9.44846133 L20.3361786,9.45650655 L20.3442271,9.20663614 C20.606449,9.21508252 20.8518708,9.28991289 21.0642395,9.41487437 C21.2873895,9.54617976 21.4740452,9.73283547 21.6053506,9.95598546 C21.730312,10.1683541 21.8051424,10.4137758 21.8135888,10.6759977 L21.5637184,10.6840462 L21.5717648,10.4341758 C21.5885049,10.4346251 21.5885049,10.4346251 21.6053506,10.4347156 C21.6221969,10.4346251 21.6221969,10.4346251 21.6389375,10.4341758 L21.6469827,10.6840463 L21.3971123,10.6759978 C21.4055587,10.4137759 21.4803891,10.1683541 21.6053506,9.95598546 C21.7366559,9.73283547 21.9233117,9.54617976 22.1464617,9.41487436 C22.3588303,9.28991291 22.604252,9.21508254 22.8664739,9.20663615 L22.8745224,9.45650655 L22.624652,9.44846011 C22.6251013,9.43172002 22.6251013,9.43172002 22.6251918,9.41487436 C22.6251013,9.39802798 22.6251013,9.39802798 22.624652,9.3812874 L22.8745225,9.37324218 L22.866474,9.62311259 C22.6042521,9.61466621 22.3588303,9.53983584 22.1464617,9.41487436 C21.9233117,9.28356897 21.7366559,9.09691326 21.6053506,8.87376327 C21.4803891,8.66139463 21.4055587,8.41597292 21.3971123,8.15375103 L21.6469827,8.14570249 L21.6389363,8.39557297 C21.6221962,8.39512363 21.6221962,8.39512363 21.6053506,8.3950331 C21.5885042,8.39512362 21.5885042,8.39512362 21.5717636,8.3955729 L21.5637184,8.14570238 L21.8135888,8.15375091 C21.8051424,8.41597284 21.730312,8.6613946 21.6053506,8.87376327 C21.4740452,9.09691326 21.2873895,9.28356897 21.0642395,9.41487437 C20.8518708,9.53983582 20.6064491,9.61466619 20.3442272,9.62311258 L20.3361787,9.37324218 L20.5860492,9.38128862 C20.5855998,9.39802871 20.5855998,9.39802871 20.5855093,9.41487436 C20.5855998,9.43172075 20.5855998,9.43172075 20.5860491,9.44846133 Z" id="glow-copy-9" stroke="#C6CCD0" stroke-width="0.5" opacity="0.120918843" transform="translate(21.605351, 9.414874) rotate(-315.000000) translate(-21.605351, -9.414874) "></path>
                <path d="M8.63492063,19.3015873 C8.63492063,19.2904426 8.63510005,19.2793397 8.63545615,19.2682816 C9.17003327,19.2510624 9.60026875,18.8208268 9.6174879,18.2862497 C9.628546,18.2858937 9.63964883,18.2857143 9.65079365,18.2857143 C9.66193839,18.2857143 9.67304122,18.2858937 9.6840994,18.2862498 C9.7013186,18.8208269 10.1315541,19.2510624 10.6661312,19.2682816 C10.6664873,19.2793397 10.6666667,19.2904425 10.6666667,19.3015873 C10.6666667,19.312732 10.6664873,19.3238349 10.6661312,19.3348931 C10.131554,19.3521122 9.70131855,19.7823478 9.6840994,20.3169249 C9.6730413,20.3172809 9.66193847,20.3174603 9.65079365,20.3174603 C9.63964891,20.3174603 9.62854608,20.3172809 9.6174879,20.3169248 C9.6002687,19.7823477 9.1700332,19.3521122 8.63545607,19.3348931 C8.63510002,19.3238349 8.63492063,19.3127321 8.63492063,19.3015873 Z" id="glow-copy-10" fill="#C6CCD0" opacity="0.223414179"></path>
                <path d="M13.9656764,24.4276213 L13.7161223,24.4425462 L13.7310471,24.1929921 C13.9472333,24.2059213 14.1487675,24.2730381 14.3222597,24.3809524 C14.4875323,24.4837539 14.6273572,24.6235788 14.7301587,24.7888514 C14.838073,24.9623437 14.9051898,25.1638778 14.918119,25.380064 L14.6685649,25.3949888 L14.6834898,25.1454347 C14.7066789,25.1465908 14.7066789,25.1465908 14.7301587,25.1468254 C14.7536385,25.1465908 14.7536385,25.1465908 14.7768277,25.1454347 L14.7917525,25.3949888 L14.5421984,25.380064 C14.5551277,25.1638778 14.6222444,24.9623437 14.7301587,24.7888514 C14.8329603,24.6235788 14.9727851,24.4837539 15.1380577,24.3809524 C15.31155,24.2730381 15.5130842,24.2059213 15.7292703,24.1929921 L15.7441952,24.4425462 L15.4946411,24.4276213 C15.4957972,24.4044322 15.4957972,24.4044322 15.4960317,24.3809524 C15.4957972,24.3574726 15.4957972,24.3574726 15.4946411,24.3342834 L15.7441952,24.3193586 L15.7292703,24.5689127 C15.5130842,24.5559834 15.31155,24.4888667 15.1380577,24.3809524 C14.9727851,24.2781508 14.8329603,24.138326 14.7301587,23.9730534 C14.6222444,23.7995611 14.5551277,23.5980269 14.5421984,23.3818408 L14.7917525,23.3669159 L14.7768277,23.61647 C14.7536385,23.6153139 14.7536385,23.6153139 14.7301587,23.6150794 C14.7066789,23.6153139 14.7066789,23.6153139 14.6834898,23.61647 L14.6685649,23.3669159 L14.918119,23.3818408 C14.9051898,23.5980269 14.838073,23.7995611 14.7301587,23.9730534 C14.6273572,24.138326 14.4875323,24.2781508 14.3222597,24.3809524 C14.1487675,24.4888667 13.9472333,24.5559834 13.7310471,24.5689127 L13.7161223,24.3193586 L13.9656764,24.3342834 C13.9645203,24.3574726 13.9645203,24.3574726 13.9642857,24.3809524 C13.9645203,24.4044322 13.9645203,24.4044322 13.9656764,24.4276213 Z" id="glow-copy-11" stroke="#C6CCD0" stroke-width="0.5"></path>
                <path d="M15.4894859,7.15778007 L15.2399318,7.17270493 L15.2548567,6.92315083 C15.4710428,6.93608007 15.672577,7.00319683 15.8460692,7.11111111 C16.0113418,7.21391266 16.1511667,7.35373752 16.2539683,7.51901012 C16.3618825,7.69250238 16.4289993,7.89403657 16.4419285,8.11022269 L16.1923744,8.12514755 L16.2072993,7.87559345 C16.2304885,7.87674957 16.2304885,7.87674957 16.2539683,7.87698413 C16.277448,7.87674957 16.277448,7.87674957 16.3006372,7.87559345 L16.3155621,8.12514755 L16.066008,8.11022269 C16.0789372,7.89403657 16.146054,7.69250238 16.2539683,7.51901012 C16.3567698,7.35373752 16.4965947,7.21391266 16.6618673,7.11111111 C16.8353595,7.00319683 17.0368937,6.93608007 17.2530798,6.92315083 L17.2680047,7.17270493 L17.0184506,7.15778007 C17.0196067,7.1345909 17.0196067,7.1345909 17.0198413,7.11111111 C17.0196067,7.08763132 17.0196067,7.08763132 17.0184506,7.06444215 L17.2680047,7.0495173 L17.2530798,7.2990714 C17.0368937,7.28614215 16.8353595,7.21902539 16.6618673,7.11111111 C16.4965947,7.00830956 16.3567698,6.8684847 16.2539683,6.70321211 C16.146054,6.52971984 16.0789372,6.32818565 16.066008,6.11199953 L16.3155621,6.09707467 L16.3006372,6.34662877 C16.277448,6.34547265 16.277448,6.34547265 16.2539683,6.3452381 C16.2304885,6.34547265 16.2304885,6.34547265 16.2072993,6.34662877 L16.1923744,6.09707467 L16.4419285,6.11199953 C16.4289993,6.32818565 16.3618825,6.52971984 16.2539683,6.70321211 C16.1511667,6.8684847 16.0113418,7.00830956 15.8460692,7.11111111 C15.672577,7.21902539 15.4710428,7.28614215 15.2548567,7.2990714 L15.2399318,7.0495173 L15.4894859,7.06444215 C15.4883298,7.08763132 15.4883298,7.08763132 15.4880952,7.11111111 C15.4883298,7.1345909 15.4883298,7.1345909 15.4894859,7.15778007 Z" id="glow-copy-12" stroke="#C6CCD0" stroke-width="0.5" opacity="0.584130131"></path>
                <circle id="glow-copy-13" fill="#C6CCD0" opacity="0.104652519" cx="8.63492063" cy="11.6825397" r="1"></circle>
                <circle id="glow-copy-14" fill="#C6CCD0" opacity="0.323285914" cx="24.3809524" cy="13.2063492" r="1"></circle>
                <circle id="glow-copy-15" fill="#C6CCD0" cx="21.5873016" cy="23.6190476" r="1"></circle>
                <g id="Group-9-Copy-2" transform="translate(10.158730, 10.158730)">
                    <path d="M2.09154669,4.83947273 L2.90783806,4.83947273 L2.96050202,5.58413632 C3.06582994,7.02027325 4.1454411,8.16386377 5.51470405,8.40321992 L5.51470405,10.7169961 L4.19810506,10.7169961 C3.90845329,10.7169961 3.67146547,10.9563522 3.67146547,11.2488986 C3.67146547,11.5414451 3.90845329,11.7808012 4.19810506,11.7808012 L7.88458222,11.7808012 C8.174234,11.7808012 8.41122181,11.5414451 8.41122181,11.2488986 C8.41122181,10.9563522 8.174234,10.7169961 7.88458222,10.7169961 L6.56798324,10.7169961 L6.56798324,8.40321992 C7.93724618,8.16386377 9.01685735,6.99367812 9.12218527,5.58413632 L9.17484923,4.83947273 L9.9911406,4.83947273 C11.0444198,4.83947273 11.9133751,3.9618335 11.9133751,2.89802837 C11.9133751,1.83422324 11.0444198,0.956584007 9.9911406,0.956584007 L9.464501,0.956584007 L9.49083298,0.717227852 C9.49083298,0.557657083 9.43816902,0.424681441 9.35917308,0.318300928 C9.25384516,0.211920415 9.12218527,0.158730159 8.96419339,0.158730159 L3.1184939,0.158730159 C2.96050202,0.158730159 2.82884212,0.211920415 2.7235142,0.318300928 C2.61818628,0.424681441 2.56552232,0.584252211 2.5918543,0.717227852 L2.61818628,0.956584007 L2.09154669,0.956584007 C1.0382675,0.956584007 0.169312169,1.83422324 0.169312169,2.89802837 C0.169312169,3.9618335 1.01193552,4.83947273 2.09154669,4.83947273 Z M9.88918212,2.095742 C10.3704962,2.095742 10.7715912,2.49928613 10.7715912,2.98353909 C10.7715912,3.46779206 10.3704962,3.87133619 9.88918212,3.87133619 L9.14047136,3.87133619 L9.27416971,2.095742 L9.88918212,2.095742 L9.88918212,2.095742 Z M2.03039318,2.095742 L2.64540559,2.095742 L2.77910393,3.87133619 L2.03039318,3.87133619 C1.54907913,3.87133619 1.14798408,3.46779206 1.14798408,2.98353909 C1.14798408,2.49928613 1.52233946,2.095742 2.03039318,2.095742 Z" id="Shape-Copy-4" fill="#C6CCD0" fill-rule="nonzero"></path>
                    <path d="M8.02667644,5.49797069 C7.97322732,6.55553463 7.06459219,7.37514668 5.99560969,7.37514668 C4.92662718,7.37514668 4.01799206,6.55553463 3.93781837,5.49797069 L3.61712362,1.24127585 L8.34737119,1.24127585 L8.02667644,5.49797069 Z" id="Path" fill="#FFFFFF"></path>
                </g>
            </g>
        </g>
    </g>
</svg>