<svg xmlns="http://www.w3.org/2000/svg" width="72" height="72" viewBox="0 0 72 72">
  <g fill="none" transform="translate(16 16)">
    <path fill="#3CAEE6" d="M20,0 C8.972,0 0,8.972 0,20 C0,31.028 8.972,40 20,40 C31.028,40 40,31.028 40,20 C40,8.972 31.028,0 20,0 Z M23.9942223,34.588 C23.8897778,34.588 23.8044444,34.5026667 23.8044444,34.3982222 L23.8044444,33.1084444 C23.8044444,33.004 23.8897778,32.9186667 23.9942223,32.9186667 L25.284,32.9186667 C25.3884444,32.9186667 25.4737778,33.004 25.4737778,33.1084444 L25.4737778,34.3982222 C25.4737778,34.5026667 25.3884444,34.588 25.284,34.588 L23.9942223,34.588 Z M28.2368889,9.73377775 L25.1977778,9.73377775 C24.8871111,9.73377775 24.6342223,9.48088892 24.6342223,9.17022225 L24.6342223,7.50044444 C25.4742223,7.47955556 26.1515556,6.79377778 26.1515556,5.94888889 L26.1515556,4.65911111 C26.1515556,3.80177778 25.4537778,3.104 24.596,3.104 L23.3062223,3.104 C22.4484444,3.104 21.7506667,3.80177778 21.7506667,4.65911111 L21.7506667,5.94888889 C21.7506667,6.79333333 22.4284444,7.47955556 23.268,7.50044444 L23.268,9.17022225 C23.268,10.2337778 24.1333333,11.0995556 25.1973333,11.0995556 L28.2364444,11.0995556 C28.5471111,11.0995556 28.8,11.3524444 28.8,11.6631111 L28.8,18.1977778 C28.8,19.2617778 29.6653333,20.1271111 30.7293333,20.1271111 L32.2795556,20.1271111 C32.2635556,20.2573333 32.2533333,20.3893333 32.2533333,20.5235556 L32.2533333,23.2573333 C31.4124444,23.2768889 30.7337778,23.9635556 30.7337778,24.8088889 L30.7337778,26.0986667 C30.7337778,26.956 31.4315556,27.6537778 32.2888889,27.6537778 L33.5786667,27.6537778 C34.436,27.6537778 35.1337778,26.956 35.1337778,26.0986667 L35.1337778,24.8088889 C35.1337778,23.9653333 34.4573333,23.2795556 33.6186667,23.2577778 L33.6186667,20.5235556 C33.6186667,20.3871111 33.6337778,20.2546667 33.6626667,20.1271111 L37.688,20.1271111 C37.6324444,27.9737778 32.4448889,34.6217778 25.3204444,36.8737778 L25.3204444,35.9506667 C26.1604444,35.9302223 26.8382223,35.244 26.8382223,34.3991111 L26.8382223,33.1093333 C26.8382223,32.252 26.1404444,31.5542223 25.2831111,31.5542223 L23.9933333,31.5542223 C23.136,31.5542223 22.4382223,32.252 22.4382223,33.1093333 L22.4382223,34.3991111 C22.4382223,35.2435556 23.1155556,35.9297778 23.9551111,35.9506667 L23.9551111,37.2417778 C22.6822223,37.5337778 21.3595556,37.6933333 19.9995556,37.6933333 C10.2444444,37.6924444 2.30755556,29.7555556 2.30755556,20 C2.30755556,18.5866667 2.47911111,17.2128889 2.79377778,15.8946667 L8.78844442,15.8946667 L8.78844442,19.764 C8.78844442,20.8306667 9.65644442,21.6986667 10.7231111,21.6986667 L11.9826667,21.6986667 C12.0231111,22.5204444 12.6986667,23.1782223 13.5302223,23.1782223 L14.82,23.1782223 C15.6773333,23.1782223 16.3751111,22.4804444 16.3751111,21.6226667 L16.3751111,20.3328889 C16.3751111,19.4751111 15.6773333,18.7773333 14.82,18.7773333 L13.5302223,18.7773333 C12.6728889,18.7773333 11.9751111,19.4751111 11.9751111,20.3328889 L10.7231111,20.3328889 C10.4093333,20.3328889 10.1542223,20.0777778 10.1542223,19.764 L10.1542223,10.6595556 C10.1542223,10.3457778 10.4093333,10.0906667 10.7231111,10.0906667 L12.5057778,10.0906667 L12.5057778,10.1284444 C12.5057778,10.9862223 13.2035556,11.684 14.0608889,11.684 L15.3506667,11.684 C16.208,11.684 16.9057778,10.9862223 16.9057778,10.1284444 L16.9057778,8.83866667 C16.9057778,7.98088889 16.208,7.28311111 15.3506667,7.28311111 L14.0608889,7.28311111 C13.2422223,7.28311111 12.5764444,7.92088889 12.5173333,8.72488892 L10.7231111,8.72488892 C9.65644442,8.72488892 8.78844442,9.59288892 8.78844442,10.6595556 L8.78844442,14.5288889 L3.17733333,14.5288889 C5.48755556,7.44355556 12.1537778,2.30755556 20,2.30755556 C29.3386667,2.30755556 37.0053333,9.58222225 37.644,18.7613333 L30.7297778,18.7613333 C30.4191111,18.7613333 30.1662223,18.5084444 30.1662223,18.1973333 L30.1662223,11.6626667 C30.1662223,10.5991111 29.3008889,9.73377775 28.2368889,9.73377775 Z M23.1164444,5.94844444 L23.1164444,4.65866667 C23.1164444,4.55422223 23.2017778,4.46888889 23.3062223,4.46888889 L24.596,4.46888889 C24.7008889,4.46888889 24.7857778,4.55422223 24.7857778,4.65866667 L24.7857778,5.94844444 C24.7857778,6.05288889 24.7004444,6.13822222 24.596,6.13822222 L23.3062223,6.13822222 C23.2017778,6.13822222 23.1164444,6.05288889 23.1164444,5.94844444 Z M33.5795556,24.6191111 C33.684,24.6191111 33.7693333,24.7044444 33.7693333,24.8088889 L33.7693333,26.0986667 C33.7693333,26.2031111 33.684,26.2884444 33.5795556,26.2884444 L32.2897777,26.2884444 C32.1853333,26.2884444 32.1,26.2031111 32.1,26.0986667 L32.1,24.8088889 C32.1,24.7044444 32.1853333,24.6191111 32.2897777,24.6191111 L33.5795556,24.6191111 Z M13.3404444,21.6226667 L13.3404444,20.3328889 C13.3404444,20.228 13.4257778,20.1431111 13.5302223,20.1431111 L14.82,20.1431111 C14.9244444,20.1431111 15.0097778,20.2284444 15.0097778,20.3328889 L15.0097778,21.6226667 C15.0097778,21.7275556 14.9244444,21.8124444 14.82,21.8124444 L13.5302223,21.8124444 C13.4257778,21.8124444 13.3404444,21.7271111 13.3404444,21.6226667 Z M13.8715556,10.1284444 L13.8715556,8.83866667 C13.8715556,8.73377775 13.9568889,8.64888892 14.0613333,8.64888892 L15.3511111,8.64888892 C15.4555556,8.64888892 15.5408889,8.73422225 15.5408889,8.83866667 L15.5408889,10.1284444 C15.5408889,10.2333333 15.4555556,10.3182222 15.3511111,10.3182222 L14.0613333,10.3182222 C13.9564444,10.3182222 13.8715556,10.2333333 13.8715556,10.1284444 Z"/>
    <path fill="#3CE6DD" d="M19.3928889,12.4351111 C18.5351111,12.4351111 17.8373333,13.1328889 17.8373333,13.9902223 L17.8373333,15.28 C17.8373333,16.1115556 18.4951111,16.7871111 19.3168889,16.8275556 L19.3168889,18.5804444 C19.3168889,20.212 20.6444444,21.5391111 22.2755556,21.5391111 L22.3875556,21.5391111 L22.3875556,21.548 L22.3875556,23.7004444 C22.3875556,24.3493333 21.8595556,24.8773333 21.2106667,24.8773333 L19.1,24.8773333 L13.5111111,24.8773333 C11.8795556,24.8773333 10.5524444,26.2048889 10.5524444,27.836 L10.5524444,29.7324444 L10.4386667,29.7324444 C9.58088892,29.7324444 8.88311108,30.4302222 8.88311108,31.2875556 L8.88311108,32.5777778 C8.88311108,33.4351111 9.58088892,34.1328889 10.4386667,34.1328889 L11.7284444,34.1328889 C12.5862223,34.1328889 13.284,33.4351111 13.284,32.5777778 L13.284,31.288 C13.284,31.132 13.2537778,30.9844444 13.2111111,30.8422222 C13.036,30.2617778 12.5346667,29.828 11.9182222,29.752 L11.9182222,27.836 C11.9182222,26.9577777 12.6328889,26.2426667 13.5115556,26.2426667 L17.7524444,26.2426667 L18.2155556,26.2426667 L18.2155556,28.2951111 C17.3755556,28.316 16.6982223,29.0017778 16.6982223,29.8466667 L16.6982223,31.1364444 C16.6982223,31.9937777 17.396,32.6915556 18.2537778,32.6915556 L19.5435556,32.6915556 C20.4013333,32.6915556 21.0991111,31.9937777 21.0991111,31.1364444 L21.0991111,29.8466667 C21.0991111,29.0022223 20.4213333,28.316 19.5817778,28.2951111 L19.5817778,26.2426667 L21.212,26.2426667 C22.6137778,26.2426667 23.7542223,25.1017778 23.7542223,23.7 L23.7542223,21.5386667 L24.3671111,21.5386667 L25.9182222,21.5386667 C26.7964444,21.5386667 27.5115556,22.2533333 27.5115556,23.132 L27.5115556,25.8631111 L27.44,25.8631111 L27.3222222,25.8631111 C26.4648889,25.8631111 25.7671111,26.5608889 25.7671111,27.4182222 L25.7671111,28.708 C25.7671111,29.5653333 26.4648889,30.2631111 27.3222222,30.2631111 L28.612,30.2631111 C29.4693333,30.2631111 30.1671111,29.5653333 30.1671111,28.708 L30.1671111,27.4182222 C30.1671111,26.6515556 29.6084444,26.0164444 28.8773333,25.8897778 L28.8773333,23.1315556 C28.8773333,21.5 27.5497778,20.1728889 25.9186667,20.1728889 L23.3973333,20.1728889 L22.2773333,20.1728889 C21.3991111,20.1728889 20.684,19.4582222 20.684,18.5795556 L20.684,16.8346667 C20.7928889,16.8346667 20.8991111,16.8231111 21.0017778,16.8013333 C21.7075556,16.6542223 22.2391111,16.028 22.2391111,15.2791111 L22.2391111,13.9893333 C22.2391111,13.132 21.5413333,12.4342222 20.6835556,12.4342222 L19.3928889,12.4342222 L19.3928889,12.4351111 Z M11.9182222,31.288 L11.9182222,32.5777777 C11.9182222,32.6822222 11.8328889,32.7675556 11.7284444,32.7675556 L10.4386667,32.7675556 C10.3337777,32.7675556 10.2488889,32.6822222 10.2488889,32.5777777 L10.2488889,31.288 C10.2488889,31.1835556 10.3342222,31.0982222 10.4386667,31.0982222 L11.7284444,31.0982222 C11.8328889,31.0982222 11.9182222,31.1835556 11.9182222,31.288 Z M19.7324444,29.8466667 L19.7324444,31.1364444 C19.7324444,31.2408889 19.6471111,31.3262223 19.5426667,31.3262223 L18.2528889,31.3262223 C18.148,31.3262223 18.0631111,31.2408889 18.0631111,31.1364444 L18.0631111,29.8466667 C18.0631111,29.7422223 18.1484444,29.6568889 18.2528889,29.6568889 L19.5426667,29.6568889 C19.6475556,29.6568889 19.7324444,29.7422223 19.7324444,29.8466667 Z M28.8004444,28.7084444 C28.8004444,28.8128889 28.7151111,28.8982223 28.6106667,28.8982223 L27.3208889,28.8982223 C27.2164444,28.8982223 27.1311111,28.8128889 27.1311111,28.7084444 L27.1311111,27.4186667 C27.1311111,27.3142223 27.2164444,27.2288889 27.3208889,27.2288889 L28.6106667,27.2288889 C28.7151111,27.2288889 28.8004444,27.3142223 28.8004444,27.4186667 L28.8004444,28.7084444 Z M20.8724444,13.9902223 L20.8724444,15.28 C20.8724444,15.3844444 20.7871111,15.4697777 20.6826667,15.4697777 L19.3928889,15.4697777 C19.288,15.4697777 19.2031111,15.3844444 19.2031111,15.28 L19.2031111,13.9902223 C19.2031111,13.8857777 19.2884444,13.8004444 19.3928889,13.8004444 L20.6826667,13.8004444 C20.7875556,13.8004444 20.8724444,13.8857777 20.8724444,13.9902223 Z"/>
  </g>
</svg>
