<?xml version="1.0" encoding="UTF-8" standalone="no"?>
<svg width="32px" height="36px" viewBox="0 0 32 36" version="1.1" xmlns="http://www.w3.org/2000/svg" xmlns:xlink="http://www.w3.org/1999/xlink">
    <!-- Generator: Sketch 47.1 (45422) - http://www.bohemiancoding.com/sketch -->
    <title>Gold</title>
    <desc>Created with Sketch.</desc>
    <defs>
        <path d="M17.255737,0.875801256 L27.9502635,7.14375045 L27.9502635,7.14375045 C28.8552146,7.67413275 29.4112171,8.64445972 29.4112171,9.69338388 L29.4112171,22.3066161 L29.4112171,22.3066161 C29.4112171,23.3555403 28.8552146,24.3258672 27.9502635,24.8562496 L17.255737,31.1241987 L17.255737,31.1241987 C16.3329347,31.6650434 15.1899128,31.6650434 14.2671105,31.1241987 L3.57258407,24.8562496 L3.57258407,24.8562496 C2.66763296,24.3258672 2.11163038,23.3555403 2.11163038,22.3066161 L2.11163038,9.69338388 L2.11163038,9.69338388 C2.11163038,8.64445972 2.66763296,7.67413275 3.57258407,7.14375045 L14.2671105,0.875801256 L14.2671105,0.875801256 C15.1899128,0.334956553 16.3329347,0.334956553 17.255737,0.875801256 Z" id="path-1"></path>
        <filter x="-12.8%" y="-8.0%" width="125.6%" height="122.5%" filterUnits="objectBoundingBox" id="filter-2">
            <feMorphology radius="0.5" operator="dilate" in="SourceAlpha" result="shadowSpreadOuter1"></feMorphology>
            <feOffset dx="0" dy="1" in="shadowSpreadOuter1" result="shadowOffsetOuter1"></feOffset>
            <feGaussianBlur stdDeviation="0.5" in="shadowOffsetOuter1" result="shadowBlurOuter1"></feGaussianBlur>
            <feComposite in="shadowBlurOuter1" in2="SourceAlpha" operator="out" result="shadowBlurOuter1"></feComposite>
            <feColorMatrix values="0 0 0 0 0   0 0 0 0 0   0 0 0 0 0  0 0 0 0.1 0" type="matrix" in="shadowBlurOuter1"></feColorMatrix>
        </filter>
        <path d="M1.43940244,0 L5.585727,0 L5.585727,1.11022302e-16 C6.13773269,-4.8065904e-16 6.58522172,0.447489028 6.58522172,0.999494719 L6.58522172,8.08695652 L4.25306738,9.87284254 L4.25306738,8.08695652 L1.43940244,8.08695652 L1.43940244,8.08695652 C0.739641335,8.08695652 0.172372878,7.51968806 0.172372878,6.81992696 C0.172372878,6.54812973 0.259774201,6.28353637 0.421670954,6.06521739 L1.62658678,4.44037941 L1.62658678,4.44037941 C1.80139432,4.20465014 1.80139432,3.88230639 1.62658678,3.64657711 L0.421670954,2.02173913 L0.421670954,2.02173913 C0.00485636895,1.45966155 0.122615292,0.666112661 0.684692871,0.249298076 C0.903011851,0.0874013226 1.16760521,1.38219597e-15 1.43940244,1.33226763e-15 Z" id="path-3"></path>
        <path d="M1.43940244,0 L5.585727,0 L5.585727,1.11022302e-16 C6.13773269,-4.8065904e-16 6.58522172,0.447489028 6.58522172,0.999494719 L6.58522172,8.08695652 L4.25306738,9.87284254 L4.25306738,8.08695652 L1.43940244,8.08695652 L1.43940244,8.08695652 C0.739641335,8.08695652 0.172372878,7.51968806 0.172372878,6.81992696 C0.172372878,6.54812973 0.259774201,6.28353637 0.421670954,6.06521739 L1.62658678,4.44037941 L1.62658678,4.44037941 C1.80139432,4.20465014 1.80139432,3.88230639 1.62658678,3.64657711 L0.421670954,2.02173913 L0.421670954,2.02173913 C0.00485636895,1.45966155 0.122615292,0.666112661 0.684692871,0.249298076 C0.903011851,0.0874013226 1.16760521,1.38219597e-15 1.43940244,1.33226763e-15 Z" id="path-4"></path>
        <path d="M1.43940244,0 L5.585727,0 L5.585727,1.11022302e-16 C6.13773269,-4.8065904e-16 6.58522172,0.447489028 6.58522172,0.999494719 L6.58522172,8.08695652 L4.25306738,9.87284254 L4.25306738,8.08695652 L1.43940244,8.08695652 L1.43940244,8.08695652 C0.739641335,8.08695652 0.172372878,7.51968806 0.172372878,6.81992696 C0.172372878,6.54812973 0.259774201,6.28353637 0.421670954,6.06521739 L1.62658678,4.44037941 L1.62658678,4.44037941 C1.80139432,4.20465014 1.80139432,3.88230639 1.62658678,3.64657711 L0.421670954,2.02173913 L0.421670954,2.02173913 C0.00485636895,1.45966155 0.122615292,0.666112661 0.684692871,0.249298076 C0.903011851,0.0874013226 1.16760521,1.38219597e-15 1.43940244,1.33226763e-15 Z" id="path-6"></path>
        <path d="M1.43940244,0 L5.585727,0 L5.585727,1.11022302e-16 C6.13773269,-4.8065904e-16 6.58522172,0.447489028 6.58522172,0.999494719 L6.58522172,8.08695652 L4.25306738,9.87284254 L4.25306738,8.08695652 L1.43940244,8.08695652 L1.43940244,8.08695652 C0.739641335,8.08695652 0.172372878,7.51968806 0.172372878,6.81992696 C0.172372878,6.54812973 0.259774201,6.28353637 0.421670954,6.06521739 L1.62658678,4.44037941 L1.62658678,4.44037941 C1.80139432,4.20465014 1.80139432,3.88230639 1.62658678,3.64657711 L0.421670954,2.02173913 L0.421670954,2.02173913 C0.00485636895,1.45966155 0.122615292,0.666112661 0.684692871,0.249298076 C0.903011851,0.0874013226 1.16760521,1.38219597e-15 1.43940244,1.33226763e-15 Z" id="path-7"></path>
    </defs>
    <g id="Profile" stroke="none" stroke-width="1" fill="none" fill-rule="evenodd">
        <g id="3A-My-Profile-History" transform="translate(-58.000000, -739.000000)">
            <g id="Gold" transform="translate(58.000000, 740.000000)">
                <g id="Polygon-Copy-5">
                    <use fill="black" fill-opacity="1" filter="url(#filter-2)" xlink:href="#path-1"></use>
                    <use fill="#FFFFFF" fill-rule="evenodd" xlink:href="#path-1"></use>
                    <path stroke="#FFDE39" stroke-width="0.985088985" d="M17.0066848,1.30074016 C16.2376829,0.850036242 15.2851646,0.850036242 14.5161627,1.30074016 L3.82163628,7.56868935 C3.06751036,8.01067461 2.60417488,8.81928041 2.60417488,9.69338388 L2.60417488,22.3066161 C2.60417488,23.1807196 3.06751036,23.9893254 3.82163628,24.4313106 L14.5161627,30.6992598 C15.2851646,31.1499638 16.2376829,31.1499638 17.0066848,30.6992598 L27.7012112,24.4313106 C28.4553372,23.9893254 28.9186726,23.1807196 28.9186726,22.3066161 L28.9186726,9.69338388 C28.9186726,8.81928041 28.4553372,8.01067461 27.7012112,7.56868935 L17.0066848,1.30074016 Z"></path>
                </g>
                <path d="M17.0726667,3.81115326 L25.7525531,8.89834319 L25.7525531,8.89834319 C26.4907093,9.33096875 26.944233,10.1224511 26.944233,10.9780442 L26.944233,21.2155042 L26.944233,21.2155042 C26.944233,22.0710972 26.4907093,22.8625796 25.7525531,23.2952052 L17.0726667,28.3823951 L17.0726667,28.3823951 C16.3199495,28.8235547 15.3876022,28.8235547 14.634885,28.3823951 L5.9549986,23.2952052 L5.9549986,23.2952052 C5.2168424,22.8625796 4.76331873,22.0710972 4.76331873,21.2155042 L4.76331873,10.9780442 L4.76331873,10.9780442 C4.76331873,10.1224511 5.2168424,9.33096875 5.9549986,8.89834319 L14.634885,3.81115326 L14.634885,3.81115326 C15.3876022,3.36999366 16.3199495,3.36999366 17.0726667,3.81115326 Z" id="Polygon-Copy-6" stroke="#FFDE39" stroke-width="0.803523564"></path>
                <g id="Group-9-Copy" transform="translate(9.650794, 9.806452)">
                    <path d="M2.09154669,4.91752874 L2.90783806,4.91752874 L2.96050202,5.67420304 C3.06582994,7.13350346 4.1454411,8.29553899 5.51470405,8.53875573 L5.51470405,10.8898509 L4.19810506,10.8898509 C3.90845329,10.8898509 3.67146547,11.1330676 3.67146547,11.4303325 C3.67146547,11.7275974 3.90845329,11.9708141 4.19810506,11.9708141 L7.88458222,11.9708141 C8.174234,11.9708141 8.41122181,11.7275974 8.41122181,11.4303325 C8.41122181,11.1330676 8.174234,10.8898509 7.88458222,10.8898509 L6.56798324,10.8898509 L6.56798324,8.53875573 C7.93724618,8.29553899 9.01685735,7.10647938 9.12218527,5.67420304 L9.17484923,4.91752874 L9.9911406,4.91752874 C11.0444198,4.91752874 11.9133751,4.02573404 11.9133751,2.94477076 C11.9133751,1.86380749 11.0444198,0.972012781 9.9911406,0.972012781 L9.464501,0.972012781 L9.49083298,0.728796043 C9.49083298,0.566651552 9.43816902,0.431531142 9.35917308,0.323434814 C9.25384516,0.215338486 9.12218527,0.161290323 8.96419339,0.161290323 L3.1184939,0.161290323 C2.96050202,0.161290323 2.82884212,0.215338486 2.7235142,0.323434814 C2.61818628,0.431531142 2.56552232,0.593675634 2.5918543,0.728796043 L2.61818628,0.972012781 L2.09154669,0.972012781 C1.0382675,0.972012781 0.169312169,1.86380749 0.169312169,2.94477076 C0.169312169,4.02573404 1.01193552,4.91752874 2.09154669,4.91752874 Z M9.88918212,2.12954429 C10.3704962,2.12954429 10.7715912,2.5395972 10.7715912,3.03166069 C10.7715912,3.52372419 10.3704962,3.9337771 9.88918212,3.9337771 L9.14047136,3.9337771 L9.27416971,2.12954429 L9.88918212,2.12954429 L9.88918212,2.12954429 Z M2.03039318,2.12954429 L2.64540559,2.12954429 L2.77910393,3.9337771 L2.03039318,3.9337771 C1.54907913,3.9337771 1.14798408,3.52372419 1.14798408,3.03166069 C1.14798408,2.5395972 1.52233946,2.12954429 2.03039318,2.12954429 Z" id="Shape-Copy-4" fill="#FFDE39" fill-rule="nonzero"></path>
                    <path d="M8.02667644,5.58664764 C7.97322732,6.66126906 7.06459219,7.49410066 5.99560969,7.49410066 C4.92662718,7.49410066 4.01799206,6.66126906 3.93781837,5.58664764 L3.61712362,1.26129643 L8.34737119,1.26129643 L8.02667644,5.58664764 Z" id="Path" fill="#FFFFFF"></path>
                </g>
                <g id="Group-19-Copy" transform="translate(24.880952, 10.838710)">
                    <g id="Rectangle-2-Copy-3">
                        <use fill="#FFFFFF" fill-rule="evenodd" xlink:href="#path-3"></use>
                        <path stroke="#FFDE39" stroke-width="0.985088985" d="M4.74561187,8.8752972 L6.09267723,7.84375948 L6.09267723,0.999494719 C6.09267723,0.71951384 5.86570788,0.492544493 5.585727,0.492544493 L1.43940244,0.492544493 C1.27326354,0.492544493 1.11152808,0.545969465 0.978078324,0.644930548 C0.634502526,0.899712822 0.562521153,1.38477788 0.817303427,1.72835368 L2.02221925,3.35319166 C2.32624282,3.76316971 2.32624282,4.32378681 2.02221925,4.73376486 L0.817303427,6.35860284 C0.718342343,6.4920526 0.664917371,6.65378806 0.664917371,6.81992696 C0.664917371,7.24766325 1.01166615,7.59441203 1.43940244,7.59441203 L4.74561187,7.59441203 L4.74561187,8.8752972 Z"></path>
                    </g>
                    <g id="Group-18">
                        <mask id="mask-5" fill="white">
                            <use xlink:href="#path-4"></use>
                        </mask>
                        <g id="Rectangle-2-Copy-5"></g>
                        <path d="M-0.00745550746,5.6767767 L0.166685268,5.5 L6.99473573,12.4314047 L6.82059495,12.6081814 L-0.00745550746,5.6767767 Z M-0.00745550746,6.6767767 L0.166685268,6.5 L6.99473573,13.4314047 L6.82059495,13.6081814 L-0.00745550746,6.6767767 Z M-0.00745550746,4.6767767 L0.166685268,4.5 L6.99473573,11.4314047 L6.82059495,11.6081814 L-0.00745550746,4.6767767 Z M-0.00745550746,3.6767767 L0.166685268,3.5 L6.99473573,10.4314047 L6.82059495,10.6081814 L-0.00745550746,3.6767767 Z M-0.00745550746,2.6767767 L0.166685268,2.5 L6.99473573,9.43140474 L6.82059495,9.60818143 L-0.00745550746,2.6767767 Z M-0.00745550746,1.6767767 L0.166685268,1.5 L6.99473573,8.43140474 L6.82059495,8.60818143 L-0.00745550746,1.6767767 Z M-0.00745550746,0.676776695 L0.166685268,0.5 L6.99473573,7.43140474 L6.82059495,7.60818143 L-0.00745550746,0.676776695 Z M-0.00745550746,-0.323223305 L0.166685268,-0.5 L6.99473573,6.43140474 L6.82059495,6.60818143 L-0.00745550746,-0.323223305 Z M-0.00745550746,-1.3232233 L0.166685268,-1.5 L6.99473573,5.43140474 L6.82059495,5.60818143 L-0.00745550746,-1.3232233 Z M-0.00745550746,-2.3232233 L0.166685268,-2.5 L6.99473573,4.43140474 L6.82059495,4.60818143 L-0.00745550746,-2.3232233 Z M-0.00745550746,-3.3232233 L0.166685268,-3.5 L6.99473573,3.43140474 L6.82059495,3.60818143 L-0.00745550746,-3.3232233 Z M-0.00745550746,-4.3232233 L0.166685268,-4.5 L6.99473573,2.43140474 L6.82059495,2.60818143 L-0.00745550746,-4.3232233 Z M-0.00745550746,-5.3232233 L0.166685268,-5.5 L6.99473573,1.43140474 L6.82059495,1.60818143 L-0.00745550746,-5.3232233 Z" id="Combined-Shape" fill="#FFDE39" fill-rule="nonzero" mask="url(#mask-5)"></path>
                    </g>
                </g>
                <g id="Group-19-Copy-2" transform="translate(3.619048, 15.838710) scale(-1, 1) translate(-3.619048, -15.838710) translate(0.119048, 10.838710)">
                    <g id="Rectangle-2-Copy-3">
                        <use fill="#FFFFFF" fill-rule="evenodd" xlink:href="#path-6"></use>
                        <path stroke="#FFDE39" stroke-width="0.985088985" d="M4.74561187,8.8752972 L6.09267723,7.84375948 L6.09267723,0.999494719 C6.09267723,0.71951384 5.86570788,0.492544493 5.585727,0.492544493 L1.43940244,0.492544493 C1.27326354,0.492544493 1.11152808,0.545969465 0.978078324,0.644930548 C0.634502526,0.899712822 0.562521153,1.38477788 0.817303427,1.72835368 L2.02221925,3.35319166 C2.32624282,3.76316971 2.32624282,4.32378681 2.02221925,4.73376486 L0.817303427,6.35860284 C0.718342343,6.4920526 0.664917371,6.65378806 0.664917371,6.81992696 C0.664917371,7.24766325 1.01166615,7.59441203 1.43940244,7.59441203 L4.74561187,7.59441203 L4.74561187,8.8752972 Z"></path>
                    </g>
                    <g id="Group-18">
                        <mask id="mask-8" fill="white">
                            <use xlink:href="#path-7"></use>
                        </mask>
                        <g id="Rectangle-2-Copy-5"></g>
                        <path d="M-0.00745550746,5.6767767 L0.166685268,5.5 L6.99473573,12.4314047 L6.82059495,12.6081814 L-0.00745550746,5.6767767 Z M-0.00745550746,6.6767767 L0.166685268,6.5 L6.99473573,13.4314047 L6.82059495,13.6081814 L-0.00745550746,6.6767767 Z M-0.00745550746,4.6767767 L0.166685268,4.5 L6.99473573,11.4314047 L6.82059495,11.6081814 L-0.00745550746,4.6767767 Z M-0.00745550746,3.6767767 L0.166685268,3.5 L6.99473573,10.4314047 L6.82059495,10.6081814 L-0.00745550746,3.6767767 Z M-0.00745550746,2.6767767 L0.166685268,2.5 L6.99473573,9.43140474 L6.82059495,9.60818143 L-0.00745550746,2.6767767 Z M-0.00745550746,1.6767767 L0.166685268,1.5 L6.99473573,8.43140474 L6.82059495,8.60818143 L-0.00745550746,1.6767767 Z M-0.00745550746,0.676776695 L0.166685268,0.5 L6.99473573,7.43140474 L6.82059495,7.60818143 L-0.00745550746,0.676776695 Z M-0.00745550746,-0.323223305 L0.166685268,-0.5 L6.99473573,6.43140474 L6.82059495,6.60818143 L-0.00745550746,-0.323223305 Z M-0.00745550746,-1.3232233 L0.166685268,-1.5 L6.99473573,5.43140474 L6.82059495,5.60818143 L-0.00745550746,-1.3232233 Z M-0.00745550746,-2.3232233 L0.166685268,-2.5 L6.99473573,4.43140474 L6.82059495,4.60818143 L-0.00745550746,-2.3232233 Z M-0.00745550746,-3.3232233 L0.166685268,-3.5 L6.99473573,3.43140474 L6.82059495,3.60818143 L-0.00745550746,-3.3232233 Z M-0.00745550746,-4.3232233 L0.166685268,-4.5 L6.99473573,2.43140474 L6.82059495,2.60818143 L-0.00745550746,-4.3232233 Z M-0.00745550746,-5.3232233 L0.166685268,-5.5 L6.99473573,1.43140474 L6.82059495,1.60818143 L-0.00745550746,-5.3232233 Z" id="Combined-Shape" fill="#FFDE39" fill-rule="nonzero" mask="url(#mask-8)"></path>
                    </g>
                </g>
                <path d="M20.0781167,9.6011132 L19.8282421,9.60903085 L19.8364203,9.35916465 C20.0963261,9.36767145 20.3395845,9.44221623 20.5505013,9.56672718 C20.7762838,9.70001377 20.9650053,9.89055806 21.097414,10.1186448 C21.2224206,10.3339806 21.2972347,10.5827786 21.3056563,10.8484486 L21.0557819,10.8563696 L21.0639579,10.6065033 C21.0806333,10.6069581 21.0806333,10.6069581 21.097414,10.6070498 C21.1141955,10.6069581 21.1141955,10.6069581 21.1308714,10.6065034 L21.1390462,10.8563697 L20.8891717,10.8484488 C20.8975934,10.5827786 20.9724075,10.3339806 21.097414,10.1186448 C21.2298228,9.89055806 21.4185443,9.70001377 21.6443268,9.56672718 C21.8552436,9.44221625 22.0985019,9.36767148 22.3584077,9.35916466 L22.3665859,9.60903085 L22.1167114,9.601112 C22.1171641,9.58397333 22.1171641,9.58397333 22.1172553,9.56672718 C22.1171641,9.5494803 22.1171641,9.5494803 22.1167114,9.53234115 L22.366586,9.5244235 L22.3584078,9.7742897 C22.098502,9.7657829 21.8552436,9.69123812 21.6443268,9.56672718 C21.4185443,9.43344059 21.2298228,9.2428963 21.097414,9.01480952 C20.9724075,8.79947378 20.8975934,8.5506758 20.8891718,8.28500571 L21.1390462,8.27708479 L21.1308701,8.52695106 C21.1141948,8.52649624 21.1141948,8.52649624 21.097414,8.5264046 C21.0806326,8.52649623 21.0806326,8.52649623 21.0639567,8.52695099 L21.0557819,8.27708468 L21.3056563,8.28500558 C21.2972347,8.55067572 21.2224206,8.79947375 21.097414,9.01480952 C20.9650053,9.2428963 20.7762838,9.43344059 20.5505013,9.56672718 C20.3395845,9.6912381 20.0963262,9.76578288 19.8364204,9.7742897 L19.8282422,9.5244235 L20.0781167,9.53234235 C20.077664,9.54948102 20.077664,9.54948102 20.0775728,9.56672718 C20.077664,9.58397405 20.077664,9.58397405 20.0781167,9.6011132 Z" id="glow-copy-2" stroke-opacity="0.258265399" stroke="#FFDE39" stroke-width="0.5" transform="translate(21.097414, 9.566727) rotate(-315.000000) translate(-21.097414, -9.566727) "></path>
                <path d="M8.12698413,19.6129032 C8.12698413,19.6015787 8.12716354,19.5902968 8.12751964,19.5790603 C8.66209676,19.5615634 9.09233224,19.1243886 9.10955139,18.5811892 C9.1206095,18.5808274 9.13171232,18.5806452 9.14285714,18.5806452 C9.15400189,18.5806452 9.16510471,18.5808275 9.17616289,18.5811893 C9.19338209,19.1243886 9.6236176,19.5615634 10.1581947,19.5790603 C10.1585508,19.5902967 10.1587302,19.6015786 10.1587302,19.6129032 C10.1587302,19.6242277 10.1585507,19.6355096 10.1581946,19.6467462 C9.62361752,19.6642431 9.19338204,20.1014179 9.17616289,20.6446172 C9.16510479,20.644979 9.15400196,20.6451613 9.14285714,20.6451613 C9.1317124,20.6451613 9.12060957,20.644979 9.10955139,20.6446171 C9.0923322,20.1014178 8.66209669,19.664243 8.12751956,19.6467462 C8.12716351,19.6355097 8.12698413,19.6242278 8.12698413,19.6129032 Z" id="glow-copy-3" fill-opacity="0.391389266" fill="#FFDE39"></path>
                <path d="M13.4571294,24.8255648 L13.207379,24.8367321 L13.2223439,24.5871804 C13.4366815,24.6000337 13.6365068,24.6667861 13.8089023,24.7741935 C13.9765904,24.8786681 14.1183263,25.0216077 14.2222222,25.1908236 C14.330209,25.3667025 14.3973172,25.5709677 14.4101987,25.7899334 L14.1606302,25.8046151 L14.1755546,25.555061 C14.1987431,25.5562171 14.1987431,25.5562171 14.2222222,25.5564516 C14.2457013,25.5562171 14.2457013,25.5562171 14.2688899,25.555061 L14.2838143,25.8046151 L14.0342458,25.7899334 C14.0471272,25.5709677 14.1142354,25.3667025 14.2222222,25.1908236 C14.3261181,25.0216077 14.467854,24.8786681 14.6355422,24.7741935 C14.8079377,24.6667861 15.0077629,24.6000337 15.2221005,24.5871804 L15.2370655,24.8367321 L14.987315,24.8255648 C14.987964,24.8081527 14.987964,24.8081527 14.9880952,24.7905786 L14.9880952,24.7578085 C14.987964,24.7402344 14.987964,24.7402344 14.987315,24.7228223 L15.2370655,24.711655 L15.2221005,24.9612067 C15.0077629,24.9483534 14.8079377,24.881601 14.6355422,24.7741935 C14.467854,24.669719 14.3261181,24.5267794 14.2222222,24.3575635 C14.1142354,24.1816846 14.0471272,23.9774194 14.0342458,23.7584537 L14.2838143,23.743772 L14.2688899,23.9933261 C14.2457013,23.99217 14.2457013,23.99217 14.2222222,23.9919355 C14.1987431,23.99217 14.1987431,23.99217 14.1755546,23.9933261 L14.1606302,23.743772 L14.4101987,23.7584537 C14.3973172,23.9774194 14.330209,24.1816846 14.2222222,24.3575635 C14.1183263,24.5267794 13.9765904,24.669719 13.8089023,24.7741935 C13.6365068,24.881601 13.4366815,24.9483534 13.2223439,24.9612067 L13.207379,24.711655 L13.4571294,24.7228223 C13.4564804,24.7402344 13.4564804,24.7402344 13.4563492,24.7578085 L13.4563492,24.7905786 C13.4564804,24.8081527 13.4564804,24.8081527 13.4571294,24.8255648 Z" id="glow-copy-4" stroke="#FFDE39" stroke-width="0.5"></path>
                <path d="M14.980939,7.27717766 L14.7311885,7.28834501 L14.7461535,7.03879331 C14.960491,7.05164659 15.1603163,7.11839905 15.3327118,7.22580645 C15.5003999,7.33028101 15.6421359,7.47322058 15.7460317,7.64243651 C15.8540186,7.81831536 15.9211268,8.02258058 15.9340082,8.24154628 L15.6844397,8.25622804 L15.6993641,8.00667392 C15.7225526,8.00782997 15.7225526,8.00782997 15.7460317,8.00806452 C15.7695109,8.00782997 15.7695109,8.00782997 15.7926994,8.00667392 L15.8076238,8.25622804 L15.5580553,8.24154628 C15.5709367,8.02258058 15.6380449,7.81831536 15.7460317,7.64243651 C15.8499276,7.47322058 15.9916636,7.33028101 16.1593517,7.22580645 C16.3317472,7.11839905 16.5315724,7.05164659 16.74591,7.03879331 L16.760875,7.28834501 L16.5111245,7.27717766 C16.5117736,7.25976559 16.5117736,7.25976559 16.5119048,7.2421915 L16.5119048,7.2094214 C16.5117736,7.19184731 16.5117736,7.19184731 16.5111245,7.17443524 L16.760875,7.16326789 L16.74591,7.41281959 C16.5315724,7.39996632 16.3317472,7.33321386 16.1593517,7.22580645 C15.9916636,7.1213319 15.8499276,6.97839232 15.7460317,6.80917639 C15.6380449,6.63329754 15.5709367,6.42903232 15.5580553,6.21006662 L15.8076238,6.19538486 L15.7926994,6.44493899 C15.7695109,6.44378293 15.7695109,6.44378293 15.7460317,6.44354839 C15.7225526,6.44378293 15.7225526,6.44378293 15.6993641,6.44493899 L15.6844397,6.19538486 L15.9340082,6.21006662 C15.9211268,6.42903232 15.8540186,6.63329754 15.7460317,6.80917639 C15.6421359,6.97839232 15.5003999,7.1213319 15.3327118,7.22580645 C15.1603163,7.33321386 14.960491,7.39996632 14.7461535,7.41281959 L14.7311885,7.16326789 L14.980939,7.17443524 C14.9802899,7.19184731 14.9802899,7.19184731 14.9801587,7.2094214 L14.9801587,7.2421915 C14.9802899,7.25976559 14.9802899,7.25976559 14.980939,7.27717766 Z" id="glow-copy-5" stroke="#FFDE39" stroke-width="0.5"></path>
                <ellipse id="glow-copy-6" fill="#FFF2B1" cx="8.12698413" cy="11.8709677" rx="1" ry="1"></ellipse>
                <ellipse id="glow-copy-7" fill="#FFF2B1" cx="23.8730159" cy="13.4193548" rx="1" ry="1"></ellipse>
                <ellipse id="glow-copy-8" fill="#FFDE39" cx="21.0793651" cy="24" rx="1" ry="1"></ellipse>
            </g>
        </g>
    </g>
</svg>