<?xml version="1.0" encoding="UTF-8"?>
<svg width="118px" height="72px" viewBox="0 0 118 72" version="1.1" xmlns="http://www.w3.org/2000/svg" xmlns:xlink="http://www.w3.org/1999/xlink">
    <!-- Generator: sketchtool 45.2 (43514) - http://www.bohemiancoding.com/sketch -->
    <title>4C2AB6AF-61BB-4712-854B-320842B3EAA6</title>
    <desc>Created with sketchtool.</desc>
    <defs>
        <rect id="path-1" x="0" y="0" width="120" height="72" rx="6"></rect>
        <polygon id="path-3" points="0 11.231814 9.49915537 11.231814 9.49915537 0.51040572 0 0.51040572"></polygon>
    </defs>
    <g id="Login-Signup" stroke="none" stroke-width="1" fill="none" fill-rule="evenodd">
        <g id="1A.Signup" transform="translate(-42.000000, -532.000000)">
            <g id="Portfolio" transform="translate(42.000000, 532.000000)">
                <mask id="mask-2" fill="white">
                    <use xlink:href="#path-1"></use>
                </mask>
                <g id="Mask"></g>
                <g id="Group-24" mask="url(#mask-2)">
                    <g transform="translate(101.000000, 66.000000)">
                        <mask id="mask-4" fill="white">
                            <use xlink:href="#path-3"></use>
                        </mask>
                        <g id="Clip-23" stroke="none" fill="none"></g>
                        <path d="M-3.4629515,11.2319745 C-4.30808055,11.2319745 -5.00063904,10.5372065 -5.00063904,9.68840232 L-5.00063904,2.05478015 C-5.00063904,1.20517364 -4.30808055,0.51040572 -3.4629515,0.51040572 L7.96146783,0.51040572 C8.80739567,0.51040572 9.49915537,1.20517364 9.49915537,2.05478015 L9.49915537,9.68840232 C9.49915537,10.5372065 8.80739567,11.2319745 7.96146783,11.2319745 L-3.4629515,11.2319745 Z" id="Fill-22" stroke="none" fill="#EFEFEF" fill-rule="evenodd" mask="url(#mask-4)"></path>
                    </g>
                </g>
                <path d="M40.0798029,60.8208471 C38.5053706,60.8208471 37.229689,61.5388158 37.229689,59.9583391 L37.229689,57.0533106 L101.95865,57.0533106 L99.9586499,59.9583391 C99.9586499,61.5388158 98.6837671,60.8208471 97.1093349,60.8208471 L40.0798029,60.8208471 Z" id="Fill-2" fill="#E4F0FB" mask="url(#mask-2)"></path>
                <g id="Group-5" mask="url(#mask-2)">
                    <g transform="translate(17.000000, 12.000000)">
                        <path d="M9.0003994,44 L9.0003994,4.1990939 C9.0003994,1.88052658 10.871186,0 13.1805131,0 L72.5216726,0 C74.8317985,0 76.7025851,1.88052658 76.7025851,4.1990939 L76.7025851,44 L9.0003994,44 Z" id="Stroke-6" stroke="#3C91E6" stroke-width="1.5" fill="none"></path>
                        <path d="M80.5216726,49 L5.18051311,49 C2.87118601,49 0.00039939936,46.3185673 0.00039939936,44 L9,44 L76.6999969,44 L85,44 C85,46.3185673 82.8317985,49 80.5216726,49 Z" id="Stroke-6" stroke="#3C91E6" stroke-width="1.5" fill="none"></path>
                        <path d="M41,6.00002339 L69,6.00002339 L69,6.00002339 C70.1045695,6.00002339 71,6.89545389 71,8.00002339 L71,37.0000234 L71,37.0000234 C71,38.1045929 70.1045695,39.0000234 69,39.0000234 L41,39.0000234 L41,39.0000234 C39.8954305,39.0000234 39,38.1045929 39,37.0000234 L39,8.00002339 L39,8.00002339 C39,6.89545389 39.8954305,6.00002339 41,6.00002339 Z" id="Path-2" stroke="none" fill="#E4F0FB" fill-rule="evenodd"></path>
                        <path d="M25.2001953,7.75 L35.2001953,7.75" id="Path-18" stroke="#3C91E6" stroke-width="1.5" fill="none"></path>
                        <path d="M25.2001953,10.75 L30.2001953,10.75" id="Path-18" stroke="#3C91E6" stroke-width="1.5" fill="none"></path>
                        <path d="M16.2001953,24.75 L24.2001953,24.75" id="Path-18" stroke="#3C91E6" stroke-width="1.5" fill="none"></path>
                        <path d="M16.2001953,18.75 L24.2001953,18.75" id="Path-18" stroke="#3C91E6" stroke-width="1.5" fill="none"></path>
                        <path d="M16.2001953,30.75 L24.2001953,30.75" id="Path-18" stroke="#3C91E6" stroke-width="1.5" fill="none"></path>
                        <path d="M16.2001953,36.75 L24.2001953,36.75" id="Path-18" stroke="#3C91E6" stroke-width="1.5" fill="none"></path>
                        <circle id="Oval" stroke="none" fill="#3C91E6" fill-rule="evenodd" cx="19" cy="9" r="4"></circle>
                    </g>
                </g>
                <path d="M102.171096,3.55360796 C102.171096,3.55360796 102.468421,3.53515569 102.627846,3.34421485 C102.787271,3.15407629 102.790634,2.73609235 102.790634,2.73609235 L102.790634,1.1516043 C102.790634,0.302800069 103.373174,-0.391967855 104.085541,-0.391967855 L110.288989,-0.391967855 C111.000683,-0.391967855 111.583223,0.302800069 111.583223,1.1516043 L111.583223,5.1003892 C111.583223,5.1003892 111.589277,5.52158223 111.919563,5.98128433 C112.17249,6.33348192 112.647402,6.4129069 112.647402,6.4129069 L115.993981,6.4129069 C116.771598,6.4129069 117.408625,7.17185661 117.408625,8.10008582 L117.408625,11.3484869 C117.408625,12.2759138 116.771598,13.0348635 115.993981,13.0348635 L101.994855,13.0348635 C101.216565,13.0348635 100.580883,12.2759138 100.580883,11.3484869 L100.580883,9.49844666 C100.580883,9.49844666 100.601736,9.20080359 100.447692,9.04436047 C100.315175,8.91118324 100.031304,8.91439233 100.031304,8.91439233 L99.4010036,8.91439233 C99.0451563,8.91439233 98.7538863,8.56700837 98.7538863,8.14260625 L98.7538863,4.32539403 C98.7538863,3.90099192 99.0451563,3.55360796 99.4010036,3.55360796 L102.171096,3.55360796 Z" id="Fill-20" fill="#F7F7F7" mask="url(#mask-2)"></path>
                <path d="M15.262774,14.6164711 L8.15346535,14.6164711 C7.51921917,14.6164711 7,14.0957963 7,13.4587919 L7,5.15767912 C7,4.52067481 7.51921917,4 8.15346535,4 L15.262774,4 C15.8970202,4 16.4154405,4.52067481 16.4154405,5.15767912 L16.4154405,13.4587919 C16.4154405,14.0957963 15.8970202,14.6164711 15.262774,14.6164711" id="Fill-28" fill="#F7F7F7" mask="url(#mask-2)"></path>
                <path d="M47.387885,3 L43.6125392,3 C43.2757275,3 43,2.85286783 43,2.6728633 L43,0.327136704 C43,0.14713217 43.2757275,0 43.6125392,0 L47.387885,0 C47.7246967,0 48,0.14713217 48,0.327136704 L48,2.6728633 C48,2.85286783 47.7246967,3 47.387885,3" id="Fill-28" fill="#F7F7F7" mask="url(#mask-2)"></path>
                <path d="M32.4900314,69 C32.220582,69 32,68.8528678 32,68.6728633 L32,66.3271367 C32,66.1471322 32.220582,66 32.4900314,66 L35.510308,66 C35.7797574,66 36,66.1471322 36,66.3271367 L36,68.6728633 C36,68.8528678 35.7797574,69 35.510308,69 L32.4900314,69 Z" id="Fill-28" fill="#F7F7F7" mask="url(#mask-2)"></path>
                <path d="M4.26277398,58.6164711 L-2.84653465,58.6164711 C-3.48078083,58.6164711 -4,58.0957963 -4,57.4587919 L-4,49.1576791 C-4,48.5206748 -3.48078083,48 -2.84653465,48 L4.26277398,48 C4.89702017,48 5.41544054,48.5206748 5.41544054,49.1576791 L5.41544054,57.4587919 C5.41544054,58.0957963 4.89702017,58.6164711 4.26277398,58.6164711" id="Fill-28" fill="#F7F7F7" mask="url(#mask-2)"></path>
            </g>
        </g>
    </g>
</svg>