<?xml version="1.0" encoding="UTF-8"?>
<svg width="103px" height="72px" viewBox="0 0 103 72" version="1.1" xmlns="http://www.w3.org/2000/svg" xmlns:xlink="http://www.w3.org/1999/xlink">
    <!-- Generator: sketchtool 45.2 (43514) - http://www.bohemiancoding.com/sketch -->
    <title>47E0BCB1-37F5-4768-9141-C8DFDF52391A</title>
    <desc>Created with sketchtool.</desc>
    <defs>
        <rect id="path-1" x="0" y="0" width="104" height="72"></rect>
        <polygon id="path-3" points="4.33029655e-20 0.51040572 4.33029655e-20 11.231814 14.4991554 11.231814 14.4991554 0.51040572 0 0.51040572"></polygon>
        <polygon id="path-5" points="0.539748297 0.564799791 6.92294889 0.564799791 6.92294889 5.92518303 0.539748297 5.92518303 0.539748297 0.564799791"></polygon>
    </defs>
    <g id="Login-Signup" stroke="none" stroke-width="1" fill="none" fill-rule="evenodd">
        <g id="2.Login" transform="translate(-55.000000, -171.000000)">
            <g id="Group-19" transform="translate(54.000000, 171.000000)">
                <mask id="mask-2" fill="white">
                    <use xlink:href="#path-1"></use>
                </mask>
                <g id="Rectangle-14-Copy"></g>
                <g id="Group-14" mask="url(#mask-2)">
                    <g transform="translate(1.000000, 0.000000)">
                        <polygon id="Fill-1" fill="#F7F7F7" opacity="0.769999981" points="47.3115254 69.5545521 35.3495146 69.5545521 38.4855983 61.8591549 47.3019398 61.8591549"></polygon>
                        <g id="Group-56" stroke-width="1" fill="none">
                            <path d="M78.1160972,59.746351 L20.0865652,59.746351 C18.5121329,59.746351 17.2364514,58.4643197 17.2364514,56.883843 L17.2364514,53.9788145 L80.9654122,53.9788145 L80.9654122,56.883843 C80.9654122,58.4643197 79.6905295,59.746351 78.1160972,59.746351" id="Fill-2" fill="#F7F7F7" opacity="0.769999981"></path>
                            <path d="M81.4501233,14.8546833 L81.4501233,52.7949488 L46.7742708,52.7949488 L60.1485578,10.625103 L77.2396552,10.625103 C79.5657571,10.625103 81.4501233,12.518466 81.4501233,14.8546833" id="Fill-4" fill="#FFF1E6"></path>
                            <path d="M77.1955615,61.8460584 L17.8544021,61.8460584 C15.545075,61.8460584 13.6742884,59.9655319 13.6742884,57.6469645 L13.6742884,13.7145263 C13.6742884,11.395959 15.545075,9.51543238 17.8544021,9.51543238 L77.1955615,9.51543238 C79.5056875,9.51543238 81.3764741,11.395959 81.3764741,13.7145263 L81.3764741,57.6469645 C81.3764741,59.9655319 79.5056875,61.8460584 77.1955615,61.8460584 Z" id="Stroke-6" stroke="#FB8629" stroke-width="1.5"></path>
                            <path d="M46.3881315,57.4966187 C46.3378071,58.5315501 47.6326599,59.0931408 48.3467859,58.3446206 C48.7110382,57.962739 48.7669541,57.3594301 48.4713985,56.9181803 C48.2101914,56.5194509 47.7085458,56.32851 47.2476389,56.4440373 C46.7667621,56.5643781 46.4120954,57.0000121 46.3881315,57.4966187 Z" id="Fill-8" fill="#FB8629"></path>
                            <polygon id="Stroke-10" stroke="#FB8629" stroke-width="1.5" points="59.4784455 69.737531 35.5711986 69.737531 38.7072824 62.0421338 56.3423617 62.0421338"></polygon>
                            <path d="M32.2997111,69.9424313 L66.7986661,69.9424313" id="Stroke-12" stroke="#FB8629" stroke-width="1.5"></path>
                            <path d="M27.1639945,69.9424313 L30.2401684,69.9424313" id="Stroke-14" stroke="#FB8629" stroke-width="1.5"></path>
                            <path d="M13.673889,53.894255 L69.6041779,53.894255" id="Stroke-16" stroke="#FB8629" stroke-width="1.5"></path>
                            <path d="M73.0088977,53.9788145 L81.4498038,53.9788145" id="Stroke-18" stroke="#5C5CC6" stroke-width="1.5"></path>
                            <path d="M87.1778588,22.4791119 C87.1778588,22.4791119 87.475183,22.4606596 87.6346079,22.2697188 C87.7940329,22.0795802 87.7973963,21.6615963 87.7973963,21.6615963 L87.7973963,20.0771082 C87.7973963,19.228304 88.3799365,18.5335361 89.0923037,18.5335361 L95.295751,18.5335361 C96.0074455,18.5335361 96.5899857,19.228304 96.5899857,20.0771082 L96.5899857,24.0258931 C96.5899857,24.0258931 96.5960398,24.4470862 96.9263253,24.9067883 C97.1792527,25.2589859 97.6541642,25.3384108 97.6541642,25.3384108 L101.000743,25.3384108 C101.77836,25.3384108 102.415387,26.0973606 102.415387,27.0255898 L102.415387,30.2739908 C102.415387,31.2014178 101.77836,31.9603675 101.000743,31.9603675 L87.0016168,31.9603675 C86.223327,31.9603675 85.5876452,31.2014178 85.5876452,30.2739908 L85.5876452,28.4239506 C85.5876452,28.4239506 85.6084983,28.1263075 85.4544548,27.9698644 C85.321937,27.8366872 85.0380663,27.8398963 85.0380663,27.8398963 L84.407766,27.8398963 C84.0519187,27.8398963 83.7606486,27.4925123 83.7606486,27.0681102 L83.7606486,23.250898 C83.7606486,22.8264959 84.0519187,22.4791119 84.407766,22.4791119 L87.1778588,22.4791119 Z" id="Fill-20" fill="#F7F7F7"></path>
                            <g id="Group-24" transform="translate(0.006762, 60.673676)">
                                <mask id="mask-4" fill="white">
                                    <use xlink:href="#path-3"></use>
                                </mask>
                                <g id="Clip-23"></g>
                                <path d="M12.9614678,11.2319745 L1.5370485,11.2319745 C0.691919453,11.2319745 -0.000639038978,10.5372065 -0.000639038978,9.68840232 L-0.000639038978,2.05478015 C-0.000639038978,1.20517364 0.691919453,0.51040572 1.5370485,0.51040572 L12.9614678,0.51040572 C13.8073957,0.51040572 14.4991554,1.20517364 14.4991554,2.05478015 L14.4991554,9.68840232 C14.4991554,10.5372065 13.8073957,11.2319745 12.9614678,11.2319745" id="Fill-22" fill="#EFEFEF" mask="url(#mask-4)"></path>
                            </g>
                            <g id="Group-27" transform="translate(16.697023, 0.000000)">
                                <mask id="mask-6" fill="white">
                                    <use xlink:href="#path-5"></use>
                                </mask>
                                <g id="Clip-26"></g>
                                <path d="M6.15370572,5.92518303 L1.30819267,5.92518303 C0.884829345,5.92518303 0.539748297,5.57779907 0.539748297,5.15339695 L0.539748297,1.33618473 C0.539748297,0.911782617 0.884829345,0.564398654 1.30819267,0.564398654 L6.15370572,0.564398654 C6.57627024,0.564398654 6.92294889,0.911782617 6.92294889,1.33618473 L6.92294889,5.15339695 C6.92294889,5.57779907 6.57627024,5.92518303 6.15370572,5.92518303" id="Fill-25" fill="#EFEFEF" mask="url(#mask-6)"></path>
                            </g>
                            <path d="M8.26953632,16.541975 L1.16022769,16.541975 C0.525981508,16.541975 0.0067623387,16.0213002 0.0067623387,15.3842959 L0.0067623387,7.08318306 C0.0067623387,6.44617875 0.525981508,5.92550394 1.16022769,5.92550394 L8.26953632,5.92550394 C8.90378251,5.92550394 9.42220288,6.44617875 9.42220288,7.08318306 L9.42220288,15.3842959 C9.42220288,16.0213002 8.90378251,16.541975 8.26953632,16.541975" id="Fill-28" fill="#F7F7F7"></path>
                            <path d="M55.1240339,38.5899457 C54.8963763,38.5899457 54.6687187,38.502498 54.4945805,38.3276026 C54.1463043,37.9786141 54.1463043,37.4122098 54.4945805,37.0632213 L59.6164779,31.9182482 L54.4945805,26.7740773 C54.1463043,26.4242866 54.1463043,25.8578822 54.4945805,25.5088937 C54.842058,25.1591029 55.4068087,25.1599052 55.7542861,25.5088937 L61.5056369,31.2860575 C61.8539132,31.635046 61.8539132,32.2014503 61.5056369,32.5512411 L55.7542861,38.3276026 C55.580148,38.502498 55.3524904,38.5899457 55.1240339,38.5899457" id="Fill-30" fill="#FB8629"></path>
                            <path d="M39.3697261,38.3276026 L33.6175765,32.5512411 C33.2693003,32.2014503 33.2693003,31.635046 33.6175765,31.2860575 L39.3697261,25.5088937 C39.7172036,25.1599052 40.2811555,25.1599052 40.6286329,25.5088937 C40.9769092,25.8578822 40.9769092,26.4242866 40.6286329,26.7740773 L35.5067355,31.9182482 L40.6286329,37.0632213 C40.9769092,37.4122098 40.9769092,37.9786141 40.6286329,38.3276026 C40.4544948,38.502498 40.2268372,38.5899457 39.9991795,38.5899457 C39.7715219,38.5899457 39.5430655,38.502498 39.3697261,38.3276026 Z" id="Fill-32" fill="#FB8629"></path>
                            <path d="M44.9214571,41.1852168 C44.8327905,41.1852168 44.7417274,41.1715781 44.652262,41.1434986 C44.1833671,40.9942759 43.9237575,40.4912511 44.0723341,40.0203172 L49.3531924,23.2760893 C49.501769,22.8051554 50.001817,22.5444169 50.4707119,22.6936395 C50.9396067,22.8428622 51.1992163,23.345887 51.0514385,23.8168209 L45.7697814,40.5610488 C45.6499616,40.9421282 45.3000877,41.1852168 44.9214571,41.1852168" id="Fill-34" fill="#FB8629"></path>
                            <g id="Group-2" transform="translate(66.578372, 31.879389)">
                                <path d="M20.5149594,12.2649294 C21.1044728,12.2649294 21.5829533,12.7446883 21.5829533,13.3367654 L21.5829533,33.0245308 C21.5829533,35.796382 19.345518,38.0427448 16.5856685,38.0427448 L5.40887674,38.0427448 C2.64902716,38.0427448 0.411591934,35.796382 0.411591934,33.0245308 L0.411591934,13.3367654 C0.411591934,12.7446883 0.890072369,12.2649294 1.47958583,12.2649294" id="Fill-36" fill="#FFFFFF"></path>
                                <path d="M10.8165843,29.4236914 C8.97934727,29.4236914 7.49038645,27.9282556 7.49038645,26.0830291 L7.49038645,12.9779089 C7.49038645,12.5839931 7.80830834,12.2646887 8.20051852,12.2646887 L20.8718626,12.2646887 C21.2648716,12.2646887 21.5827935,12.5839931 21.5827935,12.9779089 L21.5827935,26.0830291 C21.5827935,27.9282556 20.0938327,29.4236914 18.2565956,29.4236914 L10.8165843,29.4236914 Z" id="Fill-38" fill="#FFF1E6"></path>
                                <path d="M7.49078585,12.2649294 L20.515199,12.2649294 C21.1047125,12.2649294 21.5831929,12.7446883 21.5831929,13.3367654 L21.5831929,33.0245308 C21.5831929,35.796382 19.3457577,38.0427448 16.5859081,38.0427448 L5.40911638,38.0427448 C2.648468,38.0427448 0.411831574,35.796382 0.411831574,33.0245308 L0.411831574,13.3367654 C0.411831574,12.7446883 0.88951321,12.2649294 1.47982547,12.2649294 L5.13912241,12.2649294" id="Stroke-40" stroke="#FB8629" stroke-width="1.5"></path>
                                <path d="M21.5828734,16.5333396 L23.9185609,16.5333396 C27.9900379,16.5333396 31.2898755,19.8483293 31.2898755,23.9375119 L31.2898755,24.1404868 C31.2898755,28.2304717 27.9900379,31.5446591 23.9185609,31.5446591 L21.5828734,31.5446591" id="Stroke-42" stroke="#FB8629" stroke-width="1.5"></path>
                                <path d="M22.0313989,18.8836769 L23.8718311,18.8836769 C26.6684255,18.8836769 28.9354162,21.1605261 28.9354162,23.9692819 L28.9354162,24.1088773 C28.9354162,26.9176331 26.6684255,29.1944822 23.8718311,29.1944822 L22.0313989,29.1944822" id="Stroke-44" stroke="#FB8629" stroke-width="1.5"></path>
                                <path d="M10.9122005,24.7608841 C12.5273716,23.9201026 13.342945,22.9236802 13.723972,22.3107441 C12.604855,21.5108785 10.6821465,21.9433033 9.23711962,23.3946141 C8.03492754,24.6012319 7.53408074,26.1423972 7.85360023,27.2744036 C8.47187044,26.4881766 9.45119767,25.5222406 10.9122005,24.7608841" id="Fill-46" fill="#FB8629"></path>
                                <path d="M8.53657314,28.2963382 C9.64530576,29.1563743 11.6119482,28.734379 13.0833355,27.2573954 C14.3110891,26.0235004 14.8039479,24.4422215 14.4396957,23.3029946 C13.9021042,24.040283 12.9802904,24.988569 11.4434017,25.7892369 C9.96003246,26.5618252 9.04381033,27.5815135 8.53657314,28.2963382 Z" id="Fill-48" fill="#FB8629"></path>
                                <path d="M8.30987406,9.0617765 C8.30987406,9.0617765 6.67393428,7.66261338 8.30987406,5.16834839 C8.48321338,4.90440076 8.61867284,4.6667706 8.83657657,4.31829064" id="Stroke-50" stroke="#FB8629" stroke-width="1.5" stroke-linecap="round"></path>
                                <path d="M11.7008545,4.06129267 C11.7008545,4.06129267 12.7416893,4.91089917 11.7008545,6.75692803 C10.6608186,8.60375917 11.7008545,9.85049052 11.7008545,9.85049052" id="Stroke-52" stroke="#FB8629" stroke-width="1.5" stroke-linecap="round"></path>
                                <path d="M8.91831905,1.96744185 C8.70743618,0.934917236 8.16185666,0.462378775 8.16185666,0.462378775" id="Stroke-54" stroke="#FB8629" stroke-width="1.5" stroke-linecap="round"></path>
                            </g>
                        </g>
                    </g>
                </g>
            </g>
        </g>
    </g>
</svg>