<?xml version="1.0" encoding="UTF-8"?>
<svg width="104px" height="69px" viewBox="0 0 104 69" version="1.1" xmlns="http://www.w3.org/2000/svg" xmlns:xlink="http://www.w3.org/1999/xlink">
    <!-- Generator: sketchtool 45.2 (43514) - http://www.bohemiancoding.com/sketch -->
    <title>077245A9-E8B7-4137-9334-6206D8ECC529</title>
    <desc>Created with sketchtool.</desc>
    <defs>
        <rect id="path-1" x="0" y="0" width="104" height="72"></rect>
        <circle id="path-3" cx="11.25" cy="20.25" r="3.5"></circle>
        <circle id="path-4" cx="11.25" cy="20.25" r="3.5"></circle>
    </defs>
    <g id="Login-Signup" stroke="none" stroke-width="1" fill="none" fill-rule="evenodd">
        <g id="1A.Signup" transform="translate(-50.000000, -295.000000)">
            <g id="Get-Noticed" transform="translate(50.000000, 292.000000)">
                <mask id="mask-2" fill="white">
                    <use xlink:href="#path-1"></use>
                </mask>
                <g id="Rectangle-14"></g>
                <g id="Group-2" mask="url(#mask-2)">
                    <g transform="translate(-5.000000, 5.000000)">
                        <path d="M7.95652062,33.1384649 L1.44182622,33.1384649 C0.694182622,33.1384649 0.0824742268,32.521056 0.0824742268,31.7664451 L0.0824742268,25.1910403 C0.0824742268,24.4364294 0.694182622,23.8190205 1.44182622,23.8190205 L7.95652062,23.8190205 C8.70416421,23.8190205 9.31587261,24.4364294 9.31587261,25.1910403 L9.31587261,31.7664451 C9.31587261,32.521056 8.70416421,33.1384649 7.95652062,33.1384649" id="Fill-3" fill="#EFEFEF" transform="translate(4.699173, 28.478743) scale(1, -1) translate(-4.699173, -28.478743) "></path>
                        <path d="M36.6866826,5.65907557 L32.4013255,5.65907557 C32.0275037,5.65907557 31.7216495,5.35037112 31.7216495,4.97306568 L31.7216495,1.58074674 C31.7216495,1.2034413 32.0275037,0.894736842 32.4013255,0.894736842 L36.6866826,0.894736842 C37.0605044,0.894736842 37.3663586,1.2034413 37.3663586,1.58074674 L37.3663586,4.97306568 C37.3663586,5.35037112 37.0605044,5.65907557 36.6866826,5.65907557" id="Fill-5" fill="#EFEFEF" transform="translate(34.544004, 3.276906) scale(1, -1) translate(-34.544004, -3.276906) "></path>
                        <path d="M112.224722,32.5870333 L105.93704,32.5870333 C105.376307,32.5870333 104.917526,32.1239766 104.917526,31.5580184 L104.917526,27.7307692 C104.917526,27.1648111 105.376307,26.7017544 105.93704,26.7017544 L112.224722,26.7017544 C112.785455,26.7017544 113.244236,27.1648111 113.244236,27.7307692 L113.244236,31.5580184 C113.244236,32.1239766 112.785455,32.5870333 112.224722,32.5870333" id="Fill-7" fill="#EFEFEF" transform="translate(109.080881, 29.644394) scale(1, -1) translate(-109.080881, -29.644394) "></path>
                        <path d="M104.226819,48.8608067 C104.60064,48.8608067 104.906495,49.1695111 104.906495,49.5468166 L104.906495,52.9384495 C104.906495,53.3164409 104.60064,53.6244594 104.226819,53.6244594 L103.564814,53.6244594 C103.564814,53.6244594 103.266436,53.6224014 103.127783,53.7403951 C102.96602,53.8789691 102.988449,54.1437689 102.988449,54.1437689 L102.988449,55.7881346 C102.988449,56.6120325 102.319648,57.2870662 101.502677,57.2870662 L86.8019651,57.2870662 C85.9849946,57.2870662 85.3168731,56.6120325 85.3168731,55.7881346 L85.3168731,52.9007189 C85.3168731,52.076135 85.9849946,51.4017873 86.8019651,51.4017873 L90.31589,51.4017873 C90.31589,51.4017873 90.8147722,51.3311283 91.0805255,51.0183078 C91.4271603,50.6094459 91.433957,50.2355705 91.433957,50.2355705 L91.433957,46.7259439 C91.433957,45.971333 92.0456654,45.3539241 92.793309,45.3539241 L99.3080034,45.3539241 C100.055647,45.3539241 100.667355,45.971333 100.667355,46.7259439 L100.667355,48.1343222 C100.667355,48.1343222 100.670754,48.5054535 100.838634,48.674898 C101.006514,48.8443424 101.317805,48.8608067 101.317805,48.8608067 L104.226819,48.8608067 Z" id="Fill-1" fill="#EFEFEF" transform="translate(95.111684, 51.320495) scale(-1, 1) rotate(-270.000000) translate(-95.111684, -51.320495) "></path>
                        <path d="M18.3071966,60.2423977 L12.019514,60.2423977 C11.4587813,60.2423977 11,59.779341 11,59.2133828 L11,51.8360324 C11,51.2700742 11.4587813,50.8070175 12.019514,50.8070175 L18.3071966,50.8070175 C18.8679293,50.8070175 19.3267106,51.2700742 19.3267106,51.8360324 L19.3267106,59.2133828 C19.3267106,59.779341 18.8679293,60.2423977 18.3071966,60.2423977" id="Fill-11" fill="#EFEFEF"></path>
                        <path d="M66.8722496,17.8345142 L62.5868925,17.8345142 C62.2130707,17.8345142 61.9072165,17.5258097 61.9072165,17.1485043 L61.9072165,13.7561853 C61.9072165,13.3788799 62.2130707,13.0701754 62.5868925,13.0701754 L66.8722496,13.0701754 C67.2460714,13.0701754 67.5519256,13.3788799 67.5519256,13.7561853 L67.5519256,17.1485043 C67.5519256,17.5258097 67.2460714,17.8345142 66.8722496,17.8345142" id="Fill-9" fill="#EFEFEF"></path>
                        <g id="Group-7" stroke-width="1" fill="none" transform="translate(41.000000, 29.000000)">
                            <g id="Group" transform="translate(0.584128, 22.666667)">
                                <path d="M16.2322638,9.31425813 L16.2322638,12.8782806 C16.2322638,12.8782806 15.9191783,14.8566399 18.2961261,14.8250462 C20.6730739,14.7934524 31.6037192,14.8250462 31.6037192,14.8250462 C31.6037192,14.8250462 32.9705855,13.0663925 27.1697867,10.1976295 C25.2001898,9.22357285 23.3094491,9.43680546 21.6680489,9.31425813 C18.4752456,9.07588269 16.2322638,9.31425813 16.2322638,9.31425813 Z" id="Path-7" fill="#FFF9E6"></path>
                                <path d="M1.23226375,9.31425813 L1.23226375,12.8782806 C1.23226375,12.8782806 0.919178294,13.8649271 3.29612612,13.8333333 C5.67307394,13.8017396 16.6037192,13.8333333 16.6037192,13.8333333 C16.6037192,13.8333333 17.9705855,13.0663925 12.1697867,10.1976295 C10.2001898,9.22357285 8.30944913,9.43680546 6.66804891,9.31425813 C3.47524559,9.07588269 1.23226375,9.31425813 1.23226375,9.31425813 Z" id="Path-7" fill="#FFF9E6" transform="translate(8.981307, 11.521195) scale(-1, 1) translate(-8.981307, -11.521195) "></path>
                                <path d="M0.536053856,14.1486461 C-0.168005947,6.93611056 2.22501052,2.48497852 7.71510325,0.795249975 C10.2320469,0.0205906484 13.5146613,0.180787436 15.9083505,0.216413848 C18.9629473,0.261876862 21.6141704,0.350422535 23.8620197,0.482050868 L23.8620197,0.482050868 C23.8942007,0.483935306 23.9261869,0.488314825 23.9576901,0.495149965 C29.5543289,1.70943445 32.2112938,6.29042713 31.928585,14.238128" id="Path-4" stroke="#EAC435" stroke-width="1.5" stroke-linecap="round"></path>
                            </g>
                            <g id="Group-13" transform="translate(7.176425, 0.000000)" stroke="#EAC435" stroke-width="1.5">
                                <ellipse id="Oval-3" cx="10.013616" cy="9.83698055" rx="9.66831892" ry="9.65517241"></ellipse>
                            </g>
                            <path d="M12.8508072,36.75 L32.569928,36.75" id="Line" stroke="#EAC435" stroke-width="1.5" stroke-linecap="square"></path>
                            <path d="M4.84263762,36.75 L9.64263762,36.75" id="Line" stroke="#EAC435" stroke-width="1.5" stroke-linecap="square"></path>
                        </g>
                    </g>
                </g>
                <g id="L-Light" mask="url(#mask-2)">
                    <g transform="translate(7.000000, 3.000000)">
                        <path d="M20.1943359,29.766276 L29.3046875,39.202474" id="Path-8" stroke="#EAC435" stroke-width="1.5" fill="none"></path>
                        <path d="M29.6666667,29.5143229 L23.9296875,27" id="Path-9" stroke="#EAC435" stroke-width="1.5" fill="none"></path>
                        <polygon id="Path-12" stroke="none" fill="#FFF9E6" fill-rule="evenodd" points="11.6564941 33.6992188 1.6862793 21.5952148 11.0161133 11.2370605 10.626709 15.7980957 13.3518066 18.8330078 12.751709 21.9863281 12.751709 26.3474121 13.720459 29.942627 14.0563965 31.3845215"></polygon>
                        <path d="M3.09939236,19.3461372 L1.49446521,17.6219297 L1.49446521,17.6219297 C0.758413738,16.8311739 0.783351546,15.5988146 1.55079055,14.8384832 L5.28378876,11.1400579 L5.28378876,11.1400579 C6.04312944,10.3877498 7.25980493,10.3655016 8.04614229,11.0895453 L9.48980035,12.4188368" id="Path-7" stroke="#EAC435" stroke-width="1.5" fill="#FFF9E6" fill-rule="evenodd"></path>
                        <path d="M1.74873001,20.5049345 L10.8846615,11.4776819 L10.8846615,11.4776819 C11.2184178,11.147896 11.7365796,11.0945049 12.1305711,11.3493042 L24.0564763,19.0619374 L24.0564763,19.0619374 C24.5202313,19.3618536 24.6530489,19.9809314 24.3531327,20.4446865 C24.3207488,20.494761 24.2839508,20.5418384 24.2431783,20.5853559 L12.2505251,33.3854387 L12.2505251,33.3854387 C11.8729193,33.7884676 11.2400898,33.809077 10.8370609,33.4314712 C10.8006605,33.3973669 10.7668628,33.3605869 10.7359509,33.3214392 L1.6667674,21.8359759 L1.6667674,21.8359759 C1.35108049,21.4361813 1.38637715,20.8629769 1.74873001,20.5049345 Z" id="Path-5" stroke="#EAC435" stroke-width="1.5" fill="none"></path>
                        <path d="M8,31.3563368 L21.2875434,18" id="Path-6" stroke="#EAC435" stroke-width="1.5" fill="none"></path>
                        <g id="Oval-2" stroke="none" fill="none">
                            <use fill="#FFF9E6" fill-rule="evenodd" xlink:href="#path-3"></use>
                            <circle stroke="#EAC435" stroke-width="1.5" cx="11.25" cy="20.25" r="2.75"></circle>
                        </g>
                        <path d="M19.4817708,38.9160156 L16.9980469,33.5970052" id="Path-10" stroke="#EAC435" stroke-width="1.5" fill="none"></path>
                        <path d="M11.3,19.5 L11.3,0" id="Path-11" stroke="#EAC435" stroke-width="1.5" fill="none"></path>
                    </g>
                </g>
                <g id="R-Light" mask="url(#mask-2)">
                    <g transform="translate(84.000000, 23.000000) scale(-1, 1) translate(-84.000000, -23.000000) translate(69.000000, 3.000000)">
                        <path d="M20.1943359,29.766276 L29.3046875,39.202474" id="Path-8" stroke="#EAC435" stroke-width="1.5" fill="none"></path>
                        <polygon id="Path-13" stroke="none" fill="#FFF9E6" fill-rule="evenodd" transform="translate(7.619092, 22.343506) scale(-1, 1) translate(-7.619092, -22.343506) " points="2.99384766 11 13.3 21.4824219 3.72333984 33.6870117 1.93818359 29.1489258 2.99384766 28.0493164 4.81757812 26.4506836 5.59931641 23.7167969 5.59931641 20.4956055 6.95917969 19.03125 4.81757812 15.3510742"></polygon>
                        <path d="M1.74873001,20.5049345 L10.8846615,11.4776819 L10.8846615,11.4776819 C11.2184178,11.147896 11.7365796,11.0945049 12.1305711,11.3493042 L24.0564763,19.0619374 L24.0564763,19.0619374 C24.5202313,19.3618536 24.6530489,19.9809314 24.3531327,20.4446865 C24.3207488,20.494761 24.2839508,20.5418384 24.2431783,20.5853559 L12.2505251,33.3854387 L12.2505251,33.3854387 C11.8729193,33.7884676 11.2400898,33.809077 10.8370609,33.4314712 C10.8006605,33.3973669 10.7668628,33.3605869 10.7359509,33.3214392 L1.6667674,21.8359759 L1.6667674,21.8359759 C1.35108049,21.4361813 1.38637715,20.8629769 1.74873001,20.5049345 Z" id="Path-5" stroke="#EAC435" stroke-width="1.5" fill="none"></path>
                        <path d="M29.6666667,29.5143229 L23.9296875,27" id="Path-9" stroke="#EAC435" stroke-width="1.5" fill="none"></path>
                        <path d="M3.09939236,19.3461372 L1.49446521,17.6219297 L1.49446521,17.6219297 C0.758413738,16.8311739 0.783351546,15.5988146 1.55079055,14.8384832 L5.28378876,11.1400579 L5.28378876,11.1400579 C6.04312944,10.3877498 7.25980493,10.3655016 8.04614229,11.0895453 L9.48980035,12.4188368" id="Path-7" stroke="#EAC435" stroke-width="1.5" fill="#FFF9E6" fill-rule="evenodd"></path>
                        <path d="M8,31.3563368 L21.2875434,18" id="Path-6" stroke="#EAC435" stroke-width="1.5" fill="none"></path>
                        <g id="Oval-2" stroke="none" fill="none">
                            <use fill="#FFF9E6" fill-rule="evenodd" xlink:href="#path-4"></use>
                            <circle stroke="#EAC435" stroke-width="1.5" cx="11.25" cy="20.25" r="2.75"></circle>
                        </g>
                        <path d="M19.4817708,38.9160156 L16.9980469,33.5970052" id="Path-10" stroke="#EAC435" stroke-width="1.5" fill="none"></path>
                        <path d="M11.3,19.5 L11.3,0" id="Path-11" stroke="#EAC435" stroke-width="1.5" fill="none"></path>
                    </g>
                </g>
            </g>
        </g>
    </g>
</svg>