<svg xmlns="http://www.w3.org/2000/svg" width="72" height="72" viewBox="0 0 72 72">
  <g fill="none" transform="translate(20 14)">
    <path fill="#E6A32A" d="M15.9786574,15.441613 L8.19309236,15.441613 L7.07222104,27.5954283 L7.09635558,27.5193183 L15.9786574,27.5193183 L15.9786574,33.922354 L11.5422543,32.6412832 L11.2759831,29.5298907 L7.24828449,29.5298907 L7.82355695,35.7475225 L15.9786574,38.0624226 L15.9786574,42.2033945 L26.4641258,39.2251944 L29.0176392,11.4585232 L15.9786574,11.4585232 L15.9786574,15.441613 Z M15.9786574,19.4770285 L15.9786574,23.5457421 L11.2803352,23.5457421 L11.4654985,19.4770285 L15.9786574,19.4770285 Z M31.9137839,8.81449357 L28.9226836,41.2742183 L15.9790531,44.9524717 L3.03027913,41.2742183 L0.0439265966,8.81449357 L15.9790531,8.81449357 L31.9137839,8.81449357 Z"/>
    <polygon fill="#231F20" points="12.878 4.026 10.044 4.026 10.044 6.065 14.908 6.065 14.908 .005 12.878 .005"/>
    <path fill="#231F20" d="M21.9141716,0.036077458 L16.9709431,0.036077458 L16.9709431,2.15843645 C17.6316756,2.82083127 17.9770765,3.13795626 18.9337538,4.09646654 C18.3743072,4.09646654 16.9709431,4.09844857 16.9709431,4.09844857 L16.9709431,6.03449663 L21.9141716,6.03449663 L21.9141716,4.09805217 L19.9398871,2.15843645 L21.9141716,2.15843645 L21.9141716,0.036077458 Z"/>
    <polygon fill="#F1BF22" points="24.309 15.412 15.953 15.415 15.994 27.59 20.795 27.59 20.32 32.632 15.953 33.869 15.953 38.15 24.214 35.772 25.258 23.499 15.994 23.499 15.967 19.503 20.998 19.503 21.128 21.882 25.258 21.882"/>
  </g>
</svg>
