<?xml version="1.0" encoding="UTF-8"?>
<svg width="64px" height="64px" viewBox="0 0 64 64" version="1.1" xmlns="http://www.w3.org/2000/svg" xmlns:xlink="http://www.w3.org/1999/xlink">
    <!-- Generator: Sketch 43.2 (39069) - http://www.bohemiancoding.com/sketch -->
    <title>C++</title>
    <desc>Created with Sketch.</desc>
    <defs></defs>
    <g id="Page-1" stroke="none" stroke-width="1" fill="none" fill-rule="evenodd">
        <g id="C++" fill-rule="nonzero">
            <g id="c-seeklogo.com" transform="translate(11.000000, 8.000000)">
                <path d="M42.5948333,14.12 C42.5945,13.315 42.4223333,12.6036667 42.0741667,11.9931667 C41.7321667,11.3928333 41.22,10.8896667 40.533,10.4918333 C34.8621667,7.222 29.1858333,3.96216667 23.5168333,0.689 C21.9885,-0.193333333 20.5066667,-0.161166667 18.9896667,0.733833333 C16.7325,2.065 5.43166667,8.5395 2.06416667,10.49 C0.677333333,11.2928333 0.0025,12.5215 0.00216666667,14.1185 C0,20.6943333 0.00216666667,27.27 0,33.846 C0.000333333333,34.6333333 0.165166667,35.3308333 0.498,35.9321667 C0.840166667,36.5506667 1.3595,37.0676667 2.06233333,37.4745 C5.43,39.425 16.7323333,45.899 18.989,47.2305 C20.5066667,48.126 21.9885,48.158 23.5173333,47.2753333 C29.1865,44.002 34.8631667,40.7423333 40.5348333,37.4725 C41.2376667,37.0658333 41.757,36.5485 42.0991667,35.9305 C42.4315,35.3291667 42.5966667,34.6316667 42.597,33.8441667 C42.597,33.8441667 42.597,20.696 42.5948333,14.12" id="Shape" fill="#5C8DBC"></path>
                <path d="M21.3636667,23.9181667 L0.498,35.9321667 C0.840166667,36.5506667 1.3595,37.0676667 2.06233333,37.4745 C5.43,39.425 16.7323333,45.899 18.989,47.2305 C20.5066667,48.126 21.9885,48.158 23.5173333,47.2753333 C29.1865,44.002 34.8631667,40.7423333 40.5348333,37.4725 C41.2376667,37.0658333 41.757,36.5485 42.0991667,35.9305 L21.3636667,23.9181667" id="Shape" fill="#1A4674"></path>
                <path d="M15.1835,27.4768333 C16.3976667,29.5965 18.6801667,31.0261667 21.2985,31.0261667 C23.933,31.0261667 26.2285,29.5783333 27.4365,27.436 L21.3636667,23.9181667 L15.1835,27.4768333" id="Shape" fill="#1A4674"></path>
                <path d="M42.5948333,14.12 C42.5945,13.315 42.4223333,12.6036667 42.0741667,11.9931667 L21.3636667,23.9181667 L42.0991667,35.9305 C42.4315,35.3291667 42.5966667,34.6316667 42.597,33.8441667 C42.597,33.8441667 42.597,20.696 42.5948333,14.12" id="Shape" fill="#1B598E"></path>
                <polyline id="Shape" fill="#FFFFFF" points="41.4546667 24.7768333 39.8343333 24.7768333 39.8343333 26.3975 38.2136667 26.3975 38.2136667 24.7768333 36.5935 24.7768333 36.5935 23.1566667 38.2136667 23.1566667 38.2136667 21.5363333 39.8343333 21.5363333 39.8343333 23.1566667 41.4546667 23.1566667 41.4546667 24.7768333"></polyline>
                <polyline id="Shape" fill="#FFFFFF" points="35.5421667 24.7768333 33.922 24.7768333 33.922 26.3975 32.3016667 26.3975 32.3016667 24.7768333 30.6813333 24.7768333 30.6813333 23.1566667 32.3016667 23.1566667 32.3016667 21.5363333 33.922 21.5363333 33.922 23.1566667 35.5421667 23.1566667 35.5421667 24.7768333"></polyline>
                <path d="M27.4365,27.436 C26.2285,29.5783333 23.933,31.0261667 21.2985,31.0261667 C18.6801667,31.0261667 16.3976667,29.5965 15.1835,27.4768333 C14.5936667,26.4468333 14.2545,25.2543333 14.2545,23.9821667 C14.2545,20.092 17.4083333,16.9383333 21.2985,16.9383333 C23.9,16.9383333 26.1705,18.3501667 27.3906667,20.4481667 L33.5475,16.9028333 C31.1003333,12.6785 26.5315,9.8365 21.2985,9.8365 C13.4858333,9.8365 7.15266667,16.1698333 7.15266667,23.9821667 C7.15266667,26.5451667 7.8345,28.9486667 9.02616667,31.0218333 C11.4671667,35.2685 16.049,38.128 21.2985,38.128 C26.5576667,38.128 31.1466667,35.257 33.5841667,30.9978333 L27.4365,27.436" id="Shape" fill="#FFFFFF"></path>
            </g>
        </g>
    </g>
</svg>