<svg xmlns="http://www.w3.org/2000/svg" width="72" height="72" viewBox="0 0 72 72">
  <g fill="none" transform="translate(16 16)">
    <polygon fill="#F6C358" points="13.097 15.696 13.097 24.294 19.995 27.093 19.995 18.545"/>
    <polygon fill="#DC8744" points="19.995 18.545 19.995 18.545 19.995 27.093 19.995 27.093 26.893 24.294 26.893 15.696"/>
    <polygon fill="#FCD462" points="19.995 18.545 26.893 15.696 19.995 12.897 13.097 15.696"/>
    <g fill="#3A556A">
      <path d="M19.9951037,30.6925311 L19.9951037,29.5927801 C20.4449793,29.5927801 20.8948548,29.5428216 21.3448133,29.4927801 L21.4947718,30.5925311 C21.0448963,30.6424896 20.4950207,30.6925311 19.9951037,30.6925311 Z M18.4955187,30.5925311 C17.9956017,30.5425726 17.4957676,30.3926141 16.9958506,30.2926141 L17.2957676,29.2429046 C17.7456432,29.3928631 18.1955187,29.4428216 18.6454772,29.5428216 L18.4955187,30.5925311 Z M23.0443983,30.2426556 L22.6945228,29.2429046 C23.1443983,29.0929461 23.5443154,28.9429876 23.9941909,28.7429876 L24.4440664,29.7427386 C23.9941079,29.9426556 23.4942739,30.1426556 23.0443983,30.2426556 Z M15.5462241,29.7427386 C15.0963485,29.5428216 14.646473,29.2928631 14.1965145,28.9929461 L14.7963485,28.093195 C15.1962656,28.3431535 15.5961826,28.5430705 15.9960166,28.7430705 L15.5462241,29.7427386 Z M25.7936929,28.9929461 L25.1938589,28.093195 C25.5937759,27.8432365 25.9436515,27.593278 26.29361,27.293361 L26.993444,28.093195 C26.6434855,28.393029 26.19361,28.7429876 25.7936929,28.9929461 Z M12.9968465,28.093112 C12.5969295,27.7432365 12.2470539,27.393278 11.8970954,26.993361 L12.6969295,26.293527 C12.9968465,26.6434025 13.346805,26.9434025 13.646722,27.2433195 L12.9968465,28.093112 Z M28.093112,26.993444 L27.2433195,26.29361 C27.5432365,25.9437344 27.8431535,25.5937759 28.0431535,25.1938589 L28.9429046,25.7936929 C28.7429876,26.19361 28.4430705,26.6434855 28.093112,26.993444 Z M10.9973444,25.7936929 C10.6974274,25.3438174 10.4974274,24.8939419 10.2475519,24.4439834 L11.2473029,23.9941079 C11.4472199,24.3940249 11.6472199,24.7939419 11.8971784,25.1937759 L10.9973444,25.7936929 Z M29.7427386,24.4440664 L28.7429876,23.9941909 C28.9429046,23.5942739 29.0928631,23.1443983 29.2429046,22.6945228 L30.2926141,22.9944398 C30.1426556,23.4942739 29.9426556,23.9941079 29.7427386,24.4440664 Z M9.74763485,23.0443983 C9.59767635,22.5444813 9.49767635,22.0446473 9.39775934,21.5447303 L10.4975104,21.3947718 C10.5474689,21.8446473 10.6474689,22.2945228 10.7974274,22.7444813 L9.74763485,23.0443983 Z M30.5925311,21.4947718 L29.4927801,21.3448133 C29.5427386,20.8949378 29.5927801,20.4450622 29.5927801,19.9951037 L30.4425726,19.9451452 L30.6925311,19.9451452 C30.6925311,20.4950207 30.6424896,20.9948548 30.5925311,21.4947718 Z M9.29775934,19.9951037 L9.29775934,19.9951037 C9.29775934,19.4951867 9.34771784,18.9453942 9.39775934,18.4954357 L10.4975104,18.6453942 C10.4475519,19.0952697 10.3975104,19.5451452 10.3975104,19.9951037 L9.29775934,19.9951037 Z M29.4927801,18.5954357 C29.4428216,18.1455602 29.3428216,17.6956846 29.1928631,17.2457261 L30.2425726,16.9458091 C30.3925311,17.4457261 30.4925311,17.9455602 30.5924481,18.4454772 L29.4927801,18.5954357 Z M10.7473859,17.2957676 L9.69767635,16.9958506 C9.84763485,16.4959336 9.99759336,16.0460581 10.2475519,15.5462241 L11.2473029,15.9960996 C11.0473029,16.4459751 10.8973444,16.8458921 10.7473859,17.2957676 Z M28.7429876,15.9461411 C28.5430705,15.5462241 28.3430705,15.1463071 28.093112,14.746473 L28.9928631,14.146639 C29.2927801,14.5965145 29.5427386,15.04639 29.7426556,15.4963485 L28.7429876,15.9461411 Z M11.8970954,14.7963485 L10.9973444,14.246473 C11.2473029,13.7965975 11.5971784,13.3966805 11.8970954,13.046805 L12.746888,13.746639 C12.3970124,14.046556 12.1470539,14.446473 11.8970954,14.7963485 Z M27.2433195,13.6966805 C26.9434025,13.346805 26.593444,13.046805 26.293527,12.746888 L26.993361,11.8970954 C27.393278,12.246971 27.7431535,12.5969295 28.093112,12.9968465 L27.2433195,13.6966805 Z M13.6966805,12.746888 L12.9968465,11.9470539 C13.3967635,11.5971784 13.7966805,11.2971784 14.1965145,11.0473029 L14.7963485,11.9470539 C14.3965145,12.1470539 14.046556,12.446971 13.6966805,12.746888 Z M25.1439004,11.8970954 C24.7439834,11.6471369 24.3440664,11.4472199 23.9442324,11.2472199 L24.3941079,10.2474689 C24.8439834,10.4473859 25.2938589,10.6973444 25.7438174,10.9972614 L25.1439004,11.8970954 Z M15.9960996,11.2472199 L15.5462241,10.2474689 C15.9960996,10.0475519 16.4960166,9.84755187 16.9958506,9.69759336 L17.2957676,10.7473029 C16.8458921,10.8973444 16.3960166,11.0473029 15.9960996,11.2472199 Z M22.6944398,10.7473859 C22.2445643,10.5974274 21.7946888,10.5474689 21.3447303,10.4474689 L21.4946888,9.34771784 C21.9946058,9.39767635 22.4944398,9.54763485 22.9943568,9.64763485 L22.6944398,10.7473859 Z M18.5954357,10.4974274 L18.4454772,9.39767635 C18.9453942,9.34771784 19.4452282,9.29767635 19.9451452,9.29767635 L19.9451452,10.3974274 C19.4952697,10.3974274 19.0453112,10.3974274 18.5954357,10.4974274 Z"/>
      <polygon points="23.494 3.499 19.995 0 16.496 3.499 17.246 4.299 19.445 2.1 19.445 7.348 20.545 7.348 20.545 2.1 22.744 4.299"/>
      <polygon points="16.496 36.491 19.995 39.99 23.494 36.491 22.744 35.691 20.545 37.891 20.545 32.642 19.445 32.642 19.445 37.891 17.246 35.691"/>
      <polygon points="36.491 23.494 39.99 19.995 36.491 16.496 35.691 17.246 37.891 19.445 32.642 19.445 32.642 20.545 37.891 20.545 35.691 22.744"/>
      <polygon points="3.499 16.496 0 19.995 3.499 23.494 4.299 22.744 2.1 20.545 7.348 20.545 7.348 19.445 2.1 19.445 4.299 17.246"/>
      <polygon points="34.142 10.797 34.142 5.849 29.193 5.849 29.193 6.948 32.292 6.948 28.543 10.647 29.343 11.447 33.042 7.698 33.042 10.797"/>
      <polygon points="5.849 29.193 5.849 34.142 10.797 34.142 10.797 33.042 7.698 33.042 11.447 29.343 10.647 28.543 6.948 32.292 6.948 29.193"/>
      <polygon points="29.193 34.142 34.142 34.142 34.142 29.193 33.042 29.193 33.042 32.292 29.343 28.543 28.543 29.343 32.292 33.042 29.193 33.042"/>
      <polygon points="10.797 5.849 5.849 5.849 5.849 10.797 6.948 10.797 6.948 7.698 10.647 11.447 11.447 10.647 7.698 6.948 10.797 6.948"/>
    </g>
  </g>
</svg>
