<?xml version="1.0" encoding="UTF-8"?>
<svg width="72px" height="72px" viewBox="0 0 72 72" version="1.1" xmlns="http://www.w3.org/2000/svg" xmlns:xlink="http://www.w3.org/1999/xlink">
    <!-- Generator: Sketch 51.3 (57544) - http://www.bohemiancoding.com/sketch -->
    <title>Jquery</title>
    <desc>Created with Sketch.</desc>
    <defs></defs>
    <g id="Jquery" stroke="none" stroke-width="1" fill="none" fill-rule="evenodd">
        <g id="JQuery-Logo" transform="translate(12.000000, 30.000000)" fill-rule="nonzero">
            <g id="Group" transform="translate(17.892473, 9.126761)" fill="#0769AD">
                <path d="M0.550537634,1.52112676 C0.550537634,1.62253521 0.533333333,1.72394366 0.533333333,1.84225352 L0.96344086,1.08169014 L0.911827957,0.828169014 L1.34193548,0.76056338 L1.49677419,1.82535211 L1.68602151,1.16619718 C1.70322581,1.09859155 1.70322581,1.04788732 1.70322581,0.997183099 C1.70322581,0.946478873 1.70322581,0.895774648 1.68602151,0.828169014 L2.13333333,0.743661972 C2.15053763,0.828169014 2.16774194,0.912676056 2.15053763,0.997183099 C2.15053763,1.09859155 2.11612903,1.21690141 2.04731183,1.4028169 L1.68602151,2.36619718 L1.15268817,2.36619718 L1.03225806,1.65633803 L0.619354839,2.36619718 L0.103225806,2.36619718 C0.120430108,1.70704225 0.103225806,1.28450704 0.0516129032,0.845070423 L0.498924731,0.777464789 C0.550537634,0.997183099 0.567741935,1.25070423 0.550537634,1.52112676 Z" id="Shape"></path>
                <path d="M3.33763441,1.14929577 C3.1311828,1.25070423 3.04516129,1.30140845 2.85591398,1.41971831 L2.64946237,2.34929577 L2.18494624,2.34929577 L2.51182796,0.811267606 L2.92473118,0.743661972 L2.90752688,0.963380282 C3.06236559,0.878873239 3.2,0.811267606 3.33763441,0.743661972 L3.33763441,1.14929577 Z" id="Shape"></path>
                <path d="M3.61290323,0.811267606 L4.09462366,0.743661972 L3.75053763,2.34929577 L3.28602151,2.34929577 L3.61290323,0.811267606 Z M3.76774194,0.118309859 L4.24946237,0.0507042254 L4.14623656,0.54084507 L3.66451613,0.608450704 L3.76774194,0.118309859 Z" id="Shape"></path>
                <path d="M4.95483871,1.13239437 L4.7827957,1.90985915 C4.7827957,1.92676056 4.7827957,1.94366197 4.7827957,1.94366197 C4.7827957,1.96056338 4.8,1.97746479 4.8344086,1.97746479 C4.92043011,1.97746479 5.00645161,1.94366197 5.09247312,1.90985915 L5.17849462,2.23098592 C5.04086022,2.29859155 4.8516129,2.36619718 4.66236559,2.36619718 C4.42150538,2.36619718 4.30107527,2.24788732 4.31827957,2.06197183 C4.31827957,2.04507042 4.31827957,2.01126761 4.33548387,1.9943662 L4.52473118,1.11549296 L4.28387097,1.11549296 L4.36989247,0.743661972 L4.61075269,0.743661972 L4.69677419,0.371830986 L5.17849462,0.304225352 L5.09247312,0.743661972 L5.47096774,0.743661972 L5.36774194,1.11549296 L4.95483871,1.11549296 L4.95483871,1.13239437 Z" id="Shape"></path>
                <path d="M5.50537634,1.33521127 C5.59139785,0.98028169 5.76344086,0.743661972 6.26236559,0.743661972 C6.57204301,0.743661972 6.79569892,0.878873239 6.77849462,1.13239437 C6.76129032,1.43661972 6.60645161,1.58873239 6.21075269,1.69014085 C6.02150538,1.74084507 6.00430108,1.74084507 5.86666667,1.7915493 L5.84946237,1.89295775 C5.83225806,1.94366197 5.84946237,2.01126761 5.93548387,2.01126761 C6.10752688,2.01126761 6.3483871,1.92676056 6.57204301,1.84225352 L6.64086022,2.16338028 C6.4344086,2.28169014 6.12473118,2.38309859 5.84946237,2.38309859 C5.52258065,2.38309859 5.38494624,2.24788732 5.38494624,1.97746479 C5.38494624,1.92676056 5.40215054,1.85915493 5.41935484,1.7915493 L5.50537634,1.33521127 Z M6.3483871,1.18309859 C6.3483871,1.13239437 6.29677419,1.09859155 6.21075269,1.09859155 C6.03870968,1.09859155 5.98709677,1.2 5.96989247,1.31830986 L5.95268817,1.43661972 C6.03870968,1.41971831 6.07311828,1.4028169 6.15913978,1.38591549 C6.27956989,1.33521127 6.3483871,1.28450704 6.3483871,1.18309859 Z" id="Shape"></path>
                <polygon id="Shape" points="7.9827957 0.135211268 8.46451613 0.0676056338 7.9827957 2.34929577 7.51827957 2.34929577"></polygon>
                <path d="M8.51612903,1.33521127 C8.60215054,0.98028169 8.77419355,0.743661972 9.27311828,0.743661972 C9.5827957,0.743661972 9.80645161,0.878873239 9.78924731,1.13239437 C9.77204301,1.43661972 9.6172043,1.58873239 9.22150538,1.69014085 C9.03225806,1.74084507 9.01505376,1.74084507 8.87741935,1.7915493 L8.86021505,1.89295775 C8.84301075,1.94366197 8.86021505,2.01126761 8.94623656,2.01126761 C9.11827957,2.01126761 9.35913978,1.92676056 9.5827957,1.84225352 L9.6516129,2.16338028 C9.44516129,2.28169014 9.13548387,2.38309859 8.86021505,2.38309859 C8.53333333,2.38309859 8.39569892,2.24788732 8.39569892,1.97746479 C8.39569892,1.92676056 8.41290323,1.85915493 8.43010753,1.7915493 L8.51612903,1.33521127 Z M9.35913978,1.18309859 C9.35913978,1.13239437 9.30752688,1.09859155 9.22150538,1.09859155 C9.04946237,1.09859155 8.99784946,1.2 8.98064516,1.31830986 L8.96344086,1.43661972 C9.04946237,1.41971831 9.08387097,1.4028169 9.16989247,1.38591549 C9.29032258,1.33521127 9.35913978,1.28450704 9.35913978,1.18309859 Z" id="Shape"></path>
                <path d="M9.84086022,2.28169014 L9.94408602,1.94366197 C10.0645161,1.97746479 10.2021505,2.02816901 10.3741935,2.02816901 C10.5290323,2.02816901 10.5462366,1.97746479 10.5634409,1.90985915 C10.5806452,1.84225352 10.5290323,1.8084507 10.3569892,1.70704225 C10.0301075,1.53802817 10.0129032,1.41971831 10.0645161,1.18309859 C10.1333333,0.845070423 10.2365591,0.76056338 10.683871,0.76056338 C10.8387097,0.76056338 11.027957,0.794366197 11.1655914,0.828169014 L11.0795699,1.16619718 C10.9591398,1.13239437 10.7870968,1.11549296 10.683871,1.11549296 C10.5462366,1.11549296 10.5290323,1.13239437 10.511828,1.21690141 C10.4946237,1.28450704 10.511828,1.30140845 10.6666667,1.38591549 C11.027957,1.57183099 11.0795699,1.63943662 11.027957,1.89295775 C10.9419355,2.24788732 10.8387097,2.38309859 10.3569892,2.38309859 C10.1849462,2.38309859 9.97849462,2.33239437 9.84086022,2.28169014 Z" id="Shape"></path>
                <path d="M11.1655914,2.28169014 L11.2688172,1.94366197 C11.3892473,1.97746479 11.5268817,2.02816901 11.6989247,2.02816901 C11.8537634,2.02816901 11.8709677,1.97746479 11.888172,1.90985915 C11.9053763,1.84225352 11.8537634,1.8084507 11.6817204,1.70704225 C11.3548387,1.53802817 11.3376344,1.41971831 11.3892473,1.18309859 C11.4580645,0.845070423 11.5612903,0.76056338 12.0086022,0.76056338 C12.1634409,0.76056338 12.3526882,0.794366197 12.4903226,0.828169014 L12.4043011,1.16619718 C12.283871,1.13239437 12.111828,1.11549296 12.0086022,1.11549296 C11.8709677,1.11549296 11.8537634,1.13239437 11.8365591,1.21690141 C11.8193548,1.28450704 11.8365591,1.30140845 11.9913978,1.38591549 C12.3526882,1.57183099 12.4043011,1.63943662 12.3526882,1.89295775 C12.2666667,2.24788732 12.1634409,2.38309859 11.6817204,2.38309859 C11.5096774,2.38309859 11.3032258,2.33239437 11.1655914,2.28169014 Z" id="Shape"></path>
                <polygon id="Shape" points="12.4387097 2.70422535 12.6967742 2.34929577 12.5247312 2.34929577 12.6451613 1.8084507 13.1096774 1.8084507 12.9892473 2.38309859 12.6107527 2.82253521"></polygon>
                <path d="M14.9677419,2.34929577 L14.9677419,2.21408451 C14.8473118,2.31549296 14.6752688,2.38309859 14.4516129,2.38309859 C14.1075269,2.38309859 14.0215054,2.18028169 14.1075269,1.82535211 L14.1935484,1.4028169 C14.2795699,1.03098592 14.3827957,0.743661972 15.0537634,0.743661972 C15.1053763,0.743661972 15.2086022,0.743661972 15.2430108,0.76056338 L15.3806452,0.135211268 L15.8623656,0.0676056338 L15.3806452,2.34929577 L14.9677419,2.34929577 Z M14.5376344,1.87605634 C14.5204301,1.96056338 14.5376344,1.9943662 14.6236559,1.9943662 C14.7956989,1.9943662 14.916129,1.90985915 15.0021505,1.82535211 L15.1569892,1.13239437 C15.1053763,1.11549296 15.0365591,1.11549296 14.9849462,1.11549296 C14.744086,1.11549296 14.6924731,1.23380282 14.6580645,1.38591549 L14.5376344,1.87605634 Z" id="Shape"></path>
                <path d="M15.7935484,1.85915493 C15.7935484,1.82535211 15.7935484,1.7915493 15.8107527,1.74084507 L15.8967742,1.36901408 C15.9827957,0.963380282 16.1892473,0.726760563 16.7569892,0.726760563 C17.1870968,0.726760563 17.3763441,0.963380282 17.3591398,1.25070423 C17.3591398,1.28450704 17.3591398,1.31830986 17.3419355,1.36901408 L17.255914,1.74084507 C17.1698925,2.11267606 16.9806452,2.38309859 16.3956989,2.38309859 C15.9827957,2.38309859 15.7763441,2.14647887 15.7935484,1.85915493 Z M16.8774194,1.30140845 C16.8774194,1.18309859 16.8086022,1.11549296 16.6537634,1.11549296 C16.4817204,1.11549296 16.3784946,1.2 16.344086,1.35211268 L16.2580645,1.74084507 C16.2580645,1.75774648 16.2580645,1.7915493 16.2408602,1.8084507 C16.2408602,1.92676056 16.3096774,1.9943662 16.4645161,1.9943662 C16.6365591,1.9943662 16.7397849,1.90985915 16.7741935,1.75774648 L16.8602151,1.36901408 C16.8774194,1.33521127 16.8774194,1.31830986 16.8774194,1.30140845 Z" id="Shape"></path>
                <path d="M20.1806452,1.28450704 C20.1806452,1.26760563 20.1806452,1.25070423 20.1806452,1.23380282 C20.1806452,1.2 20.1634409,1.18309859 20.111828,1.18309859 C20.0258065,1.18309859 19.8193548,1.26760563 19.6817204,1.33521127 L19.4580645,2.34929577 L18.9935484,2.34929577 L19.2172043,1.28450704 C19.2172043,1.26760563 19.2172043,1.25070423 19.2172043,1.23380282 C19.2172043,1.2 19.2,1.18309859 19.1483871,1.18309859 C19.0623656,1.18309859 18.855914,1.26760563 18.7354839,1.33521127 L18.511828,2.34929577 L18.0473118,2.34929577 L18.3741935,0.811267606 L18.7870968,0.743661972 L18.7698925,0.912676056 C19.027957,0.794366197 19.2172043,0.726760563 19.4064516,0.726760563 C19.5612903,0.726760563 19.6473118,0.794366197 19.6817204,0.912676056 C19.9225806,0.777464789 20.1462366,0.726760563 20.3354839,0.726760563 C20.5419355,0.726760563 20.627957,0.845070423 20.6107527,1.04788732 C20.6107527,1.09859155 20.6107527,1.16619718 20.5935484,1.23380282 L20.3526882,2.33239437 L19.9569892,2.33239437 L20.1806452,1.28450704 Z" id="Shape"></path>
                <path d="M20.8344086,1.85915493 C20.8344086,1.82535211 20.8344086,1.7915493 20.8516129,1.74084507 L20.9376344,1.36901408 C21.0236559,0.963380282 21.2301075,0.726760563 21.7978495,0.726760563 C22.227957,0.726760563 22.4172043,0.963380282 22.4,1.25070423 C22.4,1.28450704 22.4,1.31830986 22.3827957,1.36901408 L22.2967742,1.74084507 C22.2107527,2.11267606 22.0215054,2.38309859 21.4365591,2.38309859 C21.0236559,2.38309859 20.8172043,2.14647887 20.8344086,1.85915493 Z M21.9182796,1.30140845 C21.9182796,1.18309859 21.8494624,1.11549296 21.6946237,1.11549296 C21.5225806,1.11549296 21.4193548,1.2 21.3849462,1.35211268 L21.2989247,1.74084507 C21.2989247,1.75774648 21.2989247,1.7915493 21.2817204,1.8084507 C21.2817204,1.92676056 21.3505376,1.9943662 21.5053763,1.9943662 C21.6774194,1.9943662 21.7806452,1.90985915 21.8150538,1.75774648 L21.9010753,1.36901408 C21.9182796,1.33521127 21.9182796,1.31830986 21.9182796,1.30140845 Z" id="Shape"></path>
                <path d="M23.6043011,1.14929577 C23.3978495,1.25070423 23.311828,1.30140845 23.1225806,1.41971831 L22.916129,2.34929577 L22.4516129,2.34929577 L22.7784946,0.811267606 L23.1913978,0.743661972 L23.1741935,0.963380282 C23.3290323,0.878873239 23.4666667,0.811267606 23.6043011,0.743661972 L23.6043011,1.14929577 Z" id="Shape"></path>
                <path d="M23.7247312,1.33521127 C23.8107527,0.98028169 23.9827957,0.743661972 24.4817204,0.743661972 C24.7913978,0.743661972 25.0150538,0.878873239 24.9978495,1.13239437 C24.9806452,1.43661972 24.8258065,1.58873239 24.4301075,1.69014085 C24.2408602,1.74084507 24.2236559,1.74084507 24.0860215,1.7915493 L24.0688172,1.89295775 C24.0516129,1.94366197 24.0688172,2.01126761 24.1548387,2.01126761 C24.3268817,2.01126761 24.5677419,1.92676056 24.7913978,1.84225352 L24.8602151,2.16338028 C24.6537634,2.28169014 24.344086,2.38309859 24.0688172,2.38309859 C23.7419355,2.38309859 23.6043011,2.24788732 23.6043011,1.97746479 C23.6043011,1.92676056 23.6215054,1.85915493 23.6387097,1.7915493 L23.7247312,1.33521127 Z M24.5677419,1.18309859 C24.5677419,1.13239437 24.516129,1.09859155 24.4301075,1.09859155 C24.2580645,1.09859155 24.2064516,1.2 24.1892473,1.31830986 L24.172043,1.43661972 C24.2580645,1.41971831 24.2924731,1.4028169 24.3784946,1.38591549 C24.4989247,1.33521127 24.5505376,1.28450704 24.5677419,1.18309859 Z" id="Shape"></path>
                <polygon id="Shape" points="25.1870968 1.8084507 25.6516129 1.8084507 25.5311828 2.34929577 25.0666667 2.34929577"></polygon>
            </g>
            <path d="M0.567741935,2.26478873 C-0.223655914,3.36338028 -0.120430108,4.81690141 0.48172043,5.98309859 C0.48172043,6.01690141 0.498924731,6.05070423 0.516129032,6.08450704 C0.516129032,6.10140845 0.533333333,6.11830986 0.550537634,6.13521127 C0.550537634,6.15211268 0.567741935,6.15211268 0.567741935,6.16901408 C0.584946237,6.18591549 0.584946237,6.2028169 0.602150538,6.21971831 C0.619354839,6.25352113 0.63655914,6.28732394 0.653763441,6.32112676 C0.670967742,6.33802817 0.670967742,6.35492958 0.688172043,6.37183099 C0.705376344,6.4056338 0.739784946,6.43943662 0.756989247,6.47323944 C0.774193548,6.49014085 0.774193548,6.50704225 0.791397849,6.52394366 C0.825806452,6.57464789 0.860215054,6.6084507 0.894623656,6.65915493 C0.894623656,6.65915493 0.894623656,6.65915493 0.894623656,6.65915493 C0.894623656,6.65915493 0.911827957,6.67605634 0.911827957,6.67605634 C0.946236559,6.70985915 0.96344086,6.76056338 0.997849462,6.7943662 C1.01505376,6.81126761 1.01505376,6.82816901 1.03225806,6.82816901 C1.06666667,6.86197183 1.08387097,6.89577465 1.11827957,6.92957746 C1.13548387,6.94647887 1.13548387,6.94647887 1.15268817,6.96338028 C1.18709677,7.01408451 1.22150538,7.04788732 1.27311828,7.08169014 C1.27311828,7.08169014 1.27311828,7.08169014 1.27311828,7.08169014 C1.27311828,7.08169014 1.27311828,7.08169014 1.27311828,7.08169014 C1.30752688,7.11549296 1.34193548,7.16619718 1.39354839,7.2 C1.41075269,7.21690141 1.41075269,7.21690141 1.42795699,7.23380282 C1.46236559,7.26760563 1.47956989,7.28450704 1.51397849,7.31830986 C1.5311828,7.33521127 1.5311828,7.33521127 1.5483871,7.35211268 C1.5827957,7.38591549 1.6344086,7.41971831 1.6688172,7.47042254 C1.6688172,7.47042254 1.6688172,7.47042254 1.6688172,7.47042254 C1.6688172,7.47042254 1.68602151,7.48732394 1.68602151,7.48732394 C1.72043011,7.52112676 1.75483871,7.55492958 1.80645161,7.58873239 C1.82365591,7.6056338 1.84086022,7.6056338 1.85806452,7.62253521 C1.89247312,7.63943662 1.92688172,7.67323944 1.96129032,7.69014085 C1.97849462,7.70704225 1.99569892,7.70704225 2.01290323,7.72394366 C2.04731183,7.75774648 2.08172043,7.77464789 2.11612903,7.7915493 C2.13333333,7.8084507 2.13333333,7.8084507 2.15053763,7.82535211 C2.15053763,7.82535211 2.15053763,7.82535211 2.16774194,7.82535211 C2.20215054,7.84225352 2.23655914,7.87605634 2.27096774,7.89295775 C2.28817204,7.90985915 2.30537634,7.90985915 2.32258065,7.92676056 C2.37419355,7.96056338 2.42580645,7.9943662 2.47741935,8.02816901 C2.49462366,8.02816901 2.51182796,8.04507042 2.52903226,8.04507042 C2.56344086,8.06197183 2.61505376,8.09577465 2.64946237,8.11267606 C2.66666667,8.12957746 2.70107527,8.12957746 2.71827957,8.14647887 C2.75268817,8.16338028 2.76989247,8.18028169 2.80430108,8.1971831 C2.80430108,8.1971831 2.82150538,8.1971831 2.82150538,8.21408451 C2.83870968,8.21408451 2.83870968,8.23098592 2.85591398,8.23098592 C2.90752688,8.24788732 2.94193548,8.28169014 2.99354839,8.29859155 C3.01075269,8.29859155 3.01075269,8.29859155 3.02795699,8.31549296 C3.07956989,8.33239437 3.1311828,8.36619718 3.1827957,8.38309859 C3.2,8.38309859 3.2,8.4 3.2172043,8.4 C3.2688172,8.41690141 3.32043011,8.43380282 3.37204301,8.45070423 C3.37204301,8.45070423 3.38924731,8.45070423 3.38924731,8.45070423 C3.44086022,8.46760563 3.50967742,8.48450704 3.56129032,8.50140845 C3.57849462,8.50140845 3.59569892,8.51830986 3.59569892,8.51830986 C3.64731183,8.53521127 3.71612903,8.55211268 3.76774194,8.56901408 C7.55268817,9.24507042 8.65376344,6.33802817 8.65376344,6.33802817 C7.72473118,7.52112676 6.09032258,7.82535211 4.52473118,7.48732394 C4.47311828,7.47042254 4.40430108,7.45352113 4.35268817,7.43661972 C4.33548387,7.43661972 4.31827957,7.43661972 4.31827957,7.41971831 C4.26666667,7.4028169 4.19784946,7.38591549 4.14623656,7.36901408 C4.14623656,7.36901408 4.12903226,7.36901408 4.12903226,7.35211268 C4.07741935,7.33521127 4.02580645,7.31830986 3.97419355,7.30140845 C3.95698925,7.30140845 3.93978495,7.28450704 3.93978495,7.28450704 C3.88817204,7.26760563 3.83655914,7.23380282 3.78494624,7.21690141 C3.76774194,7.21690141 3.76774194,7.2 3.75053763,7.2 C3.69892473,7.18309859 3.66451613,7.16619718 3.61290323,7.13239437 C3.59569892,7.13239437 3.59569892,7.11549296 3.57849462,7.11549296 C3.54408602,7.09859155 3.50967742,7.08169014 3.47526882,7.06478873 C3.45806452,7.04788732 3.42365591,7.04788732 3.40645161,7.03098592 C3.37204301,7.01408451 3.32043011,6.98028169 3.28602151,6.96338028 C3.2688172,6.94647887 3.2516129,6.94647887 3.2516129,6.94647887 C3.2,6.91267606 3.1483871,6.87887324 3.09677419,6.84507042 C3.07956989,6.82816901 3.06236559,6.82816901 3.04516129,6.81126761 C3.01075269,6.7943662 2.95913978,6.76056338 2.92473118,6.74366197 C2.90752688,6.72676056 2.90752688,6.72676056 2.89032258,6.70985915 C2.85591398,6.69295775 2.82150538,6.65915493 2.78709677,6.62535211 C2.76989247,6.6084507 2.75268817,6.6084507 2.73548387,6.5915493 C2.70107527,6.57464789 2.66666667,6.54084507 2.63225806,6.52394366 C2.61505376,6.50704225 2.59784946,6.50704225 2.58064516,6.49014085 C2.54623656,6.45633803 2.49462366,6.42253521 2.46021505,6.38873239 C2.46021505,6.38873239 2.44301075,6.38873239 2.44301075,6.37183099 C2.40860215,6.33802817 2.35698925,6.28732394 2.32258065,6.25352113 C2.30537634,6.23661972 2.30537634,6.23661972 2.28817204,6.21971831 C2.25376344,6.18591549 2.21935484,6.16901408 2.20215054,6.13521127 C2.18494624,6.11830986 2.18494624,6.11830986 2.16774194,6.10140845 C2.13333333,6.06760563 2.09892473,6.01690141 2.04731183,5.98309859 C2.04731183,5.98309859 2.04731183,5.98309859 2.04731183,5.98309859 C2.01290323,5.94929577 1.97849462,5.89859155 1.92688172,5.84788732 C1.90967742,5.83098592 1.90967742,5.83098592 1.89247312,5.81408451 C1.85806452,5.78028169 1.84086022,5.74647887 1.80645161,5.71267606 C1.78924731,5.69577465 1.78924731,5.69577465 1.77204301,5.67887324 C1.72043011,5.66197183 1.68602151,5.61126761 1.6516129,5.57746479 C0.791397849,4.42816901 0.48172043,2.82253521 1.16989247,1.52112676" id="Shape" fill="#0769AD"></path>
            <path d="M2.99354839,1.33521127 C2.42580645,2.14647887 2.46021505,3.21126761 2.90752688,4.05633803 C2.97634409,4.1915493 3.06236559,4.34366197 3.1655914,4.46197183 C3.2516129,4.58028169 3.33763441,4.71549296 3.45806452,4.81690141 C3.49247312,4.86760563 3.54408602,4.90140845 3.57849462,4.95211268 C3.59569892,4.96901408 3.59569892,4.96901408 3.61290323,4.98591549 C3.64731183,5.01971831 3.69892473,5.07042254 3.75053763,5.10422535 C3.75053763,5.10422535 3.75053763,5.10422535 3.75053763,5.10422535 C3.75053763,5.10422535 3.75053763,5.10422535 3.75053763,5.10422535 C3.80215054,5.15492958 3.85376344,5.18873239 3.90537634,5.22253521 C3.92258065,5.23943662 3.92258065,5.23943662 3.93978495,5.25633803 C3.99139785,5.29014085 4.04301075,5.34084507 4.09462366,5.37464789 C4.09462366,5.37464789 4.09462366,5.37464789 4.09462366,5.37464789 C4.11182796,5.3915493 4.14623656,5.4084507 4.16344086,5.42535211 C4.18064516,5.42535211 4.18064516,5.44225352 4.19784946,5.44225352 C4.23225806,5.45915493 4.28387097,5.49295775 4.31827957,5.50985915 C4.31827957,5.50985915 4.33548387,5.50985915 4.33548387,5.52676056 C4.36989247,5.54366197 4.40430108,5.56056338 4.43870968,5.57746479 C4.45591398,5.57746479 4.45591398,5.5943662 4.47311828,5.5943662 C4.49032258,5.61126761 4.52473118,5.61126761 4.54193548,5.62816901 C4.54193548,5.62816901 4.54193548,5.62816901 4.55913978,5.62816901 C4.61075269,5.64507042 4.66236559,5.67887324 4.71397849,5.69577465 C4.7311828,5.69577465 4.7311828,5.71267606 4.7483871,5.71267606 C4.7827957,5.72957746 4.8344086,5.74647887 4.8688172,5.76338028 C4.88602151,5.76338028 4.90322581,5.78028169 4.92043011,5.78028169 C4.95483871,5.7971831 4.98924731,5.81408451 5.04086022,5.81408451 C5.05806452,5.81408451 5.07526882,5.83098592 5.09247312,5.83098592 C5.14408602,5.84788732 5.19569892,5.86478873 5.26451613,5.88169014 C8.18924731,6.35492958 8.86021505,4.14084507 8.86021505,4.14084507 C8.25806452,5.0028169 7.07096774,5.4084507 5.81505376,5.08732394 C5.76344086,5.07042254 5.71182796,5.05352113 5.64301075,5.03661972 C5.62580645,5.03661972 5.60860215,5.01971831 5.59139785,5.01971831 C5.55698925,5.0028169 5.50537634,5.0028169 5.47096774,4.98591549 C5.45376344,4.98591549 5.43655914,4.96901408 5.41935484,4.96901408 C5.38494624,4.95211268 5.33333333,4.93521127 5.29892473,4.91830986 C5.28172043,4.91830986 5.28172043,4.90140845 5.26451613,4.90140845 C5.21290323,4.88450704 5.16129032,4.85070423 5.10967742,4.83380282 C5.09247312,4.81690141 5.05806452,4.8 5.04086022,4.8 C5.02365591,4.8 5.00645161,4.78309859 4.98924731,4.78309859 C4.95483871,4.76619718 4.92043011,4.74929577 4.88602151,4.73239437 C4.88602151,4.73239437 4.8688172,4.73239437 4.8688172,4.71549296 C4.8344086,4.69859155 4.7827957,4.66478873 4.7483871,4.64788732 C4.7311828,4.64788732 4.7311828,4.63098592 4.71397849,4.63098592 C4.69677419,4.61408451 4.66236559,4.5971831 4.64516129,4.58028169 C4.59354839,4.54647887 4.54193548,4.51267606 4.49032258,4.46197183 C4.47311828,4.44507042 4.47311828,4.44507042 4.45591398,4.42816901 C3.90537634,4.0056338 3.47526882,3.41408451 3.2688172,2.75492958 C3.04516129,2.06197183 3.09677419,1.30140845 3.47526882,0.676056338" id="Shape" fill="#0769AD"></path>
            <path d="M5.04086022,0.642253521 C4.71397849,1.13239437 4.67956989,1.72394366 4.90322581,2.26478873 C5.14408602,2.83943662 5.64301075,3.27887324 6.22795699,3.48169014 C6.24516129,3.49859155 6.27956989,3.49859155 6.29677419,3.49859155 C6.31397849,3.49859155 6.31397849,3.49859155 6.3311828,3.51549296 C6.3655914,3.53239437 6.4,3.53239437 6.4344086,3.54929577 C8.0516129,3.85352113 8.48172043,2.73802817 8.60215054,2.56901408 C8.22365591,3.10985915 7.56989247,3.24507042 6.77849462,3.05915493 C6.70967742,3.04225352 6.64086022,3.02535211 6.58924731,3.0084507 C6.52043011,2.97464789 6.4344086,2.95774648 6.3655914,2.92394366 C6.22795699,2.85633803 6.09032258,2.77183099 5.96989247,2.68732394 C5.26451613,2.16338028 4.8172043,1.14929577 5.28172043,0.338028169" id="Shape" fill="#0769AD"></path>
            <path d="M42.4946237,2.90704225 L42.5634409,3.18231107 C42.5806452,3.25112828 42.5290323,3.31994548 42.4602151,3.31994548" id="Shape" fill="#333333"></path>
            <path d="M37.4021505,2.45070423 C37.3849462,2.51830986 37.3677419,2.61971831 37.3505376,2.67042254 L36.7827957,5.23943662 L37.3677419,2.53521127 L37.4021505,2.45070423 Z" id="Shape" fill="#333333"></path>
            <polygon id="Shape" fill="#333333" points="20.6451613 4.17464789 20.3354839 5.25633803"></polygon>
            <path d="M42.5634409,3.17746479 L42.4086022,2.50140845 C42.288172,2.01126761 41.9268817,1.7915493 41.1182796,1.7915493 L37.711828,1.7915493 C37.6258065,1.7915493 37.5569892,1.82535211 37.5397849,1.90985915 L36.2494624,7.92676056 C36.2322581,8.01126761 36.2322581,8.06197183 36.2322581,8.09577465 C36.2494624,8.12957746 36.3870968,8.12957746 36.4731183,8.12957746 L37.6602151,8.12957746 C37.7462366,8.12957746 37.883871,8.12957746 37.9182796,8.11267606 C37.9698925,8.09577465 37.9870968,7.97746479 38.0043011,7.90985915 L38.4172043,5.7971831 L38.9333333,3.44788732 C38.9505376,3.38028169 39.0193548,3.31267606 39.1053763,3.31267606 L42.4774194,3.31267606 C42.5290323,3.31267606 42.5806452,3.24507042 42.5634409,3.17746479" id="Shape" fill="#333333"></path>
            <path d="M47.3634409,0.726760563 C47.2774194,0.726760563 45.8666667,0.726760563 45.8666667,0.726760563 C45.7806452,0.726760563 45.6946237,0.811267606 45.6430108,0.878873239 L43.0107527,4.66478873 C42.9591398,4.73239437 42.9075269,4.73239437 42.8903226,4.64788732 L42.7010753,3.81971831 C42.683871,3.75211268 42.5978495,3.68450704 42.5290323,3.68450704 L40.8430108,3.68450704 C40.7569892,3.68450704 40.7225806,3.75211268 40.7397849,3.81971831 L41.4967742,6.42253521 C41.5139785,6.49014085 41.5139785,6.62535211 41.4967742,6.69295775 L41.1354839,8.01126761 C41.1182796,8.07887324 41.1698925,8.11267606 41.2387097,8.11267606 L42.9075269,8.11267606 C42.9935484,8.11267606 43.0623656,8.09577465 43.0795699,8.01126761 L43.4408602,6.67605634 C43.4580645,6.6084507 43.5096774,6.50704225 43.5612903,6.43943662 L47.8451613,0.861971831 C47.8967742,0.794366197 47.8795699,0.726760563 47.8107527,0.726760563 L47.3634409,0.726760563 Z" id="Shape" fill="#333333"></path>
            <path d="M29.7806452,1.7915493 L28.2494624,1.7915493 C28.1634409,1.7915493 28.0946237,1.82535211 28.0774194,1.89295775 L27.5784946,4.2084507 L27.0795699,6.42253521 C27.0623656,6.49014085 26.9935484,6.49014085 26.9075269,6.49014085 L25.9096774,6.49014085 C24.911828,6.49014085 25.0322581,5.88169014 25.2387097,4.95211268 C25.2387097,4.93521127 25.8752688,1.89295775 25.8752688,1.89295775 C25.8924731,1.82535211 25.8408602,1.7915493 25.7548387,1.7915493 L24.3096774,1.7915493 C24.2236559,1.7915493 24.1548387,1.82535211 24.1376344,1.89295775 L23.5526882,4.95211268 C23.2602151,6.6084507 23.2602151,8.06197183 25.2043011,8.11267606 C25.2387097,8.11267606 28.283871,8.11267606 28.283871,8.11267606 C28.3698925,8.11267606 28.4387097,8.07887324 28.455914,8.01126761 L29.1268817,4.93521127 L29.7806452,1.85915493 C29.7806452,1.85915493 29.8150538,1.7915493 29.7806452,1.7915493 Z" id="Shape" fill="#333333"></path>
            <path d="M14.6064516,1.7915493 L12.972043,1.7915493 C12.8860215,1.7915493 12.8172043,1.8084507 12.8,1.89295775 L12.5075269,3.14366197 C12.4903226,3.21126761 12.5419355,3.27887324 12.627957,3.27887324 L14.1935484,3.27887324 C14.2795699,3.27887324 14.3483871,3.21126761 14.3655914,3.12676056 L14.6408602,1.85915493 C14.6408602,1.85915493 14.6752688,1.7915493 14.6064516,1.7915493 Z" id="Shape" fill="#333333"></path>
            <path d="M12.5247312,3.68450704 C12.4387097,3.68450704 12.3698925,3.75211268 12.3526882,3.81971831 L12.1290323,4.78309859 L11.6301075,6.9971831 C11.6301075,6.9971831 11.372043,8.16338028 11.3376344,8.24788732 C11.3376344,8.24788732 11.1139785,9.09295775 10.5978495,9.05915493 C10.3569892,9.04225352 10.0817204,8.9915493 10.0817204,8.9915493 C9.92688172,8.94084507 9.92688172,9.09295775 9.90967742,9.17746479 L9.5827957,10.5464789 C9.5655914,10.6140845 9.6172043,10.6816901 9.68602151,10.6985915 C9.68602151,10.6985915 10.3913978,10.8 10.8903226,10.8 L10.9763441,10.8 C12.1978495,10.8 12.8516129,10.0901408 13.2645161,8.16338028 L13.7462366,5.91549296 L14.1935484,3.83661972 C14.2107527,3.76901408 14.1591398,3.68450704 14.0903226,3.68450704" id="Shape" fill="#333333"></path>
            <path d="M33.6344086,1.77464789 C30.8817204,1.77464789 30.227957,3.44788732 29.8666667,5.08732394 C29.5053763,6.77746479 29.5397849,8.11267606 32.3784946,8.11267606 L32.4817204,8.11267606 C33.6172043,8.11267606 34.9763441,8.11267606 34.9763441,8.11267606 C35.0451613,8.11267606 35.1311828,8.04507042 35.1483871,7.96056338 L35.4236559,6.89577465 C35.4408602,6.82816901 35.3892473,6.7943662 35.3032258,6.7943662 L32.7397849,6.7943662 C31.8107527,6.7943662 31.483871,6.50704225 31.5182796,5.88169014 C31.5182796,5.81408451 31.6043011,5.62816901 31.6731183,5.62816901 L35.6129032,5.62816901 C35.7849462,5.62816901 35.7849462,5.52676056 35.7849462,5.52676056 C36.2150538,3.76901408 36.2322581,1.77464789 33.6344086,1.77464789 M34.3569892,4.42816901 C34.3569892,4.51267606 34.0817204,4.49577465 34.0817204,4.49577465 L31.9483871,4.47887324 C31.8795699,4.47887324 31.8451613,4.37746479 31.8451613,4.30985915 C31.8451613,4.30985915 31.8451613,4.22535211 31.8623656,4.2084507 C32.0344086,3.65070423 32.516129,3.32957746 33.3075269,3.32957746 C34.1849462,3.32957746 34.3741935,3.75211268 34.3741935,4.24225352" id="Shape" fill="#333333"></path>
            <path d="M21.7634409,6.37183099 C21.7634409,6.37183099 22.5376344,4.52957746 22.7096774,3.48169014 C22.9505376,2.06197183 22.227957,0 19.4236559,0 C16.6537634,0 15.4494624,1.96056338 14.9849462,4.10704225 C14.5204301,6.25352113 15.1225806,8.12957746 17.8924731,8.11267606 L22.1075269,8.11267606 C22.1935484,8.11267606 22.2623656,8.04507042 22.2795699,7.97746479 L22.6408602,6.64225352 C22.6580645,6.57464789 22.6064516,6.50704225 22.5376344,6.50704225 L22.1935484,6.50704225 L21.8494624,6.50704225 C21.7806452,6.50704225 21.7462366,6.45633803 21.7462366,6.4056338 C21.7634409,6.4056338 21.7634409,6.38873239 21.7634409,6.37183099 Z M20.3182796,5.25633803 L20.0086022,6.32112676 C19.9913978,6.38873239 19.9053763,6.43943662 19.8193548,6.43943662 L18.1849462,6.43943662 C16.9462366,6.43943662 16.6365591,5.49295775 16.9462366,4.09014085 C17.255914,2.65352113 17.8408602,1.77464789 19.0623656,1.67323944 C20.7311828,1.55492958 21.0752688,2.70422535 20.6623656,4.03943662 L20.3182796,5.25633803 Z" id="Shape" fill="#333333"></path>
        </g>
    </g>
</svg>