<?xml version="1.0" encoding="UTF-8"?>
<svg width="64px" height="64px" viewBox="0 0 64 64" version="1.1" xmlns="http://www.w3.org/2000/svg" xmlns:xlink="http://www.w3.org/1999/xlink">
    <!-- Generator: Sketch 43.2 (39069) - http://www.bohemiancoding.com/sketch -->
    <title>CSS</title>
    <desc>Created with Sketch.</desc>
    <defs></defs>
    <g id="Page-1" stroke="none" stroke-width="1" fill="none" fill-rule="evenodd">
        <g id="CSS" fill="#01B5EF">
            <g id="Group" transform="translate(8.000000, 20.000000)">
                <g id="Group-12">
                    <path d="M13.8461538,0.588000569 C13.179965,0.47117611 12.4945327,0.41025641 11.7948718,0.41025641 C5.28074398,0.41025641 0,5.69100039 0,12.2051282 C0,18.719256 5.28074398,24 11.7948718,24 C12.4945327,24 13.179965,23.9390803 13.8461538,23.8222558 C8.30985335,22.851397 4.1025641,18.0195951 4.1025641,12.2051282 C4.1025641,6.39066128 8.30985335,1.5588594 13.8461538,0.588000569 Z" id="Combined-Shape"></path>
                    <path d="M22.0135385,16.5304615 C22.1760008,16.5304615 22.3199994,16.5932301 22.4455385,16.7187692 L23.6196923,17.9926154 C22.9698429,18.7975425 22.1704663,19.4141517 21.2215385,19.8424615 C20.2726106,20.2707714 19.1335451,20.4849231 17.8043077,20.4849231 C16.6153787,20.4849231 15.5464663,20.2818482 14.5975385,19.8756923 C13.6486106,19.4695364 12.8381572,18.904619 12.1661538,18.1809231 C11.4941505,17.4572272 10.9790787,16.5932358 10.6209231,15.5889231 C10.2627674,14.5846104 10.0836923,13.4880059 10.0836923,12.2990769 C10.0836923,11.0953786 10.2756904,9.99323577 10.6596923,8.99261538 C11.0436942,7.991995 11.5846119,7.12984977 12.2824615,6.40615385 C12.9803112,5.68245792 13.8129182,5.11938663 14.7803077,4.71692308 C15.7476971,4.31445953 16.8184557,4.11323077 17.9926154,4.11323077 C19.1593904,4.11323077 20.1950724,4.30522885 21.0996923,4.68923077 C22.0043122,5.07323269 22.7741507,5.57538151 23.4092308,6.19569231 L22.4123077,7.58030769 C22.3532305,7.66892352 22.2775389,7.74646121 22.1852308,7.81292308 C22.0929226,7.87938495 21.9655393,7.91261538 21.8030769,7.91261538 C21.6923071,7.91261538 21.5778467,7.88123108 21.4596923,7.81846154 C21.3415379,7.75569199 21.2123084,7.67815431 21.072,7.58584615 C20.9316916,7.493538 20.7692317,7.39200055 20.5846154,7.28123077 C20.3999991,7.17046098 20.1858474,7.06892354 19.9421538,6.97661538 C19.6984603,6.88430723 19.4160016,6.80676954 19.0947692,6.744 C18.7735369,6.68123046 18.4024636,6.64984615 17.9815385,6.64984615 C17.2652272,6.64984615 16.6098491,6.7772295 16.0153846,7.032 C15.4209201,7.2867705 14.9095406,7.65599758 14.4812308,8.13969231 C14.0529209,8.62338703 13.7206166,9.21415036 13.4843077,9.912 C13.2479988,10.6098496 13.1298462,11.405534 13.1298462,12.2990769 C13.1298462,13.2000045 13.2572295,14.0012273 13.512,14.7027692 C13.7667705,15.4043112 14.1119978,15.9950745 14.5476923,16.4750769 C14.9833868,16.9550793 15.4966124,17.3224603 16.0873846,17.5772308 C16.6781568,17.8320013 17.3132274,17.9593846 17.9926154,17.9593846 C18.3987713,17.9593846 18.7661522,17.937231 19.0947692,17.8929231 C19.4233863,17.8486152 19.7261525,17.778462 20.0030769,17.6824615 C20.2800014,17.5864611 20.5421526,17.46277 20.7895385,17.3113846 C21.0369243,17.1599992 21.2824603,16.9735396 21.5261538,16.752 C21.6000004,16.6855381 21.6775381,16.6320002 21.7587692,16.5913846 C21.8400004,16.550769 21.9249226,16.5304615 22.0135385,16.5304615 Z M34.1981538,7.20369231 C34.109538,7.35877001 34.0153851,7.47138426 33.9156923,7.54153846 C33.8159995,7.61169266 33.6923084,7.64676923 33.5446154,7.64676923 C33.3895377,7.64676923 33.2215394,7.58953903 33.0406154,7.47507692 C32.8596914,7.36061481 32.6436936,7.23323147 32.3926154,7.09292308 C32.1415372,6.95261468 31.8480017,6.82523134 31.512,6.71076923 C31.1759983,6.59630712 30.7790792,6.53907692 30.3212308,6.53907692 C29.9076902,6.53907692 29.5458477,6.58892258 29.2356923,6.68861538 C28.9255369,6.78830819 28.6652318,6.92676834 28.4547692,7.104 C28.2443066,7.28123166 28.0873851,7.49353722 27.984,7.74092308 C27.8806149,7.98830893 27.8289231,8.25969083 27.8289231,8.55507692 C27.8289231,8.93169419 27.9341528,9.24553721 28.1446154,9.49661538 C28.355078,9.74769356 28.6338444,9.96184527 28.9809231,10.1390769 C29.3280017,10.3163086 29.7230747,10.4750762 30.1661538,10.6153846 C30.609233,10.755693 31.0633823,10.90523 31.5286154,11.064 C31.9938485,11.22277 32.4479978,11.4073836 32.8910769,11.6178462 C33.3341561,11.8283087 33.729229,12.0941522 34.0763077,12.4153846 C34.4233864,12.736617 34.7021528,13.1298438 34.9126154,13.5950769 C35.123078,14.06031 35.2283077,14.6252274 35.2283077,15.2898462 C35.2283077,16.0135421 35.1046166,16.6910738 34.8572308,17.3224615 C34.6098449,17.9538493 34.2480024,18.5039977 33.7716923,18.9729231 C33.2953822,19.4418485 32.7138496,19.8110756 32.0270769,20.0806154 C31.3403043,20.3501552 30.5538506,20.4849231 29.6676923,20.4849231 C29.1581513,20.4849231 28.6560025,20.4350774 28.1612308,20.3353846 C27.6664591,20.2356918 27.1920023,20.0935394 26.7378462,19.9089231 C26.28369,19.7243068 25.8572328,19.5027705 25.4584615,19.2443077 C25.0596903,18.9858449 24.7052323,18.6978477 24.3950769,18.3803077 L25.2701538,16.9513846 C25.3440004,16.8479995 25.4399994,16.7612311 25.5581538,16.6910769 C25.6763083,16.6209227 25.8018455,16.5858462 25.9347692,16.5858462 C26.1193855,16.5858462 26.3187682,16.6615377 26.5329231,16.8129231 C26.747078,16.9643084 27.0018447,17.1323068 27.2972308,17.3169231 C27.5926169,17.5015394 27.9378442,17.6695377 28.3329231,17.8209231 C28.728002,17.9723084 29.2024588,18.048 29.7563077,18.048 C30.6055427,18.048 31.2627669,17.8467712 31.728,17.4443077 C32.1932331,17.0418441 32.4258462,16.4640038 32.4258462,15.7107692 C32.4258462,15.289844 32.3206164,14.9464629 32.1101538,14.6806154 C31.8996913,14.4147679 31.6209248,14.1913855 31.2738462,14.0104615 C30.9267675,13.8295376 30.5316945,13.6763083 30.0886154,13.5507692 C29.6455362,13.4252301 29.1950792,13.2886161 28.7372308,13.1409231 C28.2793823,12.99323 27.8289253,12.816001 27.3858462,12.6092308 C26.942767,12.4024605 26.547694,12.1329247 26.2006154,11.8006154 C25.8535367,11.468306 25.5747703,11.0529256 25.3643077,10.5544615 C25.1538451,10.0559975 25.0486154,9.44123442 25.0486154,8.71015385 C25.0486154,8.12676631 25.1649219,7.55815662 25.3975385,7.00430769 C25.630155,6.45045877 25.9679978,5.95938676 26.4110769,5.53107692 C26.8541561,5.10276709 27.4006121,4.75938591 28.0504615,4.50092308 C28.7003109,4.24246025 29.4461496,4.11323077 30.288,4.11323077 C31.2332355,4.11323077 32.1046114,4.2609216 32.9021538,4.55630769 C33.6996963,4.85169378 34.3790741,5.26522811 34.9403077,5.79692308 L34.1981538,7.20369231 Z M46.3495385,7.20369231 C46.2609226,7.35877001 46.1667697,7.47138426 46.0670769,7.54153846 C45.9673841,7.61169266 45.843693,7.64676923 45.696,7.64676923 C45.5409223,7.64676923 45.372924,7.58953903 45.192,7.47507692 C45.011076,7.36061481 44.7950782,7.23323147 44.544,7.09292308 C44.2929218,6.95261468 43.9993863,6.82523134 43.6633846,6.71076923 C43.3273829,6.59630712 42.9304638,6.53907692 42.4726154,6.53907692 C42.0590749,6.53907692 41.6972323,6.58892258 41.3870769,6.68861538 C41.0769215,6.78830819 40.8166164,6.92676834 40.6061538,7.104 C40.3956913,7.28123166 40.2387697,7.49353722 40.1353846,7.74092308 C40.0319995,7.98830893 39.9803077,8.25969083 39.9803077,8.55507692 C39.9803077,8.93169419 40.0855374,9.24553721 40.296,9.49661538 C40.5064626,9.74769356 40.785229,9.96184527 41.1323077,10.1390769 C41.4793864,10.3163086 41.8744593,10.4750762 42.3175385,10.6153846 C42.7606176,10.755693 43.2147669,10.90523 43.68,11.064 C44.1452331,11.22277 44.5993824,11.4073836 45.0424615,11.6178462 C45.4855407,11.8283087 45.8806136,12.0941522 46.2276923,12.4153846 C46.574771,12.736617 46.8535374,13.1298438 47.064,13.5950769 C47.2744626,14.06031 47.3796923,14.6252274 47.3796923,15.2898462 C47.3796923,16.0135421 47.2560012,16.6910738 47.0086154,17.3224615 C46.7612295,17.9538493 46.399387,18.5039977 45.9230769,18.9729231 C45.4467668,19.4418485 44.8652342,19.8110756 44.1784615,20.0806154 C43.4916889,20.3501552 42.7052352,20.4849231 41.8190769,20.4849231 C41.3095359,20.4849231 40.8073871,20.4350774 40.3126154,20.3353846 C39.8178437,20.2356918 39.3433869,20.0935394 38.8892308,19.9089231 C38.4350747,19.7243068 38.0086174,19.5027705 37.6098462,19.2443077 C37.2110749,18.9858449 36.8566169,18.6978477 36.5464615,18.3803077 L37.4215385,16.9513846 C37.495385,16.8479995 37.591384,16.7612311 37.7095385,16.6910769 C37.8276929,16.6209227 37.9532301,16.5858462 38.0861538,16.5858462 C38.2707702,16.5858462 38.4701528,16.6615377 38.6843077,16.8129231 C38.8984626,16.9643084 39.1532293,17.1323068 39.4486154,17.3169231 C39.7440015,17.5015394 40.0892288,17.6695377 40.4843077,17.8209231 C40.8793866,17.9723084 41.3538434,18.048 41.9076923,18.048 C42.7569273,18.048 43.4141515,17.8467712 43.8793846,17.4443077 C44.3446177,17.0418441 44.5772308,16.4640038 44.5772308,15.7107692 C44.5772308,15.289844 44.4720011,14.9464629 44.2615385,14.6806154 C44.0510759,14.4147679 43.7723094,14.1913855 43.4252308,14.0104615 C43.0781521,13.8295376 42.6830791,13.6763083 42.24,13.5507692 C41.7969209,13.4252301 41.3464638,13.2886161 40.8886154,13.1409231 C40.4307669,12.99323 39.9803099,12.816001 39.5372308,12.6092308 C39.0941516,12.4024605 38.6990787,12.1329247 38.352,11.8006154 C38.0049213,11.468306 37.7261549,11.0529256 37.5156923,10.5544615 C37.3052297,10.0559975 37.2,9.44123442 37.2,8.71015385 C37.2,8.12676631 37.3163065,7.55815662 37.5489231,7.00430769 C37.7815396,6.45045877 38.1193824,5.95938676 38.5624615,5.53107692 C39.0055407,5.10276709 39.5519968,4.75938591 40.2018462,4.50092308 C40.8516956,4.24246025 41.5975343,4.11323077 42.4393846,4.11323077 C43.3846201,4.11323077 44.255996,4.2609216 45.0535385,4.55630769 C45.8510809,4.85169378 46.5304587,5.26522811 47.0916923,5.79692308 L46.3495385,7.20369231 Z" id="CSS"></path>
                </g>
            </g>
        </g>
    </g>
</svg>