<svg xmlns="http://www.w3.org/2000/svg" width="72" height="72" viewBox="0 0 72 72">
  <path fill="#1A4674" d="M35.6607907,11.7666667 C35.6626047,17.2466667 35.6626047,28.2034722 35.6626047,28.2034722 C35.6623256,28.8597222 35.5240465,29.4409722 35.245814,29.9420833 C34.9593488,30.4570833 34.5245582,30.8881944 33.9361395,31.2270833 C29.1877675,33.9519444 24.4352093,36.6683333 19.6889302,39.3961111 C18.4089767,40.1316667 17.1683721,40.105 15.8977674,39.35875 C14.0084651,38.2491667 4.54604651,32.8541667 1.72660465,31.22875 C1.13818605,30.8897222 0.703395349,30.4588889 0.416930233,29.9434722 C0.13827907,29.4423611 0.000279069767,28.8611111 0,28.205 C0.00181395349,22.725 0,17.2452777 0.00181395349,11.7654167 C0.00209302326,10.4345833 0.567069767,9.41069442 1.72813954,8.74166667 C4.54744186,7.11625 14.0086047,1.72083333 15.8983256,0.611527777 C17.1683721,-0.134305556 18.4089767,-0.161111111 19.6885116,0.574166667 C24.4346511,3.30180556 29.1869303,6.01833333 33.9346047,8.74319442 C34.5097674,9.07472225 34.9385582,9.49402775 35.2248837,9.99430558 C35.5163721,10.5030556 35.6605116,11.0958333 35.6607907,11.7666667 Z M22.970093,22.8633333 C21.9587442,24.6486111 20.0369302,25.8551389 17.8313023,25.8551389 C15.6392093,25.8551389 13.7282791,24.66375 12.7117674,22.8973611 C12.2179535,22.0390277 11.934,21.0452777 11.934,19.9851389 C11.934,16.7433333 14.5744186,14.1152777 17.8313023,14.1152777 C20.0093023,14.1152777 21.910186,15.2918056 22.931721,17.0401389 L28.0862791,14.0856944 C26.0374883,10.5654167 22.2124186,8.19708333 17.8313023,8.19708333 C11.2904651,8.19708333 5.98827907,13.4748611 5.98827907,19.9851389 C5.98827907,22.1209722 6.55911628,24.1238889 7.5567907,25.8515277 C9.60041863,29.3904167 13.4363721,31.7733333 17.8313023,31.7733333 C22.2343256,31.7733333 26.0762791,29.3808333 28.1169768,25.8315277 L22.970093,22.8633333 Z" transform="translate(18 16)"/>
</svg>
