<?xml version="1.0" encoding="UTF-8"?>
<svg width="72px" height="72px" viewBox="0 0 72 72" version="1.1" xmlns="http://www.w3.org/2000/svg" xmlns:xlink="http://www.w3.org/1999/xlink">
    <!-- Generator: Sketch 51.3 (57544) - http://www.bohemiancoding.com/sketch -->
    <title>HTML</title>
    <desc>Created with Sketch.</desc>
    <defs></defs>
    <g id="HTML" stroke="none" stroke-width="1" fill="none" fill-rule="evenodd">
        <g id="Group-2" transform="translate(21.000000, 14.000000)">
            <g id="Group" transform="translate(0.000000, 8.491228)" fill="#4A90E2" fill-rule="nonzero">
                <polygon id="Combined-Shape" points="2.82108516 31.8830175 0.00102197802 0.0254736842 30.974706 0.0254736842 28.1511511 31.8854191 15.4803269 35.4230019"></polygon>
            </g>
            <path d="M2.92813736,0 L4.89348626,0 L4.89348626,1.95555556 L6.69131593,1.95555556 L6.69131593,0 L8.65675,0 L8.65675,5.92190253 L6.6914011,5.92190253 L6.6914011,3.93890058 L4.89357143,3.93890058 L4.89357143,5.92190253 L2.92822253,5.92190253 L2.92813736,0 Z M11.2412473,1.96378947 L9.51103846,1.96378947 L9.51103846,0 L14.9377418,0 L14.9377418,1.96378947 L13.2067665,1.96378947 L13.2067665,5.92190253 L11.2413324,5.92190253 L11.2412473,1.96378947 Z M15.7990137,0 L17.8483352,0 L19.1089451,2.08077973 L20.3682775,0 L22.4183654,0 L22.4183654,5.92190253 L20.4611071,5.92190253 L20.4611071,2.98668226 L19.1089451,5.09224951 L19.0751346,5.09224951 L17.7220357,2.98668226 L17.7220357,5.92190253 L15.7990137,5.92190253 L15.7990137,0 Z M23.3964835,0 L25.3624286,0 L25.3624286,3.96446004 L28.126283,3.96446004 L28.126283,5.92190253 L23.3964835,5.92190253 L23.3964835,0 Z" id="Combined-Shape" fill="#000000" fill-rule="nonzero"></path>
            <g id="Group-8" transform="translate(7.000000, 21.000000)" fill="#FFFFFF">
                <polygon id="Shape" fill-rule="nonzero" points="13.0641822 9.52991453 11.7391304 7.97720798 14.7459787 4.75783476 11.7391304 1.55270655 13.0641822 0 17.523491 4.75783476"></polygon>
                <polygon id="Shape-Copy-2" fill-rule="nonzero" transform="translate(2.892180, 4.764957) scale(-1, 1) translate(-2.892180, -4.764957) " points="1.32505176 9.52991453 0 7.97720798 3.00684822 4.75783476 0 1.55270655 1.32505176 0 5.78436057 4.75783476"></polygon>
                <rect id="Rectangle" transform="translate(9.038378, 4.705929) rotate(-75.000000) translate(-9.038378, -4.705929) " x="5.51663852" y="3.4559286" width="7.04347826" height="2.5"></rect>
            </g>
        </g>
    </g>
</svg>