<?xml version="1.0" encoding="UTF-8"?>
<svg width="104px" height="68px" viewBox="0 0 104 68" version="1.1" xmlns="http://www.w3.org/2000/svg" xmlns:xlink="http://www.w3.org/1999/xlink">
    <!-- Generator: sketchtool 45.2 (43514) - http://www.bohemiancoding.com/sketch -->
    <title>C7771D9B-042E-448B-BA80-9DC1BB2915D4</title>
    <desc>Created with sketchtool.</desc>
    <defs>
        <rect id="path-1" x="0" y="0" width="104" height="72"></rect>
    </defs>
    <g id="Login-Signup" stroke="none" stroke-width="1" fill="none" fill-rule="evenodd">
        <g id="2.Login" transform="translate(-52.000000, -416.000000)">
            <g id="Group-18" transform="translate(52.000000, 412.000000)">
                <mask id="mask-2" fill="white">
                    <use xlink:href="#path-1"></use>
                </mask>
                <g id="Rectangle-15"></g>
                <g id="Group-3" mask="url(#mask-2)">
                    <g transform="translate(-8.000000, -2.000000)">
                        <path d="M68.334637,22.5012973 C68.334637,27.2260541 64.5434519,31.0556757 59.8673037,31.0556757 C55.1911556,31.0556757 51.4009333,27.2260541 51.4009333,22.5012973 C51.4009333,17.7765405 55.1911556,13.9459459 59.8673037,13.9459459 C64.5434519,13.9459459 68.334637,17.7765405 68.334637,22.5012973 Z" id="Fill-1" stroke="none" fill="#FFFFFF" fill-rule="evenodd"></path>
                        <path d="M112.152074,51.8262919 L101.392889,51.8262919 C100.511778,51.8262919 99.7914815,51.0975351 99.7914815,50.2082378 L99.7914815,41.2831568 C99.7914815,40.3928865 100.511778,39.6641297 101.392889,39.6641297 L112.152074,39.6641297 C113.033185,39.6641297 113.754444,40.3928865 113.754444,41.2831568 L113.754444,50.2082378 C113.754444,51.0975351 113.033185,51.8262919 112.152074,51.8262919" id="Fill-13" stroke="none" fill="#EFEFEF" fill-rule="evenodd"></path>
                        <path d="M1.64425926,54.5671784 L4.56011111,54.5671784 C4.56011111,54.5671784 4.87211111,54.5506378 5.04062963,54.3813405 C5.20914815,54.2110703 5.21203704,53.8384216 5.21203704,53.8384216 L5.21203704,52.4256649 C5.21203704,51.6686919 5.82544444,51.0489081 6.57462963,51.0489081 L13.1044815,51.0489081 C13.8536667,51.0489081 14.4670741,51.6686919 14.4670741,52.4256649 L14.4670741,55.9468541 C14.4670741,55.9468541 14.4738148,56.3214486 14.8214444,56.7320432 C15.0872222,57.0463135 15.587,57.1173405 15.587,57.1173405 L19.1095185,57.1173405 C19.929,57.1173405 20.5982593,57.7935568 20.5982593,58.6215568 L20.5982593,61.5180973 C20.5982593,62.3451243 19.929,63.0223135 19.1095185,63.0223135 L4.37425926,63.0223135 C3.55574074,63.0223135 2.88551852,62.3451243 2.88551852,61.5180973 L2.88551852,59.8679351 C2.88551852,59.8679351 2.90766667,59.6023135 2.74588889,59.4641514 C2.60722222,59.3454486 2.30774074,59.3473946 2.30774074,59.3473946 L1.64425926,59.3473946 C1.26966667,59.3473946 0.962481481,59.0379892 0.962481481,58.6595027 L0.962481481,55.2560432 C0.962481481,54.8765838 1.26966667,54.5671784 1.64425926,54.5671784" id="Fill-15" stroke="none" fill="#EFEFEF" fill-rule="evenodd"></path>
                        <path d="M47.4922667,73 L35.9251556,73 C34.1677481,73 32.7435259,71.6480804 32.7435259,69.9798903 L32.7435259,62.0191956 C32.7435259,60.3519196 34.1677481,59 35.9251556,59 L47.4922667,59 L47.4922667,73 Z" id="Fill-26" stroke="none" fill="#CCF7DF" fill-rule="evenodd"></path>
                        <path d="M25.1589265,48.5067568 L25.1589265,73.277027 L47.7330006,73.277027 L47.7330006,50.7574916 C47.7330006,49.5115814 46.7272464,48.5067568 45.4826784,48.5067568 L25.1589265,48.5067568 Z" id="Rectangle-11" stroke="#26D974" stroke-width="1.5" fill="none" transform="translate(36.445964, 60.891892) scale(-1, 1) translate(-36.445964, -60.891892) "></path>
                        <path d="M88.6509407,23.5944324 L82.5784963,23.5944324 C82.0498296,23.5944324 81.6155333,23.1565946 81.6155333,22.6214595 L81.6155333,17.8101081 C81.6155333,17.274973 82.0498296,16.8371351 82.5784963,16.8371351 L88.6509407,16.8371351 C89.1805704,16.8371351 89.6139037,17.274973 89.6139037,17.8101081 L89.6139037,22.6214595 C89.6139037,23.1565946 89.1805704,23.5944324 88.6509407,23.5944324" id="Fill-18" stroke="none" fill="#EFEFEF" fill-rule="evenodd"></path>
                        <path d="M36.4574593,31.8915027 L36.4574593,38.0270703 C36.4574593,38.5612324 36.0241259,39.0000432 35.4944963,39.0000432 L30.7326444,39.0000432 C30.2030148,39.0000432 29.7696815,38.5612324 29.7696815,38.0270703 L29.7696815,31.8915027 C29.7696815,31.3563676 30.2030148,30.9185297 30.7326444,30.9185297 L35.4944963,30.9185297 C36.0241259,30.9185297 36.4574593,31.3563676 36.4574593,31.8915027" id="Fill-20" stroke="none" fill="#EFEFEF" fill-rule="evenodd"></path>
                        <path d="M22,12.6019745 L22,16.3980255 C22,16.7285095 21.8056156,17 21.5680346,17 L19.4319654,17 C19.1943844,17 19,16.7285095 19,16.3980255 L19,12.6019745 C19,12.2708885 19.1943844,12 19.4319654,12 L21.5680346,12 C21.8056156,12 22,12.2708885 22,12.6019745" id="Fill-20" stroke="none" fill="#EFEFEF" fill-rule="evenodd"></path>
                        <path d="M75.3232444,73.4635784 L62.959763,73.4635784 C60.6419111,73.4635784 58.7622074,71.5643351 58.7622074,69.2223892 L58.7622074,54.5966595 C58.7622074,52.2547135 60.6419111,50.3554703 62.959763,50.3554703 L75.3232444,50.3554703 L75.3232444,73.4635784 Z" id="Fill-22" stroke="none" fill="#CCF7DF" fill-rule="evenodd"></path>
                        <path d="M98.8000889,73.4635784 L89.0914963,73.4635784 C87.6172,73.4635784 86.4212,72.2551459 86.4212,70.7655243 L86.4212,63.6530919 C86.4212,62.1634703 87.6172,60.9560108 89.0914963,60.9560108 L98.8000889,60.9560108 L98.8000889,73.4635784 Z" id="Fill-24" stroke="none" fill="#CCF7DF" fill-rule="evenodd"></path>
                        <path d="M47.3309704,67.5293189 L64.2473407,67.5293189" id="Fill-32" stroke="none" fill="#FFFFFF" fill-rule="evenodd"></path>
                        <path d="M47.3309704,67.5293189 L64.2473407,67.5293189" id="Stroke-33" stroke="#26D974" stroke-width="1.5" fill="none"></path>
                        <path d="M71.1492815,67.5293189 L74.0381704,67.5293189" id="Fill-35" stroke="none" fill="#FFFFFF" fill-rule="evenodd"></path>
                        <path d="M71.1492815,67.5293189 L74.0381704,67.5293189" id="Stroke-36" stroke="#26D974" stroke-width="1.5" fill="none"></path>
                        <path d="M74.668763,9.69261622 L80.1258741,6.86515676" id="Stroke-43" stroke="#27D974" stroke-width="1.5" fill="none"></path>
                        <path d="M74.668763,27.6216216 L80.1258741,30.4490811" id="Stroke-44" stroke="#27D974" stroke-width="1.5" fill="none"></path>
                        <path d="M47.1629111,9.69261622 L41.7058,6.86515676" id="Stroke-45" stroke="#27D974" stroke-width="1.5" fill="none"></path>
                        <path d="M48.1629111,27.6216216 L42.7058,30.4490811" id="Stroke-46" stroke="#27D974" stroke-width="1.5" fill="none"></path>
                        <path d="M47.75,73.277027 L75.1388889,73.277027 L75.1388889,37.1335107 C75.1388889,35.8971616 74.1247874,34.8851351 72.8790258,34.8851351 L50.0098631,34.8851351 C48.7536611,34.8851351 47.75,35.8877565 47.75,37.1335107 L47.75,73.277027 Z" id="Rectangle-12" stroke="#26D974" stroke-width="1.5" fill="none"></path>
                        <path d="M75.2330006,56.2905405 L75.2330006,73.277027 L97.8070747,73.277027 L97.8070747,58.5312602 C97.8070747,57.2976109 96.7980299,56.2905405 95.5567525,56.2905405 L75.2330006,56.2905405 Z" id="Rectangle-11" stroke="#26D974" stroke-width="1.5" fill="none"></path>
                        <g id="Group-11" stroke="none" stroke-width="1" fill="none" fill-rule="evenodd" transform="translate(50.000000, 7.000000)">
                            <path d="M19.9873047,20.2587891 L19.9873047,13.3774414 L21.7939453,13.3774414 L21.7939453,4.6875 C14.8687793,6.60148467 11.4061964,8.76778119 11.4061964,11.1863896 C11.4061964,13.6049979 11.1380518,16.6291311 10.6017627,20.2587891 L19.9873047,20.2587891 Z" id="Path-17" fill="#CCF7DF"></path>
                            <path d="M1.72607422,4.00732422 L20.4106445,4.00732422 L20.4106445,4.00732422 C20.9629293,4.00732422 21.4106445,4.45503947 21.4106445,5.00732422 L21.4106445,12.4711914 L21.4106445,12.4711914 C21.4106445,13.0234762 20.9629293,13.4711914 20.4106445,13.4711914 L1.72607422,13.4711914 L1.72607422,13.4711914 C1.17378947,13.4711914 0.726074219,13.0234762 0.726074219,12.4711914 L0.726074219,5.00732422 L0.726074219,5.00732422 C0.726074219,4.45503947 1.17378947,4.00732422 1.72607422,4.00732422 Z" id="Path-14" stroke="#43DF87" stroke-width="1.5"></path>
                            <rect id="Rectangle-3" fill="#43DF87" x="4" y="12" width="5" height="3"></rect>
                            <rect id="Rectangle-3" fill="#43DF87" x="13" y="12" width="5" height="3"></rect>
                            <path d="M1.68798828,13.4516602 L1.68798828,19.3945312 L1.68798828,19.3945312 C1.68798828,19.946816 2.13570353,20.3945312 2.68798828,20.3945312 L19.449707,20.3945312 L19.449707,20.3945312 C20.0019918,20.3945312 20.449707,19.946816 20.449707,19.3945312 L20.449707,13.4516602" id="Path-15" stroke="#43DF87" stroke-width="1.5"></path>
                            <path d="M6.75097656,4.5703125 L6.75097656,1.39208984 L6.75097656,1.39208984 C6.75097656,0.839805094 7.19869181,0.392089844 7.75097656,0.392089844 L14.4555664,0.392089844 L14.4555664,0.392089844 C15.0078512,0.392089844 15.4555664,0.839805094 15.4555664,1.39208984 L15.4555664,4.5703125" id="Path-16" stroke="#43DF87" stroke-width="1.5"></path>
                        </g>
                    </g>
                </g>
                <polygon id="1" fill="#26D974" mask="url(#mask-2)" points="55.906 47.36 55.906 37 51.566 37 51.566 39.226 53.26 39.226 53.26 47.36"></polygon>
                <path d="M32.406,59.832 L32.406,57.606 L28.892,57.606 C30.446,56.248 32.336,54.526 32.336,52.286 C32.336,51.88 32.238,51.474 32.07,51.096 C31.468,49.836 30.152,49.276 28.808,49.276 C27.548,49.276 26.316,49.78 25.616,50.858 C25.126,51.614 25.028,52.356 25,53.238 L27.52,53.238 C27.562,52.468 27.758,51.6 28.71,51.6 C29.312,51.6 29.69,52.02 29.69,52.608 C29.69,53.532 28.864,54.596 28.262,55.254 C27.324,56.29 26.26,57.018 25.098,57.774 L25.098,59.832 L32.406,59.832 Z" id="2" fill="#26D974" mask="url(#mask-2)"></path>
                <path d="M82.8274,64.7772 C82.8274,63.5032 82.0714,62.6772 80.8814,62.2712 C81.7634,61.7952 82.2534,61.1372 82.2534,60.1012 C82.2534,58.3232 80.6434,57.2732 79.0054,57.2732 C77.0594,57.2732 75.4914,58.4352 75.4634,60.4932 L78.0674,60.4932 C78.0814,59.9612 78.2914,59.5972 78.8794,59.5972 C79.3974,59.5972 79.6074,60.0592 79.6074,60.5072 C79.6074,61.5712 78.6134,61.5432 77.8574,61.5432 L77.8574,63.4892 C78.6834,63.4892 80.1814,63.3072 80.1814,64.5392 C80.1814,65.2392 79.7754,65.7012 79.0614,65.7012 C78.4034,65.7012 77.9974,65.3652 77.8574,64.7352 L75.1834,64.7352 C75.2534,65.4072 75.3794,65.9952 75.7574,66.5692 C76.4294,67.5772 77.8294,68.0252 78.9914,68.0252 C80.8254,68.0252 82.8274,66.7792 82.8274,64.7772 Z" id="3" fill="#26D974" mask="url(#mask-2)"></path>
            </g>
        </g>
    </g>
</svg>